<?xml version="1.0" encoding="UTF-8"?>
<!DOCTYPE svg PUBLIC "-//W3C//DTD SVG 1.1//EN" "http://www.w3.org/Graphics/SVG/1.1/DTD/svg11.dtd">
<!-- Creator: CorelDRAW 2019 (64-Bit) -->
<svg xmlns="http://www.w3.org/2000/svg" xml:space="preserve" width="3508px" height="2480px" version="1.1" style="shape-rendering:geometricPrecision; text-rendering:geometricPrecision; image-rendering:optimizeQuality; fill-rule:evenodd; clip-rule:evenodd"
viewBox="0 0 3508 2480.4"
 xmlns:xlink="http://www.w3.org/1999/xlink">
 <defs>
  <style type="text/css">
   <![CDATA[
    .str1 {stroke:#020202;stroke-width:2.36;stroke-miterlimit:22.9256}
    .str0 {stroke:dimgray;stroke-width:2.36;stroke-miterlimit:22.9256}
    .fil2 {fill:none}
    .fil0 {fill:#020202}
    .fil1 {fill:#020202}
   ]]>
  </style>
   <clipPath id="id0">
    <path d="M-0.52 0.84l3508.46 0 0 2480.41 -3508.46 0 0 -2480.41z"/>
   </clipPath>
 </defs>
 <rect class="fil0" x="-0.06" y="0.84" width="3508" height="2480.4"/>
 <g id="Слой_x0020_1">
  <metadata id="CorelCorpID_0Corel-Layer"/>
  <polygon class="fil1" points="-0.52,0.84 3507.94,0.84 3507.94,2481.25 -0.52,2481.25 "/>
  <g style="clip-path:url(#id0)">
   <g id="_2469768779296">
    <g id="запасной">
     <path id="1" class="fil2 str0" d="M1942.23 -3898.16c2007.86,0 3635.54,1627.47 3635.54,3635.06 -7.61,1018.65 -401.91,1924.97 -1128.76,2635.66 -312.56,304.57 -614.42,587.22 -1064.66,649.11 -131.11,18.02 -212.18,13.16 -338.97,19.07 -377.14,17.59 -720.84,283.02 -1122.69,322.62 -78.71,6.74 -154.9,4.3 -233.46,-0.86 -1026,-76.79 -1931.32,-544.13 -2573.91,-1349.88 -379.83,-483.75 -613.84,-944.98 -736.48,-1551.61 -48.85,-241.65 -71.2,-477.68 -72.14,-724.1 0,-2007.6 1627.69,-3635.07 3635.53,-3635.07z"/>
     <path class="fil2 str0" d="M1942.24 -3843.81c494.46,0 965.51,100.2 1393.95,281.39 428.45,181.19 814.29,443.39 1138.32,767.38 324.03,323.98 586.26,709.78 767.48,1138.17 181.22,428.39 281.43,899.38 281.43,1393.77 0,494.4 -100.21,965.39 -281.43,1393.78 -243.95,570.67 -580.47,979.65 -1030.74,1399.42 -316.44,289.8 -593.67,471.98 -1039.23,404.44 -195.63,-29.65 -233.25,-38.67 -423.05,43.18 -239.66,103.34 -494.41,252.74 -747.32,310.76 -102.86,22.16 -188.05,26.89 -293.03,21.66 -979.7,-68.21 -1886.4,-514.26 -2506.02,-1281.56 -235.36,-295.15 -410.82,-548.64 -560.12,-897.9 -181.21,-428.39 -281.42,-899.38 -281.42,-1393.78 0,-494.39 100.2,-965.38 281.42,-1393.77 181.22,-428.39 443.45,-814.19 767.48,-1138.17 324.03,-323.99 709.87,-586.19 1138.32,-767.38 428.44,-181.19 899.5,-281.39 1393.96,-281.39z"/>
     <path class="fil2 str0" d="M1942.24 -3777.39c485.28,0 947.6,98.34 1368.1,276.17 420.49,177.83 799.18,435.17 1117.2,753.14 318.02,317.98 575.38,696.62 753.24,1117.06 177.86,420.45 276.21,882.7 276.21,1367.92 0,485.22 -98.35,947.48 -276.21,1367.92 -239.79,555.42 -541.98,918.49 -966.38,1340.96 -279.28,274.12 -610.35,549.34 -1018.24,354.55 -150.15,-71.71 -198.09,-107.3 -367.23,-22.74 -123.54,61.75 -248.62,154.82 -376.21,224.43 -269.14,146.83 -456.08,256.62 -774.49,239.29l-15.05 -1.02c-629.63,-52.09 -1182.46,-244.46 -1705.15,-601.21 -248.39,-170.25 -443.01,-344.83 -635.44,-576.74 -236.3,-288.93 -461.33,-592.51 -609.74,-936.3l-9.16 -21.22c-177.85,-420.44 -276.2,-882.7 -276.2,-1367.92 0,-485.22 98.35,-947.47 276.2,-1367.92 177.86,-420.44 435.22,-799.08 753.25,-1117.05 318.02,-317.98 696.7,-575.32 1117.2,-753.15 420.49,-177.83 882.81,-276.17 1368.1,-276.17z"/>
     <path class="fil2 str0" d="M1942.24 -3674.74c471.1,0 919.92,95.47 1328.13,268.11 408.22,172.64 775.84,422.45 1084.57,731.14 308.74,308.69 558.58,676.26 731.24,1084.43 172.66,408.16 268.14,856.91 268.14,1327.96 -2.44,618.18 -150.08,1172.23 -462.92,1705.35 -167.1,283.21 -286.46,433.83 -503.44,677.51 -225.24,254.7 -706.43,884.73 -1083.86,541.56 -179.58,-168.64 -220.11,-296.51 -470.85,-126.4 -152.69,107.57 -268.27,235.54 -436.16,341.48 -184.54,116.45 -445.5,260.85 -666.84,264.25 -107.49,-0.82 -231.65,-19.99 -339.51,-35.27 -504.2,-71.94 -700.17,-155.11 -1142.22,-406.74 -140.41,-80.62 -255.68,-162.3 -387.39,-254.55 -52.53,-36.81 -99.76,-78.33 -153.2,-116.61 -39.49,-28.29 -60.77,-51.75 -89.93,-90.09 -51.78,-69.45 -114.9,-132.87 -170.73,-200.37 -148.71,-182.87 -327.22,-419.38 -456.87,-615.43 -80.46,-121.67 -134.28,-222.94 -192.11,-356.72 -172.66,-408.16 -268.14,-856.92 -268.14,-1327.97 0,-471.05 95.48,-919.8 268.14,-1327.96 172.66,-408.16 422.51,-775.74 731.24,-1084.43 308.73,-308.69 676.35,-558.5 1084.57,-731.14 408.21,-172.64 857.03,-268.11 1328.14,-268.11z"/>
     <path class="fil2 str0" d="M1942.24 -3511.71c448.59,0 875.96,90.91 1264.66,255.3 388.72,164.39 738.77,402.26 1032.75,696.2 293.97,293.94 531.88,643.95 696.29,1032.61 164.41,388.65 255.32,815.96 255.32,1264.5 -1.75,420.39 -86.29,959.85 -302.57,1325.16 -89.02,150.36 -176.8,279.54 -261.37,436.66 -161.45,295.75 -404.14,601.98 -638.56,845.97 -125.22,129.47 -348.35,375.85 -538.71,223.21 -136.57,-115.42 -168.08,-205.58 -267.73,-335.53 -72.3,-91.39 -134.79,-88.87 -230.54,-40.07 -118.92,60.61 -147.59,-10.47 -227.78,142.46 -47.08,89.81 -86.16,115.84 -158.57,181.7 -119.13,108.36 -224.66,193.49 -365.15,274.36 -40.6,22.89 -81.2,45.48 -122.14,67.76 -173.84,93.91 -284.09,124.79 -484.62,109.32 -457.82,-38.84 -607.29,3.73 -1028.87,-256.72 -152.04,-93.86 -307.24,-186.12 -452.68,-289.93 -64.21,-45.82 -132.42,-37.42 -208.55,-69.24 -41.52,-17.36 -170.2,-94.9 -193.44,-130.21 -24.8,-37.69 -21.61,-122.73 -27.14,-170.17 -8.09,-65.04 -43.55,-97.89 -81.71,-149.59 -79.39,-107.56 -157.06,-208.44 -246.37,-308.28 -315.07,-350.47 -446.71,-599.38 -562.75,-1058.65 -66.96,-265 -97.67,-525.04 -98.8,-798.2 -0.01,-448.55 90.91,-875.86 255.32,-1264.51 164.41,-388.66 402.32,-738.67 696.29,-1032.61 293.98,-293.94 644.04,-531.81 1032.75,-696.2 388.7,-164.39 816.07,-255.3 1264.67,-255.3z"/>
     <path class="fil2 str0" d="M1942.24 -3427.17c436.92,0 853.16,88.54 1231.75,248.65 378.6,160.11 719.54,391.8 1005.87,678.09 286.33,286.29 518.05,627.19 678.18,1005.74 160.13,378.54 248.68,794.73 248.68,1231.59 -1.47,345.54 -69.85,887.6 -252.97,1182.86 -121.75,196.3 -229.56,279.82 -331.18,510.68 -151.55,343.61 -241.33,476.31 -487.27,756.87 -110.88,126.61 -361.41,447.31 -552.28,317.47 -142.55,-104.35 -185.85,-223.01 -274.12,-363.23 -52.93,-78.72 -114.1,-128.94 -207.26,-77.35 -99.81,55.27 -68.51,68.36 -195.7,69.38 -76.87,0.62 -101.1,35.66 -128.6,102.61 -57.47,148.81 -37.37,127.47 -165.26,240.97 -36.44,32.33 -72.92,62.83 -111.48,92.6 -72.23,55.29 -184.89,124.83 -265.64,167.46 -30.09,15.89 -60.29,31.59 -90.44,47.36 -174.44,91 -258.81,108.27 -458.31,101.66 -333.19,-13.51 -496.46,36.72 -819.72,-131.11 -142.74,-76.16 -259.84,-154.39 -384.92,-256.84 -45.35,-37.03 -201.54,-165.53 -247.47,-179.43 -99.66,-28.16 -220.5,26.83 -287.42,-87.16 -25.49,-43.43 -13.05,-88.37 -34.07,-135.37 -18.82,-42.1 -17.09,-45.91 -25.47,-89.87l-1.05 -5.52c-5.93,-30.46 -12.66,-47.76 -28.29,-74.54 -118.58,-185.8 -181.21,-282.7 -345.83,-437.39 -231.3,-216.36 -322.97,-345.36 -434.52,-643.46 -134.61,-359.72 -198.07,-724.89 -199.7,-1108.65 0,-436.86 88.55,-853.05 248.68,-1231.6 160.13,-378.54 391.85,-719.44 678.18,-1005.73 286.33,-286.29 627.27,-517.98 1005.87,-678.09 378.59,-160.11 794.83,-248.65 1231.76,-248.65z"/>
     <path class="fil2 str0" d="M1942.24 -3319.43c422.04,0 824.11,85.53 1189.81,240.19 365.7,154.65 695.04,378.45 971.62,654.99 276.58,276.54 500.4,605.84 655.08,971.49 265.29,634.64 304.85,1310.94 138.88,1976.9 -110.56,420.4 -390.65,392.88 -526.53,812.48 -108.98,346.04 -65.17,372.81 -306.02,681.54 -104.18,132.52 -375.47,501.65 -571.4,385.13 -164,-106.65 -179.38,-243.86 -270.4,-388.38 -22.48,-29.07 -48.2,-54.2 -72.27,-84.02 -78.02,-96.66 -115.29,-53.49 -181.87,26.21 -45.57,54.56 -81.47,106.08 -155.34,117.59 -81.4,12.69 -116.81,5.15 -166.31,88.82 -9.91,16.74 -17.36,32.81 -25.25,50.53 -51.91,121.46 -49.33,114.55 -156.13,199.61 -24.41,19.44 -59.54,47.55 -87.61,60.85 -80.05,34.54 -117.8,5.44 -200.08,81.86 -79.22,73.57 -70.85,79.25 -169.78,125.25 -257.42,119.71 -317.67,102.62 -592.94,120.54 -8.53,0.56 -17.05,1.13 -25.58,1.7 -329.35,19.85 -553.7,-56.91 -809.32,-263.96 -107.51,-87.09 -66.05,-179.12 -210.12,-247.51 -48.73,-23.27 -80,-43.28 -122.46,-76.45 -38.18,-29.83 11.28,-77.32 -83.83,-83.67 -53.45,-3.57 -77.5,0.34 -119.66,-41.2 -10.27,-10.11 -16.25,-18.39 -23.18,-30.97 -26.78,-52.3 -23.21,-57.71 -69.29,-98.46 -32.48,-28.72 -44.92,-57.98 -63.79,-96.29 -10.95,-22.2 -21.42,-44.64 -32.14,-66.94l-3.54 -7.34c-110.91,-229.88 -144.15,-279.25 -361,-430.42l-12.77 -8.9c-232.37,-158.56 -314.14,-306.09 -409.93,-569.17 -123.88,-340.21 -181.99,-683.91 -183.58,-1045.67 1.84,-419.17 78.53,-802.88 240.21,-1189.66 154.68,-365.65 378.51,-694.95 655.08,-971.49 276.58,-276.54 605.92,-500.33 971.62,-654.99 365.7,-154.66 767.77,-240.19 1189.82,-240.19z"/>
     <path class="fil2 str0" d="M1942.23 -3262.73c414.23,0 808.84,83.94 1167.75,235.73 358.92,151.78 682.15,371.43 953.59,642.84 271.45,271.41 491.13,594.6 642.93,953.47 209.74,501.85 274.68,990.99 208.96,1530 -23.69,194.23 -50.02,492.05 -200.93,627.54 -106.45,95.58 -147.93,75.62 -251.67,223.18 -232.94,340.65 -153.99,534.68 -306.35,840.73 -89.92,172.17 -405.36,647.79 -636.2,564.79 -167.76,-83.03 -196.53,-228.88 -275.27,-375.76 -25.5,-47.56 -88.48,-139.55 -140.56,-157.69 -110.56,-38.52 -173.49,183.54 -278.03,219.09 -20.25,6.89 -45.76,12.07 -67.04,16.91 -171.04,38.68 -139.28,179.51 -239.66,259.85 -35.25,28.21 -71.03,55.22 -107.82,81.37 -107.27,75.67 -167.97,-34.11 -283.21,107.08 -80.03,98.07 -81.04,103.12 -205.63,157.98 -104.04,45.82 -183.99,58.05 -296.12,69.37l-16.87 1.66c-358.42,33.05 -532.7,92.25 -861.58,-129.1 -48.54,-33.12 -139.52,-88.25 -168.13,-137.05 -55.22,-94.19 -32.46,-176.97 -150.09,-228.87 -20.2,-8.87 -127.81,-54.97 -128.33,-78.61 -0.62,-28.44 78.54,-62.51 -71.39,-114.67 -28.04,-9.76 -48.17,-9.34 -73.23,-16.51 -21.39,-6.12 -42.45,-25.94 -60.84,-39.08l-5.46 -3.9c-100.42,-71.93 -125.18,-117.37 -163.68,-231.56 -11.89,-35.29 -26.56,-59.35 -40.94,-92.48 -54.77,-124.64 -78.6,-171.63 -185.84,-260.34 -44.94,-37.18 -92.83,-67.45 -143,-96.93 -226.82,-129.14 -294.61,-199.47 -396.93,-444.73 -303.84,-728.31 -281.91,-1567.51 17.31,-2292.27 151.8,-358.87 371.48,-682.05 642.93,-953.47 271.44,-271.41 594.67,-491.06 953.59,-642.84 358.91,-151.79 753.53,-235.73 1167.74,-235.73z"/>
     <path class="fil2 str0" d="M1942.23 -3153.72c399.17,0 779.44,80.89 1125.31,227.16 345.88,146.27 657.36,357.94 918.94,619.49 261.58,261.55 473.27,572.99 619.56,918.81 234.26,560.79 262.52,1045.56 187,1639.86 -48.98,385.46 -214.57,168.9 -327.7,289.69 -122.49,158.34 -248.09,543.28 -300.88,747.4 -89.55,365.53 -90.3,630.84 -406.31,893.09 -220.86,177.22 -333.77,21.39 -429.09,-178.07 -44.99,-87.67 -145.72,-276.91 -261.33,-267.54 -126.57,10.25 -165.49,218.84 -305.6,280.19 -83.1,36.38 -102.57,31.75 -166.45,108.7 -74.06,92.11 -54.3,89.05 -159.76,154.56 -21.11,13.11 -42.03,25.24 -63.82,37.15 -110.11,59.35 -170.73,-40.68 -310.07,117.37 -74.32,84.3 -74.48,79.45 -174.07,127.47 -126.23,58.88 -543.76,133.93 -684.74,128.43 -190.87,-16.82 -379.14,-109.28 -523.19,-233.63 -83.76,-72.3 -45.87,-181.46 -180.16,-282.05 -47.84,-35.72 -80.91,-59.83 -123.56,-102.98 -33.16,-33.54 -68.23,-66.41 -102.21,-99.39 -46.12,-44.77 -86.02,-68.45 -136.63,-105.56 -31.34,-23.74 -77.13,-67.75 -77.77,-109.78 -0.68,-45.36 27.67,-124.34 -15.33,-156.59 -28.21,-21.15 -39.38,-14.43 -37.78,-58.14 4.4,-120.35 24.24,-161.71 -105.12,-216.92 -62.77,-26.29 -63.99,-30.03 -117.77,-67.35 -26.91,-18.68 -53.53,-33.79 -82.49,-48.96 -225.59,-108.79 -295.49,-82.73 -418.29,-340.54 -154.63,-324.62 -231.94,-771.34 -227.78,-1130.34 2.61,-225.55 30.96,-441.41 75.8,-662.17 31.83,-154.16 78.35,-298.38 138.97,-443.51l8.52 -20.39c146.29,-345.82 357.98,-657.26 619.57,-918.81 261.58,-261.55 573.06,-473.22 918.93,-619.48 345.87,-146.28 726.14,-227.17 1125.3,-227.17z"/>
     <path class="fil2 str0" d="M1942.23 -2871.84c360.25,0 703.44,73 1015.58,205.01 312.15,132.01 593.25,323.03 829.32,559.07 236.08,236.05 427.12,517.12 559.15,829.23 132.44,317.49 197.61,622.98 202.44,966.66 1.54,109.22 15.34,173.99 29.25,278.6 28.06,254.44 -211.5,-78.63 -356.04,303.49 -58.96,158.67 -113.25,338.41 -166.07,501.17 -94.64,297.03 -163.78,606.41 -248.83,907.6 -93.11,329.75 -230.61,461.98 -397.12,79.68 -49.46,-113.55 -30.43,-206.46 -58.09,-271.75 -53.92,-127.24 -268.34,-3.98 -332.71,50.91 -129.29,115.53 -240.59,253.38 -385.9,349.58 -38.37,25.41 -34.96,54.42 -60.91,85.11 -36.16,42.78 -89.74,8.15 -135.76,26 -8.18,3.18 -16.03,6.31 -24.31,9.36 -127.43,45.91 -126.61,35.81 -254.04,48.59 -110.06,11.04 -132.64,111.66 -244.12,155.62 -76.77,30.27 -99.34,25.35 -176.89,73.96 -207.84,124.29 -465.45,257.29 -706.05,147.89 -112.81,-64.59 -261.56,-166.99 -300.52,-297.24 -45.95,-153.64 -22.81,-212.16 -195.62,-274.23l-13.93 -4.85c-172.71,-57.57 -256.12,-100.68 -301.57,-287.96 -23.98,-112.86 -4.6,-208.38 -17.42,-316.86 -10.66,-90.15 -86.74,-71.22 -93.88,-134.93 -4.75,-42.4 -0.75,-49.98 -39.74,-76.47l-6.25 -4.2c-197.66,-129.79 -399.3,-50.03 -536.01,-320.51 -10.45,-22.48 -19.69,-45.28 -28.94,-68.26 -82.32,-216.89 -175.8,-530.76 -118.76,-760.21 53.53,-215.33 106.14,-240.72 102.38,-494.43 -6.76,-456.59 -28.77,-571.3 212.37,-980.15 114.16,-193.56 246.12,-361.82 404.1,-521.4 236.07,-236.04 517.18,-427.06 829.32,-559.07 312.15,-132.01 655.34,-205.01 1015.57,-205.01z"/>
     <path class="fil2 str0" d="M1942.24 -2750.88c343.53,0 670.81,69.62 968.48,195.51 297.67,125.88 565.74,308.05 790.87,533.15 225.13,225.1 407.31,493.14 533.22,790.77 125.67,301.44 180.83,566.69 193.11,891.74 4.34,114.73 21.27,143.29 48.67,247.13 17.99,95.19 -56.32,78.83 -136.72,112.49 -145,60.7 -177.15,230.55 -220.52,370.18 -80.13,247.15 -180.18,475.39 -241.6,728.15 -30.08,123.8 -160.74,637.48 -258.35,705.29 -81.53,56.62 -158.17,-106.64 -167.24,-168.36 -20.68,-140.88 99.22,-401.16 -145.75,-393.22 -174.94,5.67 -325.97,132.97 -427.41,264.55 -44.99,57.22 -83.26,102.88 -134,155.24 -52.3,53.97 -37.37,77.48 -123.63,105.89 -21.84,7.19 -35.68,11.84 -56.46,22.25 -45.15,25.28 -41.76,56.48 -108.58,70.69 -45.01,9.57 -40.77,7.07 -82.26,28.08l-5.02 2.54c-138,69.75 -169.5,7.73 -292.94,15.46 -89.68,9.71 -151.15,82.05 -223.43,133.26 -43.74,31 -84.96,56.3 -128.15,89.6 -62.76,47.74 -130.62,91.75 -198.84,131.31 -88.25,49.11 -172.45,87.7 -273.23,101.85 -149.39,1.79 -259.27,-56.92 -365.48,-158.72 -72.42,-78.47 -73.54,-135.16 -77.35,-234.49 -3.08,-80.12 -23.24,-124.12 -98.24,-161.76 -33.81,-16.97 -33.32,-24.31 -75.33,-34.47 -16.64,-4.03 -54.88,-8.64 -52.29,-32.68 2.08,-19.32 -7.38,-21.37 -25.97,-28.23 -49.79,-18.35 -52.55,-16.44 -103.19,-21.88 -71.31,-7.67 -106.95,-49.96 -134.36,-112.54 -11.88,-27.12 -19.57,-54.47 -25.76,-83.3l-5.61 -40.36c-3.25,-86.47 13.95,-157.73 17.37,-240.68 2.15,-51.83 -2.39,-113.76 -38.52,-154.15 -18.6,-20.79 -34.47,-36.17 -52.69,-58.63 -22.93,-28.28 -33.48,-36.52 -64.1,-55.8 -198.7,-123.53 -384.67,-48.25 -519.11,-311.41 -17.44,-37.38 -31.34,-75.29 -45.18,-114.06 -57.07,-166.91 -139.9,-403.34 -39.14,-566.58 100.91,-163.47 215.19,-159.49 179.25,-413.69 -30.29,-214.26 -101.07,-329.61 -97.6,-571.64 3.61,-252.14 112.24,-437.9 249.9,-641.64 90.96,-134.62 189.62,-252.77 303.82,-368.18 225.13,-225.1 493.2,-407.27 790.87,-533.15 297.67,-125.89 624.95,-195.51 968.49,-195.51z"/>
     <path class="fil2 str0" d="M1942.24 -2668.27c332.13,0 648.53,67.3 936.32,189.01 287.79,121.71 546.96,297.82 764.61,515.45 217.65,217.62 393.79,476.76 515.51,764.51 116.65,280 173.96,539.83 186.27,842.3 4.92,120.75 19.45,131.83 57.27,237.2 25.03,109.01 -118.2,66.68 -205.71,215.07 -88.39,158.53 -143.38,409.66 -221.83,593.12 -70.81,169.38 -100.47,252.14 -142.17,431.83 -33.8,145.67 -123.45,419.99 -203.36,543.66 -80.26,124.24 -129.68,-22.11 -130,-107.98 -0.52,-142.53 64.69,-345.17 -147.21,-389.15 -209.91,-43.56 -397.8,164.1 -510.16,313.76 -41.36,54.01 -80.75,102.73 -130.05,149.92 -50.29,48.13 11.28,117.32 -118.81,118.64 -75.35,0.76 -60.61,0.96 -132.35,27.43 -36.18,13.34 -72.58,25.81 -109.31,37.54 -111.42,35.41 -126.32,23.49 -238.95,19.39 -85.58,-3.12 -153.55,31.87 -223,78.86l-9.6 6.5c-65.46,48.49 -147.3,125 -210.67,180.54 -38.22,33.47 -74.98,60.54 -116.4,89.65 -193.6,135.76 -402.93,205.22 -594.66,28.57l-17.93 -16.52c-80.57,-80.12 -66.33,-148.31 -72.4,-249.12 -3.88,-64.63 -25.31,-123.36 -87.31,-153.14 -18.85,-9.05 -16.59,-6.38 -28.48,-21.74 -10.16,-13.14 -24.56,-5.03 -19.82,-22.67 6.62,-24.69 -27.79,-41.28 -45.45,-50.6 -48.45,-25.59 -84.99,-20.02 -134.44,-38 -38.11,-13.86 -64.73,-11.38 -98.11,-20.88 -49.97,-14.23 -83.18,-87.89 -99.64,-132.67 -37.91,-150.12 54.92,-296.74 8.04,-421.02 -18.83,-49.92 -86.96,-44.69 -115.69,-108.83 -21.26,-47.47 -20.56,-48.76 -70.63,-74.76 -35.13,-18.24 -71.51,-32.67 -108.73,-45.99l-5.45 -1.96c-296.17,-96.97 -326.69,-122.49 -420.97,-419.98 -165.65,-535.37 226.46,-380.32 273.42,-619.69 55.67,-283.72 -347.03,-702.23 -121.47,-1164.09 110.23,-225.71 272.04,-441.45 448.38,-619.7 217.66,-217.63 476.83,-393.74 764.61,-515.45 287.79,-121.71 604.2,-189.01 936.33,-189.01z"/>
     <path class="fil2 str0" d="M1942.23 -2528.73c312.86,0 610.92,63.4 882,178.05 271.09,114.65 515.23,280.54 720.26,485.54 205.02,205 370.94,449.11 485.6,720.16 109.62,263.34 164.65,510.58 175.47,795.2 5.03,132.09 18.65,116.53 62.88,221.78 12.19,65.8 -69.05,108.52 -108.66,178.28 -98.17,181.34 -135.45,413.62 -231.89,615.22 -92.47,190.63 -131.12,264.59 -181.84,475.29 -13.72,56.97 -65.93,265.25 -128.54,278.61 -69.74,14.89 41.14,-311.92 -325.63,-374.33 -299.83,-36.23 -397.51,217.01 -537.88,422.56 -42.16,59.23 -112.23,87.35 -172.02,124.79 -33.94,21.25 -79.59,42.46 -116.53,58.92 -114.02,50.79 -197.1,36.61 -316.5,49.94 -7.55,0.85 -15.07,1.78 -22.6,2.74 -166.98,21.64 -306.15,65.66 -431.2,181.55 -48.22,44.69 -93.42,95.31 -137.06,144.48 -36.7,41.5 -65.69,66.22 -108.92,100.48 -150.16,117.07 -348.03,143.63 -465.95,-32.67 -80.39,-136.53 29.21,-249.02 -129.51,-352.95 -24.88,-16.29 -53.66,-20.78 -81.74,-38.75 -41.02,-26.26 -83.67,-47.86 -129.9,-63.24 -28.34,-9.43 -97.93,-47.1 -117.52,-67.31 -23.78,-24.52 -38.11,-50.04 -48.4,-82.47l-6.83 -22.83c-27.42,-140.99 47.12,-270.93 2.24,-399.14 -23.93,-64.25 -49.6,-96.92 -102.36,-139.52 -30.04,-24.26 -50.31,-47.69 -77.83,-72.21 -21.41,-19.07 -51.77,-27.59 -78.5,-39.87 -13.75,-6.32 -27.63,-12.34 -41.53,-18.33 -206.83,-81.92 -299.12,-102.53 -373.41,-335.4 -21.81,-68.38 -30.06,-125.37 -22.92,-196.8 32.05,-227.64 470.56,-66.49 364.95,-489.07 -53.21,-212.95 -164.75,-411.56 -228.61,-615.39 -99.89,-318.82 31.93,-539.6 218.56,-787.82 65.45,-87.04 133.58,-164.5 210.08,-241.9 205.02,-205 449.16,-370.89 720.24,-485.54 271.1,-114.65 569.15,-178.05 882,-178.05z"/>
     <path class="fil2 str0" d="M1942.24 -2386.55c293.22,0 572.57,59.42 826.65,166.87 254.07,107.45 482.89,262.94 675.05,455.08 192.16,192.13 347.66,420.91 455.13,674.96 124.42,303.72 150.04,483.48 165.78,807.3 5.64,116.13 51.41,155.59 57.08,214.05 4.16,42.98 -78.8,275.62 -97.35,338.83 -86.93,287.3 -136.98,383.06 -291.44,636.83 -21.37,35.1 -94.05,197.37 -124.62,199.66 -18.1,1.35 -190.44,-96.13 -231.81,-113.92 -140.37,-59.64 -351.45,-138.28 -453.14,25.27 -66.25,109.69 -113.64,233.43 -179.93,336.9 -27.89,42.8 -63.01,85.57 -117,92.79 -49.35,6.59 -96.45,-76.54 -133.82,-3.16 -23.76,46.64 -21.61,59.46 -68.03,92.66 -80.07,57.26 -95.79,54.54 -193.93,65.02 -9.03,0.97 -18.05,1.92 -27.08,2.88 -60.95,6.48 -118.87,13.34 -179.14,25.27l-20.43 4.33c-178.01,39.72 -305.01,96.65 -444.84,215.1 -62.99,55.92 -107.15,114.96 -177.18,174.06l-10.44 8.82c-137.1,115.01 -259.31,113.09 -319.75,-71.66 -27.59,-84.36 -39.16,-183.93 -109.7,-245.19 -73.3,-53.68 -164.43,-80 -233.48,-132.68 -94.4,-72.02 -93.98,-164.8 -99.82,-273.67 -0.99,-18 -1.61,-36 -2.23,-54.02 -1.78,-54.64 -5.91,-55.89 7.6,-108.44 16.46,-63.98 13.84,-78.52 -34.68,-123.55 -30.18,-28 -32.08,-45.65 -53.96,-77.93 -40.47,-58.55 -70.36,-57.52 -124.7,-95.33 -20.98,-14.6 -67.71,-45.08 -75.52,-68.42 -7.47,-22.34 -9.51,-20.79 -33.32,-29.95 -59.97,-23.76 -87.03,-47.07 -138.24,-81.66 -34.84,-23.53 -59.32,-23.02 -95.28,-51.68 -94.44,-75.28 -121.63,-168.21 -107.91,-285.75 33.33,-201.86 459.18,-72.59 313.65,-586.64 -58.39,-206.22 -159.6,-403.18 -218.02,-602.48 -83.48,-284.83 46.09,-486.69 214.62,-704.67 56.47,-73.04 114.69,-138.31 179.52,-203.94 192.16,-192.13 420.98,-347.62 675.06,-455.07 254.07,-107.45 533.42,-166.87 826.65,-166.87z"/>
     <path class="fil2 str0" d="M1942.24 -2240.15c273.01,0 533.09,55.32 769.65,155.37 236.57,100.04 449.61,244.8 628.52,423.69 178.91,178.89 323.7,391.9 423.75,628.44 144.62,353.76 131.17,497.67 169.45,860.42 25.96,246.01 79.64,235.94 14.92,506.99 -49.2,179.76 -120.18,359.52 -261.56,487.87 -224.14,183.33 -626.04,-108.91 -795.27,8.99 -68.32,51.45 -87.79,199.65 -111.68,281.47 -23.85,78.12 -83.11,225.83 -159.8,262.92 -53.3,25.78 -102.68,-59.64 -169.13,31.57 -29.59,40.61 -33.44,46.75 -82.43,66.22 -28.74,11.42 -56.26,16.34 -86.79,20.02 -180.48,23.21 -293.87,47.39 -463.53,117.33 -35.5,14.77 -69.71,30.66 -104.44,47.12 -67.54,32.47 -133.87,62.57 -198,101.59 -63.76,40.19 -211.14,170.13 -275.43,163.32 -47.82,-5.07 -81.68,-56.43 -106.32,-93.25 -38.55,-60.43 -53.93,-96.19 -107.97,-147.88 -27.86,-24.02 -44.89,-36.62 -76.74,-55.77 -43.82,-26.35 -47.63,-42.98 -79.35,-78.54 -57.57,-64.54 -94.16,-102.38 -107.57,-192.64 -4.29,-28.87 -11.26,-57.72 -17.41,-86.31 -13.64,-63.37 -28.02,-132.83 -45.13,-195.1 -20.55,-74.85 -60.91,-156.84 -110.64,-216.63 -49.91,-59.26 -108.91,-106.2 -172.29,-150.18l-3.05 -2.11c-37.91,-24.53 -133.85,-78.69 -157.47,-110.11 -38.24,-50.86 -32.15,-72.74 -97.05,-107.95 -27.02,-14.66 -35.18,-28.59 -41.1,-59.49 -19.48,-101.77 90.28,-180 155.2,-242.65 37.25,-35.95 70.36,-72.06 90.76,-120.35 25.1,-62.21 24.15,-126.54 18.32,-192.14 -25.77,-254.72 -165.64,-508.99 -215.97,-753.17 -49.52,-240.31 86.03,-434.72 228.64,-613.57 47.24,-59.25 95.54,-112.53 148.73,-166.43 178.92,-178.88 391.95,-323.65 628.52,-423.69 236.56,-100.05 496.65,-155.37 769.66,-155.37z"/>
     <path class="fil2 str0" d="M1942.24 -2163.7c262.45,0 512.48,53.18 739.89,149.36 227.42,96.17 432.21,235.34 604.21,407.31 171.99,171.98 311.18,376.75 407.37,604.13 138.18,343.5 135.77,530.34 175.6,886.44 14.61,130.58 52.39,356.95 28.94,478.79 -47.29,194.31 -151.09,462.93 -392.17,455.23 -155.47,-4.96 -473.06,-119.42 -599.45,-66.22 -131.6,70.12 -119.98,217.54 -160.89,349.53 -25.6,75.1 -77.64,184.67 -140.14,234.54 -49.03,39.11 -84.67,-14.08 -155.58,48.29 -35.4,31.14 -38.98,34.62 -86.67,43.25 -33.46,6.05 -70.55,6.58 -105.31,11.38 -161,26.87 -277.33,67.79 -427.74,127.59l-6.21 2.47c-83.04,33.89 -176.42,71.46 -257.46,109.51l-39.82 18.71c-72.64,36.36 -127.4,78.77 -202.42,113.72 -105.94,48.02 -138.25,-49.29 -209.48,-116.99 -35.53,-33.57 -72.26,-65.81 -114.06,-91.26 -42.43,-25.83 -16.01,-40.82 -46.71,-79.24 -23.34,-29.23 -44.38,-55.67 -68.91,-84.06 -48.85,-56.55 -41.86,-89.05 -63.12,-154.28 -19.89,-61.03 -37.19,-123.11 -55.72,-184.59 -18.37,-60.82 -56.07,-141.77 -81.28,-203.03 -34.88,-84.76 -66.23,-123.09 -138.95,-179.56l-9.46 -7.35c-115.94,-77.36 -339.39,-188.66 -327.75,-352.9 31.54,-171.9 303.85,-148.74 176.54,-682.76 -44.84,-177.94 -179.29,-511.81 -161.23,-678.68 22.25,-205.49 231.6,-458.41 373.87,-602.66 172,-171.97 376.8,-311.14 604.21,-407.31 227.41,-96.18 477.44,-149.36 739.9,-149.36z"/>
     <path class="fil2 str0" d="M1942.24 -1955.6c233.71,0 456.37,47.35 658.88,133 202.52,85.65 384.89,209.58 538.06,362.72 278.04,286.52 411.46,566.33 483.53,955.92 52.62,266.52 306.53,1299.41 -250.37,1174 -213.4,-50.94 -538.1,-235.61 -675.65,43.29 -77.54,177.03 0.81,342.2 -196.85,467.89 -71.86,45.7 -164.95,39.04 -249.82,64.91 -32.34,10 -72.97,19.68 -94.48,47.21 -17.19,21.99 -21.31,44.1 -54.53,53.67 -45.42,13.08 -65.21,-11.91 -127.54,19.14 -24.6,12.25 -48.78,27.31 -74.07,40.28 -55.64,28.55 -111.23,56.86 -167.71,83.73 -24.37,11.57 -48.74,23.03 -73.18,34.42 -81.02,37.33 -155.57,67.45 -245.44,73.43 -37.51,2.49 -86.96,28.7 -116.15,23.05 -36.88,-7.15 -48.05,-60.54 -78.93,-87.04 -24.02,-20.61 -41.34,-34 -64.07,-57.48 -14.83,-15.33 -28.67,-31.08 -42.31,-47.43 -73.05,-92.87 -129.03,-205.87 -167.46,-317.28 -16.76,-54.7 -37.33,-97.54 -56.92,-149.54 -19.68,-52.24 -40.25,-146.38 -27.12,-201.1 9.86,-41.1 5.43,-52.42 -21.5,-86.62 -33.76,-42.88 -55.49,-66.88 -100.01,-99.72 -37.58,-26.63 -76.58,-44.64 -119.26,-60.9 -149,-51.17 -222.01,-142.75 -179.14,-304.01 22.89,-86.1 50.58,-144.11 64.47,-236.79l3.31 -27.75c18.83,-282.06 -157.61,-701.71 -101.35,-901.17 46.29,-164.14 218.87,-382.47 338.67,-504.11 153.16,-153.14 335.53,-277.07 538.05,-362.72 202.51,-85.65 425.17,-133.01 658.89,-133z"/>
     <path class="fil2 str0" d="M1942.23 -1845.13c218.47,0 426.59,44.27 615.89,124.32 189.29,80.06 359.76,195.9 502.93,339.05 356.25,367.66 465.02,750.88 536.95,1244.01 36.54,249.41 134.85,825.5 -297.21,725.15 -234.87,-54.56 -460.51,-199.1 -646.73,37.65 -77.4,122.05 -54.04,225.99 -108.53,329.42 -35.45,67.29 -90.29,84.17 -155.7,115.31 -64.9,30.9 -133.2,55.05 -197.01,86.53 -52.94,26.9 -103.97,52.56 -154.41,84.11 -33.3,20.83 -73.81,41.19 -108.82,60.94 -72.88,41.11 -145.76,74.12 -223.62,104.67l-16.64 6.51c-72.96,28.32 -142.06,53.89 -220.75,60.38 -52.38,4.32 -125.7,33.32 -162.29,-14.42 -23.26,-30.35 -17.61,-45.69 -52.08,-78.79 -26.84,-25.78 -51.59,-54.22 -75.25,-82.96 -85.7,-113.62 -112.49,-203.33 -154.47,-336.1 -23.34,-75.28 -20.62,-83.14 8.94,-150.66 21.92,-50.06 -8.39,-87.61 -21.77,-135.24 -6.92,-24.6 -25.16,-72.63 -43.08,-88.9l-3.6 -3.27c-44.79,-36.21 -86.35,-24.11 -106.24,-96.73 -11.29,-41.2 -19.68,-47.36 -61.76,-60.95 -72.64,-23.46 -188.15,-23.89 -241.25,-76.35 -45.52,-44.97 -42.87,-117.21 -34.92,-176 11.24,-78.83 24.57,-148.77 31.67,-228.96 1.48,-18.66 2.31,-36.53 2.96,-55.16 1.24,-230.52 -74.51,-454.11 -74.95,-666.3 -0.32,-156.01 104.47,-312.74 195.53,-434.04 46.23,-61.58 93.47,-115.02 147.4,-169.85 143.17,-143.15 313.64,-258.99 502.93,-339.05 189.3,-80.05 397.42,-124.32 615.88,-124.32z"/>
     <path class="fil2 str0" d="M1942.23 -1753.11c205.76,0 401.78,41.69 580.06,117.1 178.29,75.39 338.84,184.5 473.68,319.31 335.47,346.4 461.63,708.97 533.51,1176.82 29.35,193.19 118.37,673.93 -199.34,663.99 -273.08,-14.87 -519.69,-217.22 -732.34,60.84l-8.16 10.66c-62.67,90.63 -67.85,137.75 -112.14,229.01 -47.29,97.42 -98.87,104.72 -182.93,158.89 -45.46,29.28 -92.78,55.36 -138.48,84.81 -26.29,17.18 -52.69,34.19 -79.1,51.19 -179.79,115.6 -252.53,166.81 -469.54,202.88 -211.78,26.7 -336.43,-89.47 -398.11,-282.12 -25.54,-79.78 -50.04,-102.71 -55.29,-194.97 -7.65,-134.51 35.86,-185.11 -42.63,-325.66 -47.82,-84.04 -126.72,-159.08 -221.62,-184.83 -67.46,-18.31 -125.62,-11.95 -189.6,-23.55 -98.74,-17.88 -112.41,-92.8 -113.68,-181.24 0.98,-62.12 6.06,-127.14 9.01,-189.69 1.21,-27.2 1.77,-53.83 1.85,-81.06 -3.16,-182.48 -71.63,-529.11 -33.9,-677.64 39.76,-156.55 211.17,-382.43 325.02,-498.33 134.84,-134.81 295.39,-243.92 473.68,-319.31 178.29,-75.41 374.3,-117.1 580.05,-117.1z"/>
     <path class="fil2 str0" d="M1942.24 -1696.71c197.96,0 386.56,40.12 558.09,112.66 171.54,72.54 326.02,177.52 455.76,307.24 333.14,343.86 474.42,708.67 538.26,1177.05 26.47,197.22 93,589.65 -216.3,573.63 -298.83,-20.57 -484.84,-185.28 -718.34,89.3 -45.55,57.59 -71.79,95.81 -110.37,157.84 -61.12,98.25 -109.99,132.09 -193.94,206.42 -48.23,42.72 -99.31,80.51 -152.27,117.06 -164.75,110.77 -355.9,231.06 -564.64,188.2 -41.92,-8.6 -66.93,-20.08 -102.72,-42.77 -105.27,-81.11 -140.37,-167.51 -162.27,-294.9 -16.37,-99.02 -3.06,-185.17 -28.35,-286.2 -20.46,-81.71 -28.43,-115.72 -82.16,-185.28 -8.38,-10.86 -16.38,-21.89 -24.83,-32.71 -25.05,-31.72 -78.43,-26.89 -120.91,-67.69 -35.84,-34.41 -34.31,-36.48 -87,-43.73 -20.2,-2.78 -40.52,-5.04 -60.78,-7.44 -152.92,-9.77 -228.46,15.53 -243.03,-186.73 -8.68,-120.47 -0.25,-241.72 -7.99,-363.59 -13.71,-157.7 -47.94,-393.46 2.96,-542.61 63.01,-163.37 184.74,-331.33 306.98,-455.85 129.73,-129.72 284.21,-234.7 455.75,-307.24 171.54,-72.54 360.13,-112.66 558.1,-112.66z"/>
     <path class="fil2 str0" d="M1942.24 -1652.51c191.86,0 374.64,38.88 540.89,109.19 166.25,70.31 315.96,172.05 441.69,297.76 330.42,340.7 482.86,702.61 540.25,1170.09 24.52,206.36 75.91,525.54 -230.01,508.28 -128.89,-8.95 -234.16,-39.51 -355.27,-53.63 -155.03,-18.07 -261.48,63.96 -358.03,177.81 -45.14,54.88 -88.01,111.8 -132.64,165.84 -43.59,52.78 -111.13,117.1 -161.65,165.16 -91.56,87.1 -183.39,155.55 -294.47,216.12l-18.32 9.87c-110.82,58.3 -212.49,76.46 -335.92,53.08 -244.7,-64.9 -212.09,-278.17 -245.78,-481.22 -2.74,-15.25 -15.95,-67.54 -15.38,-77.08 0.94,-15.53 19.17,-42.51 31.59,-52.52 21.72,-17.48 18.31,-25.94 -3.7,-44.9 -43.44,-37.42 -72.91,-46.02 -103.35,-99.79 -13.27,-23.45 -28.38,-44.39 -42.41,-67.48 -29.52,-48.56 -56.91,-41.73 -108.8,-51.97 -61.13,-12.45 -49.3,-52.87 -116.97,-55.43 -46.12,-1.75 -90.52,-0.28 -137.14,-3.58 -162.72,-12.34 -169.26,-63.46 -182.28,-218.97 -7.34,-98.47 -5.38,-197.45 -11.29,-296.4 -12.88,-163.72 -38.71,-365.16 18.66,-521.58 66.69,-164.17 174.03,-315.68 297.74,-441.7 125.73,-125.71 275.45,-227.45 441.7,-297.76 166.24,-70.31 349.03,-109.19 540.89,-109.19z"/>
     <path class="fil2 str0" d="M1942.24 -1567.37c180.1,0 351.68,36.5 507.74,102.5 156.07,66 296.61,161.5 414.64,279.51 312.56,321.1 490.38,659.63 540.13,1107.66 19.9,193 46.12,444 -223.11,434.81 -121.32,-4.67 -186.78,-19.19 -302.66,-38.32 -158.31,-26.14 -202.11,25.06 -318.74,120.72 -34.61,28.38 -63.32,56.56 -94.15,88.59 -108.83,111.99 -227.2,213.72 -339.31,326.82 -146.03,142.47 -353.28,305.2 -552.04,158.07 -102.8,-94.5 -107.08,-236.65 -138.47,-364.83 -11,-44.93 -5.99,-49.21 -0.45,-91.32 9.41,-71.55 -78.12,-95.98 -99.13,-160.2 -9.07,-27.74 -14.89,-52.12 -20.72,-80.4 -5.96,-28.34 -12.76,-67.48 -37.37,-85.14 -27.75,-19.9 -61.8,-21.85 -96.5,-48.21 -40.25,-30.57 -44.11,-30.68 -97.61,-29.36 -3.55,0.08 -7.11,0.2 -10.66,0.31 -92.96,3.17 -271.56,41.89 -326.19,-58.98 -20.59,-38.02 -29.52,-94.37 -36.35,-137.6l-2.39 -16.23 -2.22 -16.4c-9.15,-86.55 -8.64,-183.96 -12.39,-272.07 -12.64,-279.09 5.1,-406.33 166.28,-644.89 48.49,-71.77 98.77,-131.27 159.29,-193.03 118.03,-118.01 258.57,-213.51 414.63,-279.51 156.06,-66 327.64,-102.5 507.75,-102.5z"/>
     <path class="fil2 str0" d="M1942.24 -1486.76c168.97,0 329.95,34.24 476.36,96.16 396.49,178.03 699.46,537.93 839.88,945.03 62.54,186.26 226.42,706.63 -100.46,729.72 -154.2,8.71 -211.35,-31 -347.87,-48.58 -145.55,-18.75 -169.31,70.58 -271.19,153.53 -93.1,75.81 -183.92,155.7 -277.08,229.72 -145.11,122.62 -447.69,528.78 -636.55,272.42l-8.28 -11.24c-52.5,-81.46 -85.37,-186.53 -121.18,-277.17 -24.02,-60.78 -21.39,-81.5 -61.43,-139.62 -43.99,-63.86 -43.68,-85.14 -52.43,-158.58 -3.31,-27.72 -8.01,-53.85 -14.11,-81.05 -22.86,-96.46 -73.82,-92.69 -154.79,-121.27 -52.45,-18.51 -76.62,-13.17 -131.25,-9.24 -65.88,4.74 -153.06,15.28 -213.58,-15.55l-14 -7.51c-77.22,-46.73 -87.11,-145.18 -96.12,-226.94l-1.78 -16.98c-10.53,-133.74 -10.61,-359.86 29.2,-487.19l5.41 -17.32c7.15,-20.97 15.19,-40.54 23.6,-60.98 61.93,-146.4 151.54,-278.24 262.27,-388.96 110.74,-110.72 242.59,-200.32 389.01,-262.24 146.41,-61.92 307.39,-96.16 476.37,-96.16z"/>
     <path class="fil2 str0" d="M1942.24 -1415.69c159.16,0 310.79,32.25 448.7,90.57 466.08,209.89 849.23,723.44 892.84,1236.34 16.68,334.7 -127.95,339.47 -404.28,270.89 -143.43,-35.33 -190.98,-44.98 -284.92,81.44 -73.58,101.97 -147.56,141.35 -247.52,215.87 -26.35,19.65 -52.72,39.25 -79.14,58.79 -86.39,64.71 -161.28,138.43 -236.41,215.33 -96.72,99.01 -242.06,192.75 -356.26,61.82 -76.1,-88.91 -136.17,-249.71 -198.95,-356.21 -48.05,-81.53 -49.38,-136.25 -60.56,-225.67 -4.51,-34.62 -13.6,-89.92 -36.48,-116.51 -25.39,-29.51 -72.47,-54.83 -110.1,-64.71 -28.34,-7.45 -56.7,-10.29 -85.86,-11.87 -75.14,-3.69 -206.92,10.17 -271.03,-23.29 -8.69,-4.54 -14.62,-8.77 -22.08,-15.04 -49.26,-43.62 -64.26,-115.23 -75.2,-177.3 -2.2,-15.63 -3.73,-31.88 -5.29,-47.59 -10.74,-157.6 3.45,-318.53 61.45,-466.17l8.93 -22.74c58.33,-137.89 142.74,-262.07 247.04,-366.36 104.31,-104.3 228.5,-188.69 366.42,-247.02 137.91,-58.32 289.54,-90.57 448.7,-90.57z"/>
     <path class="fil2 str0" d="M1942.24 -1376.36c153.73,0 300.18,31.15 433.39,87.48 439.01,203.72 853.41,711.72 873.66,1205.33 6.76,279.54 -131.78,294.35 -363.12,230.64 -161.11,-45.37 -212.05,-78.59 -302.89,81.05 -66.53,116.92 -118.66,134.08 -223.13,207.45 -27.26,19.36 -54.45,38.34 -82.09,57.15 -54.95,37.3 -110.78,82.9 -163.39,124.5 -63.86,50.49 -105.92,109.9 -164.78,156.6 -130.71,103.69 -228.22,54.1 -308.44,-72.88 -49.13,-77.76 -87.51,-164.1 -136.18,-243.87 -58.43,-95.58 -58.21,-150.28 -71.5,-255.95 -6.6,-52.47 7.16,-61.68 -35.37,-106.6 -21.02,-22.19 -83.89,-51.91 -114.37,-60.67 -104.94,-30.15 -264.83,-10.69 -349.75,-53.37 -13.51,-6.79 -23.02,-13.61 -33.94,-24.01 -48.9,-48.79 -54.6,-124.4 -58.7,-189.73l-1.05 -32.92c-1.33,-169.91 12.73,-272.5 75.73,-430.27 56.34,-133.19 137.87,-253.13 238.62,-353.86 100.74,-100.73 220.7,-182.25 353.91,-238.59 133.2,-56.33 279.66,-87.48 433.39,-87.48z"/>
     <path class="fil2 str0" d="M1942.23 -1348.65c149.91,0 292.72,30.38 422.61,85.31 420.85,195.7 817.88,667.34 856.48,1139.22 17.56,340.11 -168.87,293.66 -417.96,217.68 -234.03,-71.38 -178.59,99.39 -305.96,222.68 -34.59,33.47 -103.38,73.94 -146.18,103.27 -27.92,19.36 -55.74,38.2 -84.1,56.91 -52.43,34.42 -97.54,71.3 -150.7,105.51 -85.67,55.13 -107.69,97.96 -176.86,158.07 -202.28,175.8 -318.52,-116.21 -399.08,-255.67 -6.44,-11.15 -12.98,-22.1 -19.61,-33.13 -50.47,-83.84 -63.19,-136.89 -71.5,-233.15 -2.27,-26.23 -2.38,-31.02 3.4,-56.62 6.01,-26.59 -12.6,-42.93 -29.33,-61.66 -33.77,-37.8 -39.46,-35.21 -83.7,-59.15 -125.99,-68.17 -335.26,-21.16 -418.96,-105.94 -49.79,-52.89 -54.96,-131.81 -56.69,-200.73l0.06 -34.19c3.83,-152.25 21.38,-244.32 77.71,-385.4 54.94,-129.88 134.44,-246.83 232.68,-345.06 98.23,-98.22 215.2,-177.71 345.09,-232.64 129.9,-54.93 272.7,-85.31 422.6,-85.31z"/>
     <path class="fil2 str0" d="M1942.23 -1246.9c135.86,0 265.28,27.53 382.99,77.31 365.53,170.35 757.06,586.49 792.82,1000.8 17.7,404.76 -408.4,46.05 -525.25,126.58 -77.38,53.34 -10.8,229.45 -179.5,350.42 -46.4,31.45 -87.05,56.65 -136.85,82.69 -52.84,26.76 -94.66,51.39 -145.33,80.58 -82,47.24 -120.45,50.63 -200.68,115.87 -109.31,88.9 -159.42,89.31 -253.32,-19.3 -37.35,-43.2 -71.7,-92.45 -105.83,-138.44 -39.69,-53.74 -70.79,-121.46 -81.26,-187.83 -3.44,-21.79 -0.61,-48.02 14.48,-64.94 21.61,-24.22 28.62,-34.11 0.77,-62.44 -20.72,-21.08 -46.66,-41.2 -69.08,-62.86 -25.01,-24.17 -48.06,-31.78 -77.92,-48.51 -54.12,-30.35 -123.64,-50.53 -183.9,-64.6l-5.27 -1.23c-198.19,-45.65 -226.98,-97.59 -204.94,-300.9l2.06 -17.62 2.36 -18.33c12.77,-89.02 34.29,-162.87 67.05,-246.39 49.79,-117.7 121.84,-223.69 210.87,-312.71 89.02,-89.01 195.03,-161.05 312.75,-210.84 117.71,-49.78 247.13,-77.31 382.98,-77.31z"/>
     <path class="fil2 str0" d="M1942.23 -1189.67c127.96,0 249.85,25.92 360.72,72.81 331.01,154.8 679.31,505.28 745.84,874.11 55.36,414.64 -393.78,18.33 -497.24,156.35 -66.4,88.58 6.37,251.71 -159.2,370.1 -47.05,31.67 -86.71,54.03 -138.07,78.25 -81.61,37.43 -150.1,78.63 -234.9,110.45 -40.16,15.07 -69.4,27.01 -107.03,48.45 -123.96,73.31 -148.56,69.69 -249.65,-37.71 -23.97,-25.47 -47.26,-51.9 -70.74,-77.84 -40.27,-45.16 -70.84,-98.59 -83.54,-158.19 -4.75,-22.28 -0.94,-51.66 13.07,-70.14 23.38,-30.84 22.68,-44.07 -7.6,-74.21 -20.8,-20.71 -43.44,-38.25 -64.88,-59.94 -25.62,-25.93 -48.08,-35.52 -78.43,-54.86 -50.35,-32.1 -110.34,-55.06 -166.87,-73.57 -183.99,-59.54 -216.04,-119.47 -178.32,-314.23l5.61 -28.96 7.8 -37.59c12.73,-56.25 28.64,-103.8 49.56,-157.37 46.89,-110.86 114.75,-210.69 198.6,-294.52 83.85,-83.84 183.69,-151.69 294.56,-198.58 110.87,-46.89 232.77,-72.81 360.71,-72.81z"/>
     <path class="fil2 str0" d="M1942.24 -1024.04c105.07,0 205.18,21.29 296.23,59.8 203.62,100.94 560.05,366.65 575.01,612.52 11.37,186.75 -293.87,-42.94 -350.93,252.73 -42.81,225 -20.41,297.31 -263.52,372.97 -29.13,9.54 -41.01,10.76 -69.66,16.63 -48.5,9.94 -67.27,46.26 -121.62,62.55 -16.19,4.86 -32.81,8.02 -49.45,10.86 -57.64,9.52 -103.4,73.87 -170.25,27.47 -36.97,-25.66 -25.02,-25.62 -71.58,-37.25 -65.73,-17.26 -119.05,-54.23 -149.67,-116.28 -10.42,-21.13 -9.35,-41.62 -10.26,-64.29 -0.99,-24.79 9.96,-33.21 -6.51,-64.34 -13.83,-26.14 -46.9,-57.44 -66.53,-82.61 -43.52,-55.83 -133.85,-116.8 -191.99,-161.45 -80.5,-61.91 -117.11,-111.33 -110.73,-215.04 6.48,-64.39 28.89,-128.58 51.81,-188.76 41.2,-106.49 93.82,-180.14 171.51,-262.64 68.86,-68.85 150.85,-124.57 241.9,-163.07 91.05,-38.51 191.16,-59.8 296.24,-59.8z"/>
     <path class="fil2 str0" d="M1942.24 -945.39c94.21,0 183.97,19.09 265.61,53.62 151.25,73.87 466.08,289.08 477.81,473.61 9.07,142.7 -195.72,33.7 -251.96,295.36 -11.59,56.33 -19.78,125.18 -35.93,178.36 -31.54,103.89 -113.67,131.54 -207.74,165.08 -22.89,8.17 -46.91,7.48 -39.49,-24.05 5.49,-23.37 11.76,-34.43 -21.25,-22.04 -50.66,19.01 -67.97,27.14 -93.56,74.94 -22.88,42.73 -30.13,48.84 -78.57,56.22 -45.04,6.89 -79.41,50.75 -115.68,47.61 -38.02,-3.29 -42.24,-64.73 -95.39,-70.89 -6.28,-0.73 -13.28,-1.06 -19.63,-1.5 -40.94,-2.92 -82.28,-9.36 -115.58,-34.79 -48.02,-44.05 -26.01,-102.2 -60.07,-155.93 -15.01,-23.68 -36.52,-47.72 -53.47,-72.04 -21.33,-30.59 -63.36,-75.97 -89.66,-102.06 -111.07,-110.18 -189.61,-150.44 -139.62,-328.03 7.76,-27.57 17.48,-53.95 28.2,-80.49 38.86,-95.13 94.42,-177.48 163.46,-253.14 61.74,-61.74 135.26,-111.7 216.9,-146.22 81.64,-34.53 171.4,-53.62 265.62,-53.62z"/>
     <path class="fil2 str0" d="M1942.24 -912.6c89.69,0 175.13,18.17 252.85,51.04 125.51,63.27 469.56,280.04 435.44,447.67 -19.21,94.43 -161.34,58.58 -208.86,293.5 -14.29,72.41 -25.08,175.51 -74.89,231.67 -39.73,44.79 -93.69,59.4 -146.31,82.9 -71.5,31.94 55.83,-113.05 -54.28,-55.1 -23.16,12.19 -48.48,23.32 -70.61,35.41 -58.35,31.89 -57.12,84.52 -93.48,99.37 -8.05,3.29 -15.43,3.52 -23.93,4.04 -38.48,2.15 -45.69,10.32 -77.84,18.86 -52,13.83 -56.49,-39.71 -125.21,-44.49 -10.68,-0.75 -21.65,-1.09 -32.38,-1.59 -49.26,-2.46 -108.17,-6.91 -129.67,-58.83 -5.83,-14.08 -9.33,-31.19 -15.17,-46.73 -11.42,-30.39 -10.42,-38.71 -31.08,-68.16 -15.06,-21.47 -29.93,-39.89 -44.95,-62.3 -33.26,-49.63 -88.8,-101.63 -129.64,-146.64 -65.5,-72.18 -98.44,-134.33 -80.56,-234.32l3.57 -18.53c17.36,-78.93 48.28,-142.93 88.97,-212.01 74.58,-122.38 175.11,-206.49 305.18,-264.72 77.71,-32.87 163.16,-51.04 252.85,-51.04z"/>
     <path class="fil2 str0" d="M1349.26 -352.89c91.94,-328.75 361.71,-546.42 709.12,-476.89 168.7,33.76 392.32,171.87 463.77,331.04 45.34,101 -50.79,154.44 -93.49,254.31 -36.14,88.19 -35.27,141.19 -58.08,224.65 -17.16,59.34 -47.05,102.81 -105.15,126.71 -6.11,2.52 -38.76,19.65 -39.5,19.67 -15.17,0.46 5.81,-58.76 -87.63,-16.72 -25.08,11.28 -50.07,20.43 -74.61,31.34 -39.32,17.47 -46.93,31.84 -74.48,59.63 -22.72,22.92 -40.93,19.24 -71.53,15.63 -29.9,-3.52 -60.9,-9.68 -90.69,-15 -54.72,-8.89 -165.7,2.34 -205.96,-19.57 -15.07,-8.21 -27.19,-41.18 -36.67,-57.53 -14.72,-25.4 -23.58,-42.88 -40.74,-67.45 -24.93,-35.69 -42.48,-71.39 -68.81,-107.42 -71.64,-98.04 -150.83,-169.51 -125.55,-302.4z"/>
     <path class="fil2 str0" d="M1475.39 -567.58c219,-291.35 555.04,-325.41 842.83,-113.76 93.28,72.91 214.01,177.69 157.44,306.54 -37.89,86.3 -62.32,106.13 -87.7,210.41 -14.06,59.48 -28.57,156.45 -64.78,203.96 -32.67,42.87 -52.21,35.48 -88.07,59.38 -20.07,13.37 -15.39,-27.82 -87.23,-1.62 -23.55,8.59 -45.88,17.93 -69.95,26.45 -46.57,16.5 -52.4,24.99 -89.35,53.43 -26.38,20.31 -48.85,15.99 -80.24,13.46 -20.77,-1.68 -41.33,-4.3 -61.96,-7.17 -58.27,-8.26 -95.42,-2.59 -149.76,-6.58 -28.81,-2.28 -65.19,-5.07 -84.35,-29.65 -9.2,-11.79 -19.41,-29.11 -28.86,-42.32 -14.65,-20.49 -33.28,-47.52 -46.88,-68.86 -17.24,-27.03 -31.61,-56.44 -50.06,-84l-2.4 -3.58c-73.07,-107.19 -138.51,-182.51 -104.03,-319.16 20.87,-75.32 52.39,-132.34 95.35,-196.93z"/>
     <path class="fil2 str0" d="M1475.39 -567.58c219,-291.35 555.04,-325.41 842.83,-113.76 93.27,72.9 214.01,177.69 157.44,306.54 -37.88,86.3 -62.32,106.12 -87.7,210.41 -14.05,59.47 -28.56,156.45 -64.78,203.95 -32.67,42.88 -52.21,35.49 -88.07,59.39 -20.07,13.37 -15.39,-27.82 -87.23,-1.62 -23.55,8.59 -45.88,17.93 -69.95,26.45 -46.57,16.5 -52.4,24.99 -89.35,53.43 -26.38,20.3 -48.85,15.99 -80.24,13.46 -20.77,-1.68 -41.34,-4.3 -61.96,-7.17 -58.27,-8.26 -95.42,-2.59 -149.76,-6.58 -28.81,-2.28 -65.19,-5.07 -84.35,-29.65 -9.2,-11.79 -19.41,-29.1 -28.86,-42.31 -14.65,-20.5 -33.27,-47.53 -46.88,-68.87 -17.24,-27.03 -31.61,-56.44 -50.06,-84l-2.39 -3.58c-73.08,-107.19 -138.51,-182.5 -104.04,-319.15 20.87,-75.33 52.39,-132.35 95.35,-196.94z"/>
     <path class="fil2 str0" d="M1741.44 140.38c-41.71,7.29 -102.84,20.56 -133.55,-17.08 -28.1,-34.45 -52.5,-79.04 -73.45,-118.29 -39.31,-73.67 -111.21,-169.94 -126.53,-249.56 -16.5,-85.78 21.34,-168.67 62.92,-241.56 140.69,-244.46 403.25,-345.4 669.82,-243.01 115.09,50.08 329.51,194.9 288.82,346.83 -18.14,67.73 -44.02,122.26 -61.26,198.45 -20.04,89.41 -30.23,197.37 -124.28,239.31 -9.3,4.15 -31.18,17.55 -38.97,18.45 -19.02,2.22 -28.76,1.26 -49.13,6.25 -26.84,6.57 -51.09,14.75 -79.01,21.07 -38.39,8.69 -53.84,16.88 -88.51,31.2 -20.38,8.42 -31.3,8.48 -52.7,8.03 -86.76,-2.92 -98.89,-15.02 -194.17,-0.09z"/>
     <path class="fil2 str0" d="M1740.35 116.11c-44.89,10.97 -98.31,23.56 -132.56,-15.58 -36.45,-41.65 -60.32,-96.93 -87.87,-145.19 -56.54,-99.06 -108.53,-188.56 -69.32,-305.42l6.4 -18.22c144.66,-362.26 535.62,-493.36 827.05,-215.69 137.11,130.64 93.86,228.7 61.38,391.83 -16.61,81.98 -35.75,191.14 -121.33,226.99 -29.55,12.38 -51.05,22.48 -82.57,31.15 -43.23,11.9 -83.54,16.28 -127.29,28.62 -47.96,13.54 -73.11,9.68 -121.31,8.63 -17.1,-0.38 -34.02,-0.42 -51.11,-0.1 -34.08,0.71 -68.09,6.43 -101.47,12.98z"/>
     <path class="fil2 str0" d="M2097.94 -571.36c148.51,108.62 194.01,226.52 147.92,406.46 -60.48,211.61 -293.6,177.43 -466.71,213.1l-10.7 2.2c-124.33,33.04 -156.19,28.51 -211.94,-100.76 -69.31,-160.73 -53.53,-263.28 54.54,-402.79 116.13,-149.92 284.25,-224.72 462.81,-131.85l24.08 13.64z"/>
    </g>
   </g>
  </g>
  <polygon class="fil2 str1" points="-0.52,0.84 3507.94,0.84 3507.94,2481.25 -0.52,2481.25 "/>
 </g>
</svg>
