<?xml version="1.0" encoding="UTF-8"?>
<!DOCTYPE svg PUBLIC "-//W3C//DTD SVG 1.1//EN" "http://www.w3.org/Graphics/SVG/1.1/DTD/svg11.dtd">
<!-- Creator: CorelDRAW 2019 (64-Bit) -->
<svg xmlns="http://www.w3.org/2000/svg" xml:space="preserve" width="1920px" height="1080px" version="1.1" style="shape-rendering:geometricPrecision; text-rendering:geometricPrecision; image-rendering:optimizeQuality; fill-rule:evenodd; clip-rule:evenodd"
viewBox="0 0 1920 1080"
 xmlns:xlink="http://www.w3.org/1999/xlink">
 <defs>
  <style type="text/css">
   <![CDATA[
    .str0 {stroke:#1F1F1F;stroke-width:4;stroke-miterlimit:22.9256}
    .str1 {stroke:#1F1F1F;stroke-width:2.36;stroke-miterlimit:22.9256}
    .fil1 {fill:none}
    .fil0 {fill:black}
    .fil2 {fill:#1C1C1C}
   ]]>
  </style>
 </defs>
 <rect class="fil0" width="1920" height="1080"/>
 <g id="Слой_x0020_1">
  <metadata id="CorelCorpID_0Corel-Layer"/>
  <g id="_2470247227424">
   <circle class="fil1 str0" cx="186.96" cy="158.59" r="100"/>
   <circle class="fil1 str0" cx="186.96" cy="158.59" r="90"/>
   <circle class="fil1 str0" cx="186.96" cy="158.59" r="80"/>
   <circle class="fil1 str0" cx="186.96" cy="158.59" r="70"/>
   <circle class="fil1 str0" cx="186.96" cy="158.59" r="60"/>
   <circle class="fil1 str0" cx="186.96" cy="158.59" r="50"/>
   <circle class="fil1 str0" cx="186.96" cy="158.59" r="40"/>
   <circle class="fil1 str0" cx="186.96" cy="158.59" r="30"/>
  </g>
  <g id="_2470247223232">
   <circle class="fil1 str0" cx="1691.9" cy="924.69" r="100"/>
   <circle class="fil1 str0" cx="1691.9" cy="924.69" r="90"/>
   <circle class="fil1 str0" cx="1691.9" cy="924.69" r="80"/>
   <circle class="fil1 str0" cx="1691.9" cy="924.69" r="70"/>
   <circle class="fil1 str0" cx="1691.9" cy="924.69" r="60"/>
   <circle class="fil1 str0" cx="1691.9" cy="924.69" r="50"/>
   <circle class="fil1 str0" cx="1691.9" cy="924.69" r="40"/>
   <circle class="fil1 str0" cx="1691.9" cy="924.69" r="30"/>
  </g>
  <g id="_2471306005616">
   <circle class="fil1 str0" cx="585" cy="740" r="100"/>
   <circle class="fil1 str0" cx="585" cy="740" r="90"/>
   <circle class="fil1 str0" cx="585" cy="740" r="80"/>
   <circle class="fil1 str0" cx="585" cy="740" r="70"/>
   <circle class="fil1 str0" cx="585" cy="740" r="60"/>
   <circle class="fil1 str0" cx="585" cy="740" r="50"/>
   <circle class="fil1 str0" cx="585" cy="740" r="40"/>
   <circle class="fil1 str0" cx="585" cy="740" r="30"/>
  </g>
  <g id="_2469755133376">
   <circle class="fil1 str0" cx="1329.65" cy="277.62" r="100"/>
   <circle class="fil1 str0" cx="1329.65" cy="277.62" r="90"/>
   <circle class="fil1 str0" cx="1329.65" cy="277.62" r="80"/>
   <circle class="fil1 str0" cx="1329.65" cy="277.62" r="70"/>
   <circle class="fil1 str0" cx="1329.65" cy="277.62" r="60"/>
   <circle class="fil1 str0" cx="1329.65" cy="277.62" r="50"/>
   <circle class="fil1 str0" cx="1329.65" cy="277.62" r="40"/>
   <circle class="fil1 str0" cx="1329.65" cy="277.62" r="30"/>
  </g>
  <g id="_2469695248640">
   <line class="fil1 str1" x1="161.54" y1="655.51" x2="98.2" y2= "775.86" />
   <line class="fil1 str1" x1="170.05" y1="660.81" x2="107.39" y2= "779.87" />
   <line class="fil1 str1" x1="177.85" y1="667.47" x2="117.29" y2= "782.53" />
   <line class="fil1 str1" x1="184.85" y1="675.64" x2="127.99" y2= "783.67" />
   <line class="fil1 str1" x1="190.88" y1="685.65" x2="139.65" y2= "782.98" />
   <line class="fil1 str1" x1="195.58" y1="698.19" x2="152.65" y2= "779.75" />
   <line class="fil1 str1" x1="197.88" y1="715.29" x2="168.05" y2= "771.97" />
   <line class="fil1 str1" x1="152.35" y1="651.5" x2="89.69" y2= "770.56" />
   <line class="fil1 str1" x1="142.45" y1="648.84" x2="81.9" y2= "763.9" />
   <line class="fil1 str1" x1="131.75" y1="647.7" x2="74.89" y2= "755.73" />
   <line class="fil1 str1" x1="120.09" y1="648.39" x2="68.86" y2= "745.73" />
   <line class="fil1 str1" x1="107.09" y1="651.62" x2="64.16" y2= "733.18" />
   <line class="fil1 str1" x1="91.69" y1="659.4" x2="61.86" y2= "716.08" />
  </g>
  <g id="_2469695298720">
   <line class="fil1 str1" x1="1840.68" y1="361.43" x2="1777.34" y2= "481.78" />
   <line class="fil1 str1" x1="1849.19" y1="366.73" x2="1786.53" y2= "485.79" />
   <line class="fil1 str1" x1="1856.99" y1="373.39" x2="1796.43" y2= "488.45" />
   <line class="fil1 str1" x1="1863.99" y1="381.56" x2="1807.13" y2= "489.59" />
   <line class="fil1 str1" x1="1870.02" y1="391.56" x2="1818.8" y2= "488.9" />
   <line class="fil1 str1" x1="1874.72" y1="404.1" x2="1831.8" y2= "485.67" />
   <line class="fil1 str1" x1="1877.02" y1="421.2" x2="1847.19" y2= "477.89" />
   <line class="fil1 str1" x1="1831.49" y1="357.42" x2="1768.83" y2= "476.47" />
   <line class="fil1 str1" x1="1821.59" y1="354.76" x2="1761.04" y2= "469.82" />
   <line class="fil1 str1" x1="1810.89" y1="353.61" x2="1754.04" y2= "461.65" />
   <line class="fil1 str1" x1="1799.23" y1="354.3" x2="1748" y2= "451.64" />
   <line class="fil1 str1" x1="1786.23" y1="357.53" x2="1743.3" y2= "439.1" />
   <line class="fil1 str1" x1="1770.83" y1="365.32" x2="1741" y2= "422" />
  </g>
  <g id="_2469695277568">
   <line class="fil1 str1" x1="1076.53" y1="800.87" x2="1013.19" y2= "921.22" />
   <line class="fil1 str1" x1="1085.03" y1="806.17" x2="1022.38" y2= "925.23" />
   <line class="fil1 str1" x1="1092.83" y1="812.83" x2="1032.28" y2= "927.89" />
   <line class="fil1 str1" x1="1099.83" y1="821" x2="1042.98" y2= "929.03" />
   <line class="fil1 str1" x1="1105.87" y1="831" x2="1054.64" y2= "928.34" />
   <line class="fil1 str1" x1="1110.57" y1="843.55" x2="1067.64" y2= "925.11" />
   <line class="fil1 str1" x1="1112.87" y1="860.65" x2="1083.04" y2= "917.33" />
   <line class="fil1 str1" x1="1067.34" y1="796.86" x2="1004.68" y2= "915.92" />
   <line class="fil1 str1" x1="1057.44" y1="794.2" x2="996.88" y2= "909.26" />
   <line class="fil1 str1" x1="1046.74" y1="793.06" x2="989.88" y2= "901.09" />
   <line class="fil1 str1" x1="1035.07" y1="793.75" x2="983.85" y2= "891.09" />
   <line class="fil1 str1" x1="1022.07" y1="796.97" x2="979.15" y2= "878.54" />
   <line class="fil1 str1" x1="1006.68" y1="804.76" x2="976.84" y2= "861.44" />
  </g>
  <g id="_2471305672496">
   <line class="fil1 str1" x1="774.68" y1="234.43" x2="711.34" y2= "354.78" />
   <line class="fil1 str1" x1="783.19" y1="239.73" x2="720.53" y2= "358.79" />
   <line class="fil1 str1" x1="790.99" y1="246.39" x2="730.43" y2= "361.45" />
   <line class="fil1 str1" x1="797.99" y1="254.56" x2="741.13" y2= "362.59" />
   <line class="fil1 str1" x1="804.02" y1="264.56" x2="752.8" y2= "361.9" />
   <line class="fil1 str1" x1="808.72" y1="277.11" x2="765.79" y2= "358.67" />
   <line class="fil1 str1" x1="811.02" y1="294.2" x2="781.19" y2= "350.89" />
   <line class="fil1 str1" x1="765.49" y1="230.42" x2="702.83" y2= "349.47" />
   <line class="fil1 str1" x1="755.59" y1="227.76" x2="695.04" y2= "342.82" />
   <line class="fil1 str1" x1="744.89" y1="226.61" x2="688.03" y2= "334.65" />
   <line class="fil1 str1" x1="733.23" y1="227.3" x2="682" y2= "324.64" />
   <line class="fil1 str1" x1="720.23" y1="230.53" x2="677.3" y2= "312.1" />
   <line class="fil1 str1" x1="704.83" y1="238.32" x2="675" y2= "295" />
  </g>
  <circle class="fil2 str1" cx="480" cy="420" r="18"/>
  <circle class="fil2 str1" cx="250" cy="978" r="18"/>
  <circle class="fil2 str1" cx="1314" cy="624" r="18"/>
  <circle class="fil2 str1" cx="1718" cy="148" r="18"/>
  <circle class="fil2 str1" cx="896" cy="54" r="18"/>
 </g>
</svg>
