<?xml version="1.0" encoding="UTF-8"?>
<!DOCTYPE svg PUBLIC "-//W3C//DTD SVG 1.1//EN" "http://www.w3.org/Graphics/SVG/1.1/DTD/svg11.dtd">
<!-- Creator: CorelDRAW 2019 (64-Bit) -->
<svg xmlns="http://www.w3.org/2000/svg" xml:space="preserve" width="1920px" height="1080px" version="1.1" style="shape-rendering:geometricPrecision; text-rendering:geometricPrecision; image-rendering:optimizeQuality; fill-rule:evenodd; clip-rule:evenodd"
viewBox="0 0 1920 1080"
 xmlns:xlink="http://www.w3.org/1999/xlink">
 <defs>
  <style type="text/css">
   <![CDATA[
    .str0 {stroke:#3D3B3B;stroke-width:4;stroke-miterlimit:22.9256}
    .str1 {stroke:#3D3B3B;stroke-width:2.36;stroke-miterlimit:22.9256}
    .fil1 {fill:none}
    .fil0 {fill:#272829}
   ]]>
  </style>
 </defs>
 <rect class="fil0" width="1920" height="1080"/>
 <g id="Слой_x0020_1">
  <metadata id="CorelCorpID_0Corel-Layer"/>
  <g id="_2469760190224">
   <polygon class="fil1 str0" points="1350,44.1 1368.41,44.1 1386.83,44.1 1377.62,60.05 1368.41,76 1359.21,60.05 "/>
   <circle class="fil1 str0" cx="456.07" cy="289.93" r="21.07"/>
   <g>
    <line class="fil1 str0" x1="975" y1="70.8" x2="994.2" y2= "90" />
    <line class="fil1 str0" x1="975" y1="90" x2="994.2" y2= "70.8" />
   </g>
   <circle class="fil1 str0" cx="1098.5" cy="982.5" r="9.5"/>
   <g>
    <polyline class="fil1 str1" points="757.91,59.24 784.46,36.31 757.91,12.24 "/>
    <polyline class="fil1 str1" points="726.79,59.37 753.33,36.44 726.79,12.37 "/>
    <polyline class="fil1 str1" points="695.82,59.37 722.36,36.44 695.82,12.37 "/>
    <polyline class="fil1 str1" points="664.85,59.37 691.39,36.44 664.85,12.37 "/>
   </g>
   <rect class="fil1 str1" transform="matrix(0.866025 0.5 0.5 -0.866025 1758 363)" width="24" height="24"/>
   <g>
    <polygon class="fil1 str0" points="1408.5,495.91 1419.75,515.4 1431,534.88 1408.5,534.88 1386,534.88 1397.25,515.4 "/>
    <polygon class="fil1 str0" points="1408.5,521.03 1419.75,540.51 1431,560 1408.5,560 1386,560 1397.25,540.51 "/>
   </g>
   <g>
    <polygon class="fil1 str0" points="839.5,911.91 850.75,931.4 862,950.89 839.5,950.89 817,950.89 828.25,931.4 "/>
    <polygon class="fil1 str0" points="839.5,937.03 850.75,956.51 862,976 839.5,976 817,976 828.25,956.51 "/>
   </g>
   <g>
    <polygon class="fil1 str0" points="5,144.5 24.49,133.25 43.97,122 43.97,144.5 43.97,167 24.49,155.75 "/>
    <polygon class="fil1 str0" points="30.11,144.5 49.6,133.25 69.09,122 69.09,144.5 69.09,167 49.6,155.75 "/>
   </g>
   <rect class="fil1 str1" transform="matrix(0.866025 -0.5 0.5 0.866025 412.001 506.215)" width="24" height="24"/>
   <rect class="fil1 str1" transform="matrix(0.866025 -0.5 0.5 0.866025 1684 1032.22)" width="24" height="24"/>
   <rect class="fil1 str1" transform="matrix(0.866025 -0.5 0.5 0.866025 1176 212.215)" width="24" height="24"/>
   <rect class="fil1 str1" transform="matrix(0.866025 -0.5 0.5 0.866025 300 104.215)" width="24" height="24"/>
   <rect class="fil1 str1" transform="matrix(0.866025 0.5 0.5 -0.866025 838.001 706.999)" width="24" height="24"/>
   <rect class="fil1 str1" transform="matrix(0.866025 0.5 0.5 -0.866025 556.001 981)" width="24" height="24"/>
   <circle class="fil1 str0" cx="1732.07" cy="656.93" r="21.07"/>
   <circle class="fil1 str0" cx="792.07" cy="484.93" r="21.07"/>
   <circle class="fil1 str0" cx="1198.07" cy="777.93" r="21.07"/>
   <circle class="fil1 str0" cx="1627.07" cy="233.93" r="21.07"/>
   <circle class="fil1 str0" cx="1434.5" cy="684.5" r="9.5"/>
   <circle class="fil1 str0" cx="78.5" cy="996.5" r="9.5"/>
   <circle class="fil1 str0" cx="1414.5" cy="284.5" r="9.5"/>
   <circle class="fil1 str0" cx="478.5" cy="865.5" r="9.5"/>
   <circle class="fil1 str0" cx="572.5" cy="88.5" r="9.5"/>
   <circle class="fil1 str0" cx="1816.5" cy="94.5" r="9.5"/>
   <circle class="fil1 str0" cx="200.5" cy="251.5" r="9.5"/>
   <polygon class="fil1 str0" points="1653.21,835.05 1657.81,843.03 1662.41,851 1653.21,851 1644,851 1648.6,843.03 "/>
   <polygon class="fil1 str0" points="992.21,359.05 996.81,367.03 1001.41,375 992.21,375 983,375 987.6,367.03 "/>
   <polygon class="fil1 str0" points="250.21,1045.05 254.81,1053.03 259.41,1061 250.21,1061 241,1061 245.6,1053.03 "/>
   <g>
    <line class="fil1 str0" x1="1299" y1="1004.8" x2="1318.2" y2= "1024" />
    <line class="fil1 str0" x1="1299" y1="1024" x2="1318.2" y2= "1004.8" />
   </g>
   <g>
    <line class="fil1 str0" x1="173" y1="380.8" x2="192.2" y2= "400" />
    <line class="fil1 str0" x1="173" y1="400" x2="192.2" y2= "380.8" />
   </g>
   <g>
    <line class="fil1 str0" x1="1503" y1="154.8" x2="1522.2" y2= "174" />
    <line class="fil1 str0" x1="1503" y1="174" x2="1522.2" y2= "154.8" />
   </g>
   <g>
    <line class="fil1 str0" x1="545" y1="690.8" x2="564.2" y2= "710" />
    <line class="fil1 str0" x1="545" y1="710" x2="564.2" y2= "690.8" />
   </g>
   <g>
    <line class="fil1 str0" x1="703" y1="262.8" x2="722.2" y2= "282" />
    <line class="fil1 str0" x1="703" y1="282" x2="722.2" y2= "262.8" />
   </g>
   <g>
    <line class="fil1 str0" x1="1639" y1="538.8" x2="1658.2" y2= "558" />
    <line class="fil1 str0" x1="1639" y1="558" x2="1658.2" y2= "538.8" />
   </g>
   <g>
    <polygon class="fil1 str0" points="1826.89,844.5 1846.37,833.25 1865.86,822 1865.86,844.5 1865.86,867 1846.37,855.75 "/>
    <polygon class="fil1 str0" points="1852,844.5 1871.49,833.25 1890.97,822 1890.97,844.5 1890.97,867 1871.49,855.75 "/>
   </g>
   <polygon class="fil1 str0" points="197,870.1 215.41,870.1 233.83,870.1 224.62,886.05 215.41,902 206.21,886.05 "/>
   <polygon class="fil1 str0" points="1820,452.1 1838.41,452.1 1856.83,452.1 1847.62,468.05 1838.41,484 1829.21,468.05 "/>
   <g>
    <polyline class="fil1 str1" points="1545.06,988.87 1571.61,965.94 1545.06,941.87 "/>
    <polyline class="fil1 str1" points="1513.94,989 1540.48,966.07 1513.94,942 "/>
    <polyline class="fil1 str1" points="1482.97,989 1509.51,966.07 1482.97,942 "/>
    <polyline class="fil1 str1" points="1452,989 1478.55,966.07 1452,942 "/>
   </g>
   <g>
    <polyline class="fil1 str1" points="211.06,636.87 237.61,613.94 211.06,589.87 "/>
    <polyline class="fil1 str1" points="179.94,637 206.49,614.07 179.94,590 "/>
    <polyline class="fil1 str1" points="148.97,637 175.52,614.07 148.97,590 "/>
    <polyline class="fil1 str1" points="118,637 144.55,614.07 118,590 "/>
   </g>
   <polygon class="fil1 str0" points="1151,526.1 1169.41,526.1 1187.83,526.1 1178.62,542.05 1169.41,558 1160.21,542.05 "/>
  </g>
 </g>
</svg>
