<?xml version="1.0" encoding="UTF-8"?>
<!DOCTYPE svg PUBLIC "-//W3C//DTD SVG 1.1//EN" "http://www.w3.org/Graphics/SVG/1.1/DTD/svg11.dtd">
<!-- Creator: CorelDRAW 2019 (64-Bit) -->
<svg xmlns="http://www.w3.org/2000/svg" xml:space="preserve" width="32.1732mm" height="32.1732mm" version="1.1" style="shape-rendering:geometricPrecision; text-rendering:geometricPrecision; image-rendering:optimizeQuality; fill-rule:evenodd; clip-rule:evenodd"
viewBox="0 0 3217.32 3217.32"
 xmlns:xlink="http://www.w3.org/1999/xlink">
 <defs>
  <style type="text/css">
   <![CDATA[
    .fil0 {fill:url(#id2);fill-rule:nonzero}
    .fil1 {fill:url(#id3);fill-rule:nonzero}
   ]]>
  </style>
    <mask id="id0">
  <linearGradient id="id1" gradientUnits="userSpaceOnUse" x1="-147.71" y1="1652.6" x2="-233.46" y2="1334.82">
   <stop offset="0" style="stop-opacity:1; stop-color:white"/>
   <stop offset="0.690196" style="stop-opacity:-100.396; stop-color:white"/>
   <stop offset="1" style="stop-opacity:0; stop-color:white"/>
  </linearGradient>
     <rect style="fill:url(#id1)" x="689.85" y="1348.13" width="1837.62" height="521.06"/>
    </mask>
  <linearGradient id="id2" gradientUnits="userSpaceOnUse" x1="881.83" y1="1415.3" x2="2454.13" y2="1827.76">
   <stop offset="0" style="stop-opacity:1; stop-color:#DE2084"/>
   <stop offset="0.180392" style="stop-opacity:1; stop-color:#A65C9F"/>
   <stop offset="0.380392" style="stop-opacity:1; stop-color:#A55199"/>
   <stop offset="0.611765" style="stop-opacity:1; stop-color:#2099D5"/>
   <stop offset="0.8" style="stop-opacity:1; stop-color:#58A5B1"/>
   <stop offset="1" style="stop-opacity:1; stop-color:#0BE4F2"/>
  </linearGradient>
  <linearGradient id="id3" gradientUnits="userSpaceOnUse" xlink:href="#id2" x1="571.4" y1="1586.27" x2="2804.44" y2="1752.38">
  </linearGradient>
 </defs>
 <g id="Слой_x0020_1">
  <metadata id="CorelCorpID_0Corel-Layer"/>
  <g id="_1773615977936">
   <path class="fil0" style="mask:url(#id0)" d="M994.53 1493.71c0,-22.81 -7.69,-39.25 -22.94,-49.33 -15.24,-10.07 -34.47,-15.11 -57.67,-15.11l-27.71 0c-3.18,0 -6.63,0 -10.34,0 -3.58,0 -7.56,0.27 -11.8,0.8 -1.06,15.38 -1.73,31.29 -1.99,47.73 -0.27,16.44 -0.4,32.61 -0.4,48.52l0 39.78 42.69 0c34.34,0 57.81,-6.63 70.8,-19.89 12.86,-13.26 19.36,-30.76 19.36,-52.5zm3.98 219.56c0,-28.64 -7.16,-48.53 -21.35,-59.67 -14.19,-11.13 -35.27,-16.7 -63.24,-16.7l-52.24 0 0 77.96c0,12.2 0,22.27 0,30.23 0,7.95 0.27,14.32 0.8,19.09 0.53,4.77 1.32,8.62 2.38,11.53 1.06,2.92 2.39,5.17 3.98,6.77 1.59,1.59 4.37,2.78 8.22,3.58 3.98,0.79 8.62,1.46 13.92,1.99 5.3,0.52 10.87,0.79 16.97,0.79 6.1,0 11.93,0 17.77,0 23.73,0 41.76,-5.83 54.22,-17.5 12.34,-11.67 18.57,-31.03 18.57,-58.07zm125.16 -5.57c0,22.27 -3.58,42.56 -10.74,60.86 -7.16,18.29 -18.03,33.94 -32.62,46.93 -14.58,12.99 -32.88,23.2 -54.89,30.63 -22.01,7.42 -47.6,11.13 -76.63,11.13l-219.96 0 0 -9.54c3.18,-10.08 5.97,-20.02 8.35,-29.83 2.39,-9.82 4.25,-20.69 5.57,-32.62 1.33,-11.93 2.39,-25.46 3.18,-40.57 0.8,-15.11 1.2,-33.01 1.2,-53.7l0 -211.6c0,-13.79 -0.53,-24.8 -1.59,-33.02 -1.06,-8.22 -2.92,-14.58 -5.57,-19.09 -2.65,-4.51 -6.37,-7.56 -11.14,-9.15 -4.77,-1.59 -10.61,-2.91 -17.5,-3.97l-21.48 -2.39 0 -51.71 258.54 0c52.5,0 93.87,10.61 124.1,31.82 30.23,21.22 45.34,53.04 45.34,95.46 0,25.99 -7.42,49.06 -22.4,69.21 -14.99,20.16 -36.07,35 -63.25,44.55 13.26,3.71 25.46,9.41 36.6,17.1 11.13,7.69 20.81,16.44 29.03,26.26 8.22,9.81 14.59,20.28 19.09,31.42 4.51,11.14 6.77,21.74 6.77,31.82zm424.53 0c0,21.21 -3.71,41.5 -11.14,60.86 -7.42,19.35 -19.09,36.46 -35,51.31 -15.91,14.84 -36.59,26.78 -62.05,35.79 -25.45,9.02 -55.95,13.53 -91.48,13.53 -56.75,0 -104.48,-11.67 -143.19,-35.01 -1.06,-6.89 -2.52,-15.38 -4.38,-25.45 -1.85,-10.08 -3.84,-20.55 -5.96,-31.42 -2.12,-10.88 -4.38,-21.35 -6.77,-31.43 -2.38,-10.07 -4.37,-18.29 -5.96,-24.66l65.23 0c12.2,25.99 27.58,43.89 46.14,53.7 18.56,9.81 37.12,14.72 55.68,14.72 19.63,0 36.86,-5.31 51.71,-15.91 14.85,-10.61 22.28,-27.05 22.28,-49.33 0,-16.44 -5.57,-29.3 -16.71,-38.58 -11.14,-9.28 -30.49,-19.22 -58.07,-29.83l-57.28 -22.27c-12.73,-4.78 -25.32,-10.61 -37.78,-17.51 -12.47,-6.89 -23.74,-15.24 -33.81,-25.05 -10.08,-9.81 -18.17,-21.35 -24.27,-34.61 -6.09,-13.26 -9.14,-28.9 -9.14,-46.93 0,-22.28 4.77,-43.23 14.32,-62.85 9.54,-19.62 23.06,-36.72 40.57,-51.31 17.5,-14.58 38.71,-26.12 63.64,-34.6 24.92,-8.49 52.76,-12.73 83.52,-12.73 28.64,0 54.5,2.78 77.57,8.35 23.07,5.57 41.23,13.66 54.49,24.26 2.65,13.79 5.57,28.38 8.75,43.76 3.18,15.38 7.95,36.59 14.32,63.64l-65.23 0c-10.61,-24.4 -24.4,-40.57 -41.37,-48.53 -16.97,-7.95 -35,-11.93 -54.09,-11.93 -23.87,0 -41.77,6.1 -53.7,18.3 -11.93,12.19 -17.9,27.31 -17.9,45.34 0,12.73 4.51,23.07 13.52,31.03 9.02,7.95 22.01,15.11 38.98,21.47l52.51 19.89c42.42,15.91 75.04,35.53 97.84,58.87 22.81,23.33 34.21,51.71 34.21,85.12zm417.64 -224.33c-7.42,-16.45 -16.84,-29.44 -28.24,-38.99 -11.4,-9.54 -28.51,-14.31 -51.31,-14.31l-20.68 0c-1.06,7.42 -1.99,17.36 -2.79,29.83 -0.79,12.46 -1.45,27.04 -1.99,43.75 -0.53,16.71 -1.06,35 -1.59,54.89 -0.53,19.89 -0.79,40.7 -0.79,62.45l0 147.96c0,11.14 2.52,19.36 7.56,24.66 5.03,5.31 11.27,8.49 18.69,9.55l16.7 2.39 0 51.7 -188.53 0 0 -4.77c8.49,-23.86 14.72,-53.43 18.69,-88.7 3.98,-35.27 5.97,-75.44 5.97,-120.52l0 -161.49c0,-6.36 -0.13,-14.31 -0.4,-23.86 -0.26,-9.55 -0.66,-18.83 -1.19,-27.84l-18.3 0c-19.62,0 -36.33,4.9 -50.11,14.71 -13.79,9.81 -26.25,24 -37.39,42.56l-58.87 0c4.24,-18.03 8.88,-38.31 13.92,-60.85 5.04,-22.54 9.15,-44.68 12.33,-66.43l404.12 0c0,2.12 0.53,7.69 1.59,16.71 1.06,9.01 2.25,19.49 3.58,31.42 1.33,11.93 2.78,24.66 4.37,38.18 1.6,13.53 3.19,25.86 4.78,37l-50.12 0zm561.63 -113.76c-4.24,12.73 -7.69,25.98 -10.34,39.77 -2.65,13.79 -4.78,29.17 -6.37,46.14 -1.59,16.97 -2.78,36.2 -3.58,57.68 -0.79,21.48 -1.19,46.27 -1.19,74.38l0 93.87c0,25.98 -4.24,50.38 -12.73,73.18 -8.48,22.81 -21.08,42.7 -37.79,59.67 -16.7,16.97 -37.25,30.36 -61.65,40.17 -24.39,9.81 -52.23,14.72 -83.53,14.72 -35.53,0 -66.42,-4.78 -92.67,-14.32 -26.25,-9.55 -48.13,-22.54 -65.63,-38.98 -17.5,-16.44 -30.49,-35.67 -38.98,-57.68 -8.49,-22.01 -12.73,-45.47 -12.73,-70.4l0 -233.08c0,-16.97 -2.25,-28.11 -6.76,-33.41 -4.51,-5.31 -12.86,-8.49 -25.06,-9.55l-20.68 -2.39 0 -49.32 190.92 0 0 11.14c-4.24,12.2 -7.43,24.93 -9.55,38.18 -2.12,13.26 -3.84,27.58 -5.17,42.96 -1.32,15.38 -2.12,32.09 -2.38,50.12 -0.27,18.03 -0.4,37.92 -0.4,59.66l0 110.58c0,42.42 8.62,72.52 25.85,90.29 17.24,17.76 43.09,26.65 77.56,26.65 12.73,0 24.53,-2.12 35.4,-6.37 10.88,-4.24 20.56,-11.14 29.04,-20.68 8.49,-9.55 15.11,-21.74 19.89,-36.6 4.77,-14.84 7.16,-32.88 7.16,-54.09l0 -217.17c0,-16.44 -2.26,-27.18 -6.76,-32.22 -4.51,-5.04 -13.4,-8.62 -26.65,-10.74l-19.1 -2.39 0 -49.32 163.88 0 0 9.55z"/>
   <path class="fil1" d="M1608.66 2759.38c-635.52,0 -1150.72,-515.2 -1150.72,-1150.73 0,-635.52 515.2,-1150.72 1150.72,-1150.72 635.53,0 1150.72,515.2 1150.72,1150.72 0,635.53 -515.19,1150.73 -1150.72,1150.73zm1223.72 -1248.24c-53.86,-675.84 -645.4,-1180.06 -1321.24,-1126.2 -675.84,53.85 -1180.05,645.39 -1126.2,1321.23 53.86,675.84 645.4,1180.06 1321.24,1126.2 675.84,-53.85 1180.05,-645.39 1126.2,-1321.23z"/>
  </g>
 </g>
</svg>
