<?xml version="1.0" encoding="UTF-8"?>
<!DOCTYPE svg PUBLIC "-//W3C//DTD SVG 1.1//EN" "http://www.w3.org/Graphics/SVG/1.1/DTD/svg11.dtd">
<!-- Creator: CorelDRAW 2019 (64-Bit) -->
<svg xmlns="http://www.w3.org/2000/svg" xml:space="preserve" width="32.1732mm" height="32.1732mm" version="1.1" style="shape-rendering:geometricPrecision; text-rendering:geometricPrecision; image-rendering:optimizeQuality; fill-rule:evenodd; clip-rule:evenodd"
viewBox="0 0 3217.32 3217.32"
 xmlns:xlink="http://www.w3.org/1999/xlink">
 <defs>
  <style type="text/css">
   <![CDATA[
    .str0 {stroke:#2B2A29;stroke-width:20;stroke-miterlimit:22.9256}
    .fil0 {fill:none}
    .fil10 {fill:url(#id0)}
    .fil4 {fill:url(#id1)}
    .fil7 {fill:url(#id2)}
    .fil8 {fill:url(#id3)}
    .fil9 {fill:url(#id4)}
    .fil5 {fill:url(#id5)}
    .fil11 {fill:url(#id6)}
    .fil1 {fill:url(#id7)}
    .fil6 {fill:url(#id8)}
    .fil2 {fill:url(#id9)}
    .fil12 {fill:url(#id10)}
    .fil3 {fill:url(#id11)}
   ]]>
  </style>
  <linearGradient id="id0" gradientUnits="userSpaceOnUse" x1="1885.21" y1="1331.79" x2="1416.72" y2="1283.83">
   <stop offset="0" style="stop-opacity:1; stop-color:#F4F3F4"/>
   <stop offset="0.431373" style="stop-opacity:1; stop-color:#00A0E3"/>
   <stop offset="1" style="stop-opacity:1; stop-color:#393185"/>
  </linearGradient>
  <linearGradient id="id1" gradientUnits="userSpaceOnUse" xlink:href="#id0" x1="1970.57" y1="523.69" x2="1712.44" y2="755.7">
  </linearGradient>
  <linearGradient id="id2" gradientUnits="userSpaceOnUse" x1="2675.13" y1="1290.98" x2="1750.41" y2="648.73">
   <stop offset="0" style="stop-opacity:1; stop-color:#F4F3F4"/>
   <stop offset="0.678431" style="stop-opacity:1; stop-color:#00A0E3"/>
   <stop offset="1" style="stop-opacity:1; stop-color:#393185"/>
  </linearGradient>
  <linearGradient id="id3" gradientUnits="userSpaceOnUse" x1="2290.77" y1="1281.37" x2="1694" y2="1370.78">
   <stop offset="0" style="stop-opacity:1; stop-color:#F4F3F4"/>
   <stop offset="0.458824" style="stop-opacity:1; stop-color:#00A0E3"/>
   <stop offset="1" style="stop-opacity:1; stop-color:#393185"/>
  </linearGradient>
  <linearGradient id="id4" gradientUnits="userSpaceOnUse" x1="1647.49" y1="1005.2" x2="1043.33" y2="998.38">
   <stop offset="0" style="stop-opacity:1; stop-color:#F4F3F4"/>
   <stop offset="0.388235" style="stop-opacity:1; stop-color:#00A0E3"/>
   <stop offset="1" style="stop-opacity:1; stop-color:#393185"/>
  </linearGradient>
  <linearGradient id="id5" gradientUnits="userSpaceOnUse" x1="867.12" y1="743.99" x2="652.62" y2="944.49">
   <stop offset="0" style="stop-opacity:1; stop-color:#F4F3F4"/>
   <stop offset="0.658824" style="stop-opacity:1; stop-color:#00A0E3"/>
   <stop offset="1" style="stop-opacity:1; stop-color:#393185"/>
  </linearGradient>
  <linearGradient id="id6" gradientUnits="userSpaceOnUse" x1="1129.12" y1="1178.13" x2="849.94" y2="1262.91">
   <stop offset="0" style="stop-opacity:1; stop-color:#F4F3F4"/>
   <stop offset="0.501961" style="stop-opacity:1; stop-color:#00A0E3"/>
   <stop offset="1" style="stop-opacity:1; stop-color:#393185"/>
  </linearGradient>
  <linearGradient id="id7" gradientUnits="userSpaceOnUse" x1="1062.71" y1="860.67" x2="879.85" y2="898.37">
   <stop offset="0" style="stop-opacity:1; stop-color:#F4F3F4"/>
   <stop offset="0.560784" style="stop-opacity:1; stop-color:#00A0E3"/>
   <stop offset="1" style="stop-opacity:1; stop-color:#393185"/>
  </linearGradient>
  <linearGradient id="id8" gradientUnits="userSpaceOnUse" xlink:href="#id3" x1="816.27" y1="1134.78" x2="451.55" y2="1389.72">
  </linearGradient>
  <linearGradient id="id9" gradientUnits="userSpaceOnUse" x1="1416.75" y1="315.93" x2="984.99" y2="649.76">
   <stop offset="0" style="stop-opacity:1; stop-color:#F4F3F4"/>
   <stop offset="0.65098" style="stop-opacity:1; stop-color:#00A0E3"/>
   <stop offset="1" style="stop-opacity:1; stop-color:#393185"/>
  </linearGradient>
  <linearGradient id="id10" gradientUnits="userSpaceOnUse" xlink:href="#id7" x1="1586.97" y1="1609.58" x2="878.77" y2="2687.55">
  </linearGradient>
  <linearGradient id="id11" gradientUnits="userSpaceOnUse" x1="1621.31" y1="513.49" x2="1255.01" y2="533.29">
   <stop offset="0" style="stop-opacity:1; stop-color:#F4F3F4"/>
   <stop offset="0.411765" style="stop-opacity:1; stop-color:#00A0E3"/>
   <stop offset="1" style="stop-opacity:1; stop-color:#393185"/>
  </linearGradient>
 </defs>
 <g id="Слой_x0020_1">
  <metadata id="CorelCorpID_0Corel-Layer"/>
  <g id="_2192228227536">
   <path class="fil0 str0" d="M520.69 803.67c621.51,433.03 251.74,1151.14 863.47,1498.96"/>
   <path class="fil1" d="M1045.25 928.41c-14.2,-163.38 -50.23,-312.35 -161.09,-480.17 -1.32,-1.18 22.84,94.88 23.62,227.13 0.45,76.66 -5.08,161.43 -9.37,247.94 -2.42,49.03 -4.45,98.61 -4.75,147.6 40.01,-45.31 83.66,-87.36 130.51,-125.68 6.95,-5.69 13.98,-11.3 21.08,-16.82z"/>
   <path class="fil2" d="M884.16 448.24c110.86,167.82 146.89,316.79 161.09,480.17 81.18,-63.2 171.4,-115.45 268.49,-154.45 30.35,-22.12 55.03,-45.76 75.27,-70.35 -178.93,-52.8 -364.51,-129.66 -504.85,-255.37z"/>
   <path class="fil3" d="M1527.78 296.32c-52.2,96.98 -23.7,267.49 -138.77,407.29 -20.24,24.59 -44.92,48.23 -75.27,70.35 49.21,-19.76 100.19,-36.13 152.66,-48.8 50.43,-12.17 102.23,-20.93 155.16,-26 4.85,-114.33 -10.1,-245.69 -93.78,-402.84z"/>
   <path class="fil4" d="M1527.78 296.32c83.68,157.15 98.63,288.51 93.78,402.84 35.55,-3.4 71.61,-5.15 108.1,-5.15 173.63,0 338,39.66 484.51,110.39 -256.13,-149.45 -545.09,-329.21 -686.39,-508.08z"/>
   <path class="fil5" d="M898.41 923.31c-138.59,-27.91 -265.58,-66.86 -377.72,-119.64 149.71,104.31 241.9,225.16 304.15,353.38 21.52,-29.85 44.5,-58.59 68.82,-86.14 0.3,-48.99 2.33,-98.57 4.75,-147.6z"/>
   <path class="fil6" d="M824.84 1157.05c-62.25,-128.22 -154.44,-249.07 -304.15,-353.38 141.56,277.47 75.74,761.65 95.15,956.87 4.92,-118.06 28.31,-231.57 67.42,-337.63 12.45,-33.75 26.49,-66.75 42.02,-98.89 5.43,-11.24 11.05,-22.37 16.85,-33.4 24.46,-46.54 52.12,-91.16 82.71,-133.57z"/>
   <path class="fil7" d="M1621.56 699.16c-8.79,207.23 -82.61,358.54 69.85,506.09 12.65,-0.78 25.4,-1.19 38.24,-1.19 224.58,0 420.53,122.4 524.65,304.05l185.88 -107.19 256.44 -147.88c-83.99,-145.82 -200.09,-270.85 -338.66,-365.46 -45.83,-26.44 -94.19,-54.24 -143.79,-83.18 -146.51,-70.73 -310.88,-110.39 -484.51,-110.39 -36.49,0 -72.55,1.75 -108.1,5.15z"/>
   <path class="fil8" d="M2254.3 1508.11c-104.12,-181.65 -300.07,-304.05 -524.65,-304.05 -12.84,0 -25.59,0.41 -38.24,1.2 35,33.87 81.93,67.55 144.31,101.66 12.16,6.64 24.72,13.63 37.76,20.89 11.24,5.58 22.15,11.65 32.66,18.18 88.93,49.33 199.41,108.31 348.16,162.12z"/>
   <path class="fil9" d="M1691.41 1205.26c-152.47,-147.56 -78.64,-298.87 -69.85,-506.1 -52.93,5.07 -104.73,13.83 -155.16,26 -52.47,12.67 -103.45,29.04 -152.66,48.8 -97.09,39 -187.31,91.25 -268.49,154.45 20.17,232.13 -3.74,493.36 80.26,879.09 0,-153.18 57.09,-292.89 151.1,-399.22 23.18,-26.22 48.6,-50.41 75.97,-72.26 94.08,-75.16 211.12,-122.79 338.83,-130.76z"/>
   <path class="fil10" d="M1691.41 1205.25c-127.71,7.98 -244.75,55.61 -338.83,130.77 -27.37,21.85 -52.79,46.04 -75.97,72.26 188.63,-140.06 429.83,-163.42 596.87,-80.47 -13.04,-7.26 -25.6,-14.25 -37.76,-20.89 -62.38,-34.11 -109.31,-67.79 -144.31,-101.67z"/>
   <path class="fil11" d="M1125.51 1807.5c-84,-385.73 -60.09,-646.96 -80.26,-879.09 -7.1,5.52 -14.13,11.13 -21.08,16.82 -46.85,38.32 -90.5,80.37 -130.51,125.68 -24.32,27.55 -47.3,56.29 -68.82,86.14 196.17,404.12 94.94,881.54 559.32,1145.58 -156.64,-109.31 -258.65,-290.8 -258.65,-495.13z"/>
   <path class="fil12" d="M1384.16 2302.63c-464.38,-264.04 -363.15,-741.46 -559.32,-1145.58 -30.59,42.41 -58.25,87.03 -82.71,133.57 -5.8,11.03 -11.42,22.16 -16.85,33.4 -15.53,32.14 -29.57,65.14 -42.02,98.89 -39.11,106.06 -62.5,219.57 -67.42,337.63 -0.65,15.58 -0.98,31.23 -0.98,46.96 0,614.97 499.11,1113.49 1114.8,1113.49 413.57,0 774.54,-224.94 966.96,-559.02l-256.44 -147.89 -185.88 -107.18c-104.12,181.64 -300.07,304.04 -524.65,304.04 -128.75,0 -247.76,-40.1 -345.49,-108.31z"/>
  </g>
 </g>
</svg>
