<?xml version="1.0" encoding="UTF-8"?>
<!DOCTYPE svg PUBLIC "-//W3C//DTD SVG 1.1//EN" "http://www.w3.org/Graphics/SVG/1.1/DTD/svg11.dtd">
<!-- Creator: CorelDRAW 2019 (64-Bit) -->
<svg xmlns="http://www.w3.org/2000/svg" xml:space="preserve" width="15.5786mm" height="15.5786mm" version="1.1" style="shape-rendering:geometricPrecision; text-rendering:geometricPrecision; image-rendering:optimizeQuality; fill-rule:evenodd; clip-rule:evenodd"
viewBox="0 0 1557.86 1557.86"
 xmlns:xlink="http://www.w3.org/1999/xlink">
 <defs>
  <style type="text/css">
   <![CDATA[
    .str0 {stroke:#E1A656;stroke-width:101.6;stroke-miterlimit:22.9256}
    .fil0 {fill:none}
    .fil1 {fill:#E1A656;fill-rule:nonzero}
   ]]>
  </style>
 </defs>
 <g id="Слой_x0020_1">
  <metadata id="CorelCorpID_0Corel-Layer"/>
  <g id="_1884054349152">
   <rect class="fil0 str0" transform="matrix(0.350207 -0.350207 0.350207 0.350207 76.2039 778.93)" width="2006.6" height="2006.6"/>
   <path class="fil1" d="M814.56 982.65c0,-7.77 -7.28,-11.6 -21.84,-11.6 -2.36,0 -4.73,-0.1 -7.08,-0.3 -2.36,-0.19 -4.73,-0.3 -7.09,-0.3l-41.31 -404.25c-11.41,1.57 -22.33,2.56 -32.76,2.95 -10.42,0.39 -20.35,0.59 -29.8,0.59 -3.93,0 -8.06,0 -12.39,0 -4.32,0 -8.66,-0.2 -12.98,-0.59 -25.57,131.81 -49.87,230.56 -72.88,296.26 -23.03,65.71 -41.01,98.56 -54,98.56 -2.36,0 -3.54,-1.18 -3.54,-3.54 0,-2.37 1.57,-6.1 4.72,-11.22 3.14,-5.11 4.71,-12.19 4.71,-21.24 0,-14.56 -4.42,-26.46 -13.27,-35.71 -8.85,-9.24 -20.16,-13.86 -33.93,-13.86 -14.16,0 -26.16,5.01 -36,15.04 -9.84,10.04 -14.76,22.53 -14.76,37.47 0,17.31 6.1,32.07 18.3,44.27 12.19,12.19 27.73,18.3 46.62,18.3 12.6,0 23.91,-2.85 33.93,-8.57 10.03,-5.7 19.18,-14.46 27.45,-26.25 8.26,-11.8 15.93,-26.65 23.01,-44.56 7.08,-17.9 14.16,-39.05 21.25,-63.44l73.76 0 10.63 120.39c-12.6,0.39 -21.84,1.17 -27.73,2.36 -5.91,1.18 -8.87,3.93 -8.87,8.26 0,6.3 5.12,9.44 15.35,9.44 4.72,0 12.49,-0.39 23.31,-1.17 10.83,-0.8 25.08,-1.19 42.79,-1.19 16.13,0 29.9,0.39 41.31,1.19 11.41,0.78 20.47,1.17 27.14,1.17 10.64,0 15.95,-2.85 15.95,-8.46zm-141.65 -153.83l-64.91 0c7.47,-25.57 14.66,-53.01 21.54,-82.32 6.89,-29.31 14.27,-60.89 22.13,-94.73l7.08 0c0.79,12.2 1.38,21.84 1.77,28.92 0.39,7.08 0.79,11.61 1.18,13.58l11.21 134.55zm452.64 31.28c2.37,-14.55 2.57,-29.31 0.6,-44.25 -1.98,-14.96 -6.1,-28.44 -12.4,-40.43 -6.29,-12 -14.66,-22.14 -25.08,-30.41 -10.43,-8.25 -22.71,-13.17 -36.89,-14.74 -7.08,-0.8 -14.65,-0.69 -22.71,0.28 -8.07,0.99 -15.34,2.66 -21.84,5.03 -6.49,2.35 -11.89,5.5 -16.23,9.43 -4.32,3.95 -6.49,8.27 -6.49,12.99 0,4.32 3.54,6.5 10.62,6.5 4.33,0 9.64,-1.58 15.94,-4.73 6.29,-3.15 13.17,-6.3 20.66,-9.45l-18.89 226.63c-9.84,0 -17.71,-0.78 -23.61,-2.36 -5.89,-1.57 -10.23,-2.37 -12.99,-2.37 -5.89,0 -8.85,2.57 -8.85,7.68 0,4.73 3.95,8.55 11.81,11.51 7.87,2.95 18.88,4.42 33.04,4.42 16.53,0 31.19,-3.24 43.97,-9.73 12.79,-6.5 23.71,-15.65 32.76,-27.44 9.04,-11.8 16.62,-26.07 22.72,-42.79 6.09,-16.73 10.71,-35.31 13.86,-55.77zm-33.04 -236.65c1.18,-11.02 0.39,-21.25 -2.36,-30.69 -2.76,-9.45 -6.88,-16.81 -12.4,-22.14 -5.51,-5.31 -12.48,-8.16 -20.94,-8.55 -8.46,-0.39 -17.61,2.76 -27.45,9.44 -19.67,-1.56 -40.13,-2.75 -61.37,-3.54 -21.25,-0.78 -40.62,-0.78 -58.14,0 -17.5,0.79 -31.86,2.37 -43.08,4.72 -11.2,2.37 -16.81,5.72 -16.81,10.04 0,5.5 2.76,8.26 8.26,8.26 1.97,0 5.51,-0.3 10.62,-0.88 5.12,-0.6 9.54,-1.08 13.28,-1.49 3.73,-0.39 5.8,-0.58 6.19,-0.58l-28.9 383.01c-12.99,0.39 -22.23,1.17 -27.75,2.46 -5.51,1.17 -8.25,4.43 -8.25,9.74 0,5.2 3.93,7.86 11.79,7.86 4.33,0 11.02,-0.39 20.07,-1.17 9.04,-0.8 20.46,-1.19 34.23,-1.19 15.73,0 28.81,0.2 39.24,0.59 10.42,0.4 18.4,0.99 23.91,1.77l28.32 -406.61c0.79,0 4.14,-0.3 10.03,-0.89 5.9,-0.58 13.47,-0.3 22.73,0.89 9.24,1.18 17.01,4.33 23.31,9.45 7.47,30.28 13.86,54.48 19.17,72.58 5.32,18.09 9.75,27.93 13.29,29.51 5.11,2.35 9.24,0 12.39,-7.08 2.35,-7.08 4.32,-16.43 5.89,-28.04 1.58,-11.61 3.15,-24.1 4.73,-37.47z"/>
  </g>
 </g>
</svg>
