<?xml version="1.0" encoding="UTF-8"?>
<!DOCTYPE svg PUBLIC "-//W3C//DTD SVG 1.1//EN" "http://www.w3.org/Graphics/SVG/1.1/DTD/svg11.dtd">
<!-- Creator: CorelDRAW 2019 (64-Bit) -->
<svg xmlns="http://www.w3.org/2000/svg" xml:space="preserve" width="32.1732mm" height="32.1732mm" version="1.1" style="shape-rendering:geometricPrecision; text-rendering:geometricPrecision; image-rendering:optimizeQuality; fill-rule:evenodd; clip-rule:evenodd"
viewBox="0 0 3217.32 3217.32"
 xmlns:xlink="http://www.w3.org/1999/xlink">
 <defs>
  <style type="text/css">
   <![CDATA[
    .fil0 {fill:none}
    .fil2 {fill:#2D3436}
    .fil7 {fill:#EBD99E}
    .fil4 {fill:#F7E4A4}
    .fil1 {fill:#FFEAA7}
    .fil6 {fill:#FFEEB8}
    .fil3 {fill:#FFEAA7;fill-rule:nonzero}
    .fil5 {fill:url(#id0)}
   ]]>
  </style>
  <linearGradient id="id0" gradientUnits="userSpaceOnUse" x1="1381.88" y1="842.12" x2="1405.2" y2="526.9">
   <stop offset="0" style="stop-opacity:1; stop-color:#E6D59C"/>
   <stop offset="0.0784314" style="stop-opacity:1; stop-color:#F2DFA1"/>
   <stop offset="1" style="stop-opacity:1; stop-color:#FFEAA7"/>
  </linearGradient>
 </defs>
 <g id="Слой_x0020_1">
  <metadata id="CorelCorpID_0Corel-Layer"/>
  <g id="_2191965355584">
   <g>
    <g>
     <path class="fil0" d="M1638.82 1036.52c0,0 -17.32,-25.39 -16.3,50.31 1.01,75.71 -9.34,459.24 -9.34,459.24 0,0 1.3,29.89 -20.74,26.71 -22.03,-3.17 -20.52,51.73 -20.04,-25.76 0.47,-77.49 4.16,-309.58 7.75,-464.2 0,0 -2.66,-24.51 -19.66,-22.94 -17.08,1.58 -17.26,-11.91 -17.69,12.48 -0.43,24.39 -1.84,97.77 -2.89,146.54 0,0 -8.37,15.04 -18.47,13.81 -10.1,-1.23 -15.65,13.73 -14.99,-22.2 0.66,-35.93 2.46,-143.71 3.23,-215.33 0,0 -5.16,-17.91 -16.38,-17.81 -11.21,0.11 -17.03,-40.75 -17.63,16.83 -0.6,57.58 -3.47,230.33 -4.71,345.07 -1.25,115.15 -0.16,230.47 2.27,345.75 0,0 -1.19,29.52 -15.8,21.78 -14.62,-7.74 -14.04,25.64 -15.17,-23.94 -1.14,-49.59 -3.65,-197.95 -3.13,-296.97 0.52,-98.61 2.24,-197.45 3.53,-296.51 0,0 -3.74,-33.08 -19.77,-35.99 -16.04,-2.92 -20.65,-26.94 -21.18,28.68 -0.54,55.62 -2.22,222.26 -2.73,333.48 0,0 -0.27,23.91 -13.44,18.67 -13.34,-5.31 -13.4,23.67 -13.31,-17.9 0.1,-41.57 0.74,-166.51 1.44,-249.44 0,0 -1.32,-23.14 -12.91,-24.01 -11.6,-0.86 -13.65,-31.92 -14.08,20.65 -0.44,52.57 -1.89,210.92 -1.09,316.24 0.8,105.3 3.74,211.21 5.82,316.7 0,0 -0.42,21.45 -17.49,15.3 -17.07,-6.15 -15.7,44.85 -17.15,-18.88 -1.45,-63.72 -6.33,-254.67 -7.07,-381.95 -0.73,-127.08 0.29,-254.41 0.46,-381.73 0,0 -7.41,-35.37 -23.28,-35.89 -15.88,-0.52 -22.68,-29.81 -22.99,31.35 -0.31,61.16 -1.32,244.65 -1.71,366.53 0,0 -0.19,27.42 -14.72,26.75 -14.53,-0.67 -15.38,25.69 -15.7,-31.32 -0.31,-57.01 -0.97,-228.48 -1.42,-342.72 0,0 -2.6,-25.06 -16.9,-27.37 -14.3,-2.31 -17.36,8.88 -17.23,22.26 0.13,13.38 0.4,53.3 0.6,80.07 0,0 -1.46,15.6 -11.64,16 -10.17,0.4 -12.6,-4.54 -12.72,-17.26 -0.11,-12.73 -0.45,-50.7 -0.73,-75.93 0,0 -3.66,-17.09 -16.15,-16.73 -12.5,0.36 -14.1,-28.11 -13.59,18.02 0.5,46.12 1.8,184.27 2.9,276.08 1.1,91.81 2.82,183.81 4.9,275.81 0,0 -2.99,16.08 -11.48,15.13 -8.49,-0.95 -10.73,32.51 -11.87,-18.38 -1.15,-50.89 -4.18,-203.58 -5.5,-305.39 -1.32,-101.81 -2.46,-203.63 -3.88,-305.65 0,0 -4.3,-43.95 -18.58,-42.56 -14.29,1.39 -22.84,-0.54 -22.31,28.94 0.54,29.47 2.01,117.89 2.94,176.84 0,0 -4,24.27 -21.61,24.56 -17.61,0.29 -21.7,-3.73 -22.06,-23.74 -0.35,-20.01 -1.55,-80.26 -2.33,-120.5 0,0 -1.6,-12.14 -9.96,-10.81"/>
     <path class="fil0" d="M1023.14 1013.29c5.62,279.05 11.54,558.53 19.39,837.74 7.84,278.99 16.02,558.84 24.03,838.04 95.76,31.64 191.59,64.45 287.41,97.3 95.7,32.81 191.62,64.35 287.4,92.29 -4.57,-308.03 -3.65,-615.09 -6.82,-921.89 -3.17,-307.6 -3.76,-614.25 4.27,-920.25 1.17,-92.31 0.9,-184.79 -0.68,-277.24 -103.75,-6.37 -207.5,-14.6 -311.21,-21.96 -103.66,-7.36 -207.37,-12.54 -310.94,-16.97 2.62,97.86 4.98,195.5 7.15,292.94z"/>
     <path class="fil1" d="M1213.44 1016.53c14.3,2.31 16.67,-29.75 16.9,27.37 0.22,57.12 0.79,228.7 1.42,342.72 0,0 1.17,30.65 15.7,31.32 14.53,0.67 14.52,34.19 14.72,-26.75 0.19,-60.94 1.08,-244.21 1.71,-366.53 0,0 7.11,-31.87 22.99,-31.35 15.87,0.52 23.37,-27.77 23.28,35.89 -0.08,63.66 -1.19,254.65 -0.46,381.73 0.74,127.28 4.17,254.51 7.07,381.95 0,0 0.08,12.73 17.15,18.88 17.07,6.15 18.54,37.44 17.49,-15.3 -1.04,-52.75 -5.02,-211.4 -5.82,-316.7 -0.8,-105.32 0.22,-211.1 1.09,-316.24 0,0 2.48,-21.51 14.08,-20.65 11.59,0.87 13.26,-17.46 12.91,24.01 -0.35,41.47 -1.25,166.3 -1.44,249.44 0,0 -0.03,12.59 13.31,17.9 13.17,5.24 13.19,36.94 13.44,-18.67 0.26,-55.61 1.65,-222.24 2.73,-333.48 0,0 5.14,-31.6 21.18,-28.68 16.03,2.91 20.42,-13.54 19.77,35.99 -0.64,49.53 -3.01,197.9 -3.53,296.51 -0.52,99.02 0.85,197.8 3.13,296.97 0,0 0.55,16.2 15.17,23.94 14.61,7.74 17.01,35.85 15.8,-21.78 -1.22,-57.64 -3.52,-230.6 -2.27,-345.75 1.24,-114.74 3.5,-229.91 4.71,-345.07 0,0 6.42,-16.72 17.63,-16.83 11.22,-0.1 16.76,-18 16.38,17.81 -0.39,35.81 -1.91,143.47 -3.23,215.33 0,0 4.89,20.97 14.99,22.2 10.1,1.23 18.47,-13.81 18.47,-13.81 1.05,-48.77 2.03,-97.77 2.89,-146.54 0,0 0.61,-10.9 17.69,-12.48 17,-1.57 21.45,-54.37 19.66,22.94 -1.8,77.31 -6.81,309.23 -7.75,464.2 0,0 -1.99,22.59 20.04,25.76 22.04,3.18 20.74,-26.71 20.74,-26.71 0,0 10.35,-383.53 9.34,-459.24 -1.02,-75.7 16.3,-50.31 16.3,-50.31 1.17,-92.31 0.9,-184.79 -0.68,-277.24 -103.75,-6.37 -207.5,-14.6 -311.21,-21.96 -103.66,-7.36 -207.37,-12.54 -310.94,-16.97 2.62,97.86 4.98,195.5 7.15,292.94 8.36,-1.33 9.58,-9.31 9.96,10.81 0.39,20.12 1.62,80.48 2.33,120.5 0,0 4.45,24.03 22.06,23.74 17.61,-0.29 22.09,4.91 21.61,-24.56 -0.47,-29.47 -1.87,-117.9 -2.94,-176.84 0,0 8.02,-27.55 22.31,-28.94 14.28,-1.39 17.87,-8.45 18.58,42.56 0.72,51.01 2.56,203.84 3.88,305.65 1.32,101.81 3.21,203.61 5.5,305.39 0,0 3.38,17.43 11.87,18.38 8.49,0.95 12.52,30.87 11.48,-15.13 -1.04,-46 -3.8,-184 -4.9,-275.81 -1.1,-91.81 -1.89,-183.84 -2.9,-276.08 0,0 1.09,-17.66 13.59,-18.02 12.49,-0.36 16.01,4.11 16.15,16.73 0.14,12.61 0.5,50.47 0.73,75.93 0,0 2.55,17.66 12.72,17.26 10.18,-0.4 11.64,-16 11.64,-16 -0.2,-26.77 -0.33,-53.31 -0.6,-80.07 0,0 2.93,-24.57 17.23,-22.26z"/>
     <path class="fil2" d="M1262.18 1391.19c0,0 -0.19,27.42 -14.72,26.75 -14.53,-0.67 -15.38,25.69 -15.7,-31.32 -0.31,-57.01 -0.97,-228.48 -1.42,-342.72 0,0 -2.6,-25.06 -16.9,-27.37 -14.3,-2.31 -17.36,8.88 -17.23,22.26 0.13,13.38 0.4,53.3 0.6,80.07 0,0 -1.46,15.6 -11.64,16 -10.17,0.4 -12.6,-4.54 -12.72,-17.26 -0.11,-12.73 -0.45,-50.7 -0.73,-75.93 0,0 -3.66,-17.09 -16.15,-16.73 -12.5,0.36 -14.1,-28.11 -13.59,18.02 0.5,46.12 1.8,184.27 2.9,276.08 1.1,91.81 2.82,183.81 4.9,275.81 0,0 -2.99,16.08 -11.48,15.13 -8.49,-0.95 -10.73,32.51 -11.87,-18.38 -1.15,-50.89 -4.18,-203.58 -5.5,-305.39 -1.32,-101.81 -2.46,-203.63 -3.88,-305.65 0,0 -4.3,-43.95 -18.58,-42.56 -14.29,1.39 -22.84,-0.54 -22.31,28.94 0.54,29.47 2.01,117.89 2.94,176.84 0,0 -4,24.27 -21.61,24.56 -17.61,0.29 -21.7,-3.73 -22.06,-23.74 -0.35,-20.01 -1.55,-80.26 -2.33,-120.5 0,0 -1.6,-12.14 -9.96,-10.81 5.62,279.05 11.54,558.53 19.39,837.74 7.84,278.99 16.02,558.84 24.03,838.04 95.76,31.64 191.59,64.45 287.41,97.3 95.7,32.81 191.62,64.35 287.4,92.29 -4.57,-308.03 -3.65,-615.09 -6.82,-921.89 -3.17,-307.6 -3.76,-614.25 4.27,-920.25 0,0 -17.32,-25.39 -16.3,50.31 1.01,75.71 -9.34,459.24 -9.34,459.24 0,0 1.3,29.89 -20.74,26.71 -22.03,-3.17 -20.52,51.73 -20.04,-25.76 0.47,-77.49 4.16,-309.58 7.75,-464.2 0,0 -2.66,-24.51 -19.66,-22.94 -17.08,1.58 -17.26,-11.91 -17.69,12.48 -0.43,24.39 -1.84,97.77 -2.89,146.54 0,0 -8.37,15.04 -18.47,13.81 -10.1,-1.23 -15.65,13.73 -14.99,-22.2 0.66,-35.93 2.46,-143.71 3.23,-215.33 0,0 -5.16,-17.91 -16.38,-17.81 -11.21,0.11 -17.03,-40.75 -17.63,16.83 -0.6,57.58 -3.47,230.33 -4.71,345.07 -1.25,115.15 -0.16,230.47 2.27,345.75 0,0 -1.19,29.52 -15.8,21.78 -14.62,-7.74 -14.04,25.64 -15.17,-23.94 -1.14,-49.59 -3.65,-197.95 -3.13,-296.97 0.52,-98.61 2.24,-197.45 3.53,-296.51 0,0 -3.74,-33.08 -19.77,-35.99 -16.04,-2.92 -20.65,-26.94 -21.18,28.68 -0.54,55.62 -2.22,222.26 -2.73,333.48 0,0 -0.27,23.91 -13.44,18.67 -13.34,-5.31 -13.4,23.67 -13.31,-17.9 0.1,-41.57 0.74,-166.51 1.44,-249.44 0,0 -1.32,-23.14 -12.91,-24.01 -11.6,-0.86 -13.65,-31.92 -14.08,20.65 -0.44,52.57 -1.89,210.92 -1.09,316.24 0.8,105.3 3.74,211.21 5.82,316.7 0,0 -0.42,21.45 -17.49,15.3 -17.07,-6.15 -15.7,44.85 -17.15,-18.88 -1.45,-63.72 -6.33,-254.67 -7.07,-381.95 -0.73,-127.08 0.29,-254.41 0.46,-381.73 0,0 -7.41,-35.37 -23.28,-35.89 -15.88,-0.52 -22.68,-29.81 -22.99,31.35 -0.31,61.16 -1.32,244.65 -1.71,366.53z"/>
     <path class="fil3" d="M1556.2 2744.22c0.18,0.05 0.5,-0.01 1.02,0.4 0.25,0.21 0.46,0.35 0.64,0.42 0.91,0.34 1.43,-1.34 1.48,-5.05 0.03,-2.17 -0.14,-8.05 -0.26,-17.84 -0.02,-1.52 -0.26,-2.57 -0.46,-3.03 -0.27,-0.62 -0.66,-1.3 -1.3,-1.48 -0.06,-0.02 -0.28,0.17 -0.63,0.01 -0.11,-0.05 -0.38,-0.2 -0.5,-0.2 -0.32,0.01 -0.71,-0.41 -0.84,-0.85 -0.21,-0.64 -0.36,-1.51 -0.39,-2.38 -0.02,-0.87 0.11,-1.33 0.51,-2.19 0.31,-0.68 0.77,-1.54 1.32,-2 2.94,-2.47 6.04,-3.17 9.46,-2.23 0.87,0.24 1.66,0.78 2.05,1.47 0.47,0.82 0.71,1.72 0.71,2.81 0,0.87 -0.12,1.3 -0.26,1.75 -0.14,0.42 -0.37,0.65 -0.79,1.1 -0.61,0.67 -1.05,1.34 -1.12,2.43 -0.06,0.87 -0.16,5.23 -0.01,12.62 0.14,7.18 0.38,11.31 0.4,11.96 0.01,0.44 0.13,1.3 0.18,1.96 0.13,1.51 0.5,2.74 0.79,3.24 0.45,0.8 0.98,1.31 1.86,1.68 1.05,0.45 1.45,1.49 1.48,3.44 0.03,2.18 -0.57,3.63 -1.96,3.76 -2,0.19 -4,0.08 -6.03,-0.26 -1.31,-0.22 -2.71,-0.73 -3.87,-1.63 -1.53,-1.2 -2.49,-2.2 -3.55,-3.6 -0.71,-0.95 -1.29,-2.14 -1.3,-3.88 -0.01,-0.87 0.15,-1.31 0.38,-1.97 0.23,-0.66 0.53,-0.61 0.99,-0.46zm32.91 -0.29c-1.02,4.37 -1.48,7.44 -1.44,8.96 0.08,0.43 0.19,0.9 0.61,1.72 0.25,0.48 0.57,0.85 0.74,1.51 0.11,0.42 0.22,1.08 0.24,1.73 0.05,1.96 -0.2,3.41 -0.65,3.72 -0.55,0.37 -1.11,0.65 -1.99,0.49 -0.12,-0.02 -0.28,-0.07 -0.64,-0.2 -0.23,-0.08 -0.45,-0.14 -0.63,-0.2 -1.09,-0.34 -2,-0.88 -2.81,-1.88 -0.75,-0.92 -1.26,-2.35 -1.31,-4.09 -0.02,-0.66 -0.01,-1.55 0.26,-1.97 0.15,-0.24 0.51,-0.59 0.91,-1.11 0.45,-0.6 0.57,-0.9 0.77,-1.55 0.66,-2.2 1.2,-3.95 1.59,-5.7 0.44,-1.98 0.96,-4.15 1.37,-6.79 0.44,-2.83 0.68,-4.81 0.83,-6.12 0.15,-1.31 0.2,-2.61 0.2,-3.92 0,-0.87 -0.06,-1.52 -0.07,-2.39 -0.02,-2.39 0.42,-4.55 1.09,-5.69 0.77,-1.3 1.69,-2.21 2.9,-1.82 0.69,0.21 1.27,0.61 1.81,1.9 0.54,1.29 1,2.59 1.3,3.88 0.34,1.51 0.68,2.83 1.08,4.97 1.52,8.04 3.36,16.02 5.08,24.02 0.23,1.09 0.47,1.95 0.64,2.59 0.17,0.65 0.37,1.31 0.68,1.94 0.22,0.45 0.37,0.86 0.48,1.29 0.1,0.44 0.15,1.08 0.17,1.52 0.07,2.61 -0.28,4.24 -1.13,4.6 -0.83,0.35 -1.98,0.22 -3.32,-0.12 -0.18,-0.05 -0.54,-0.08 -1.01,-0.19 -0.37,-0.08 -0.77,-0.15 -0.95,-0.19 -1.4,-0.34 -2.46,-1.25 -3.26,-2.08 -0.82,-0.87 -1.3,-2.36 -1.32,-4.53 0,-0.66 0.1,-1.06 0.22,-1.32 0.18,-0.41 0.19,-0.7 0.4,-1.1 0.16,-0.29 0.39,-0.43 0.49,-0.66 0.08,-0.21 0.1,-0.66 0.09,-1.09 -0.04,-1.31 -0.25,-3.05 -0.78,-5.21 -0.47,-1.95 -0.9,-3.67 -1.4,-5.4 -0.13,-0.43 -0.28,-0.72 -0.53,-0.85 -0.16,-0.09 -0.51,0.45 -0.71,1.33z"/>
     <path class="fil3" d="M1311.94 2337.31c2.18,0.53 3.83,2.1 5.53,4.63 0.59,0.88 1.21,2.11 1.6,3.43 0.44,1.49 0.55,3.03 0.57,4.56 0.04,2.82 -0.49,5.44 -1.67,7.44 -0.38,0.65 -0.53,1.11 -0.52,1.54 0.03,0.87 0.35,1.44 1,1.93 2.94,2.24 4.34,6.62 4.46,13.37 0.07,4.13 -0.41,7.63 -1.51,10.92 -1.03,3.08 -2.64,5.18 -4.84,6.01 -1.52,0.58 -3.16,0.7 -5.08,0.15 -2.19,-0.63 -4.01,-2.11 -5.63,-3.97 -0.97,-1.12 -1.55,-2.79 -1.57,-4.53 -0.01,-1.08 0.2,-2.14 0.43,-2.62 0.42,-0.85 0.7,-1.04 1.23,-0.91 0.24,0.06 1.01,0.55 2.17,1.46 0.45,0.36 0.93,0.64 1.59,0.83 1.41,0.41 2.35,-0.05 3.04,-1.18 0.8,-1.31 1.2,-3.08 1.17,-5.04 -0.03,-1.95 -0.35,-3.71 -1.02,-5.19 -0.6,-1.32 -1.39,-2.31 -2.4,-2.54 -0.67,-0.16 -1.16,0.1 -1.68,0.26 -0.24,0.08 -0.5,0.23 -0.62,0.24 -0.25,0.01 -0.63,-1.07 -0.89,-2.37 -0.33,-1.72 -0.46,-3.03 -0.5,-4.34 -0.01,-0.65 0.05,-1.08 0.15,-1.31 0.2,-0.43 0.65,-0.56 1.36,-0.91 0.73,-0.35 1.26,-1.34 1.8,-2.66 0.46,-1.11 0.69,-2.2 0.65,-3.72 -0.05,-1.52 -0.27,-2.82 -0.75,-4.11 -0.47,-1.3 -1.07,-1.89 -1.75,-2.13 -0.46,-0.16 -0.8,-0.44 -1.01,-0.19 -0.34,0.42 -0.79,0.9 -1.52,1.57 -0.24,0.22 -0.44,0.51 -0.55,0.45 -0.3,-0.16 -0.52,-0.64 -0.81,-1.72 -0.27,-1.08 -0.39,-1.94 -0.4,-3.03 -0.01,-1.74 0.56,-3.26 1.82,-4.62 0.8,-0.88 1.77,-1.36 2.9,-1.61 1.12,-0.25 2.22,-0.35 3.25,-0.09zm16.35 32.17c0.52,0.13 1.14,0.8 1.61,1.48 0.57,0.82 1.04,1.89 1.33,2.79 0.96,2.99 1.29,6.27 1.36,10.19 0.04,2.17 -0.1,4.57 -0.36,6.97 -0.29,2.62 -0.72,5.02 -1.13,6.78 -0.81,3.5 -1.64,4.92 -2.56,4.65 -0.42,-0.13 -0.68,-0.21 -1.1,-1.06 -0.31,-0.65 -0.48,-1.73 -0.5,-2.38 -0.01,-0.44 0.13,-1.31 0.54,-3.06 0.15,-0.66 0.37,-1.77 0.54,-3.06 0.14,-1.11 0.24,-1.76 0.24,-2.41 0.01,-1.08 -0.23,-1.9 -0.5,-2.16 -0.83,-0.8 -1.29,-1.68 -1.57,-2.35 -1,-2.34 -1.43,-4.96 -1.49,-8.01 -0.04,-2.39 0.42,-4.49 0.91,-5.68 0.87,-2.13 1.62,-2.95 2.68,-2.69zm18.1 23.42c-3.59,-1.04 -7.3,-1.88 -10.87,-2.95 -1.05,-0.32 -1.51,-1.05 -1.51,-2.35 0,-0.66 0.06,-1.34 0.26,-1.97 0.15,-0.48 0.78,-1.81 1.94,-4.41 1.9,-4.24 3.37,-8.15 4.35,-12.31 0.41,-1.76 0.71,-3.5 0.66,-5.24 -0.03,-1.09 -0.22,-2.56 -0.53,-3.25 -0.37,-0.83 -0.67,-1.28 -1.23,-1.49 -0.51,-0.19 -0.84,-0.21 -1.13,0.03 -0.26,0.21 -0.82,1.1 -1.67,2.88 -0.21,0.43 -0.44,0.55 -0.87,0.46 -0.49,-0.1 -1.06,-0.8 -1.43,-1.7 -0.51,-1.26 -0.63,-2.38 -0.66,-3.46 -0.03,-1.09 0.15,-2.39 0.53,-3.5 0.37,-1.09 0.76,-2.44 1.46,-3.52 2.18,-3.36 4.77,-4.49 7.61,-3.7 2.15,0.59 3.85,1.86 5.33,4.41 0.63,1.09 1.17,2.36 1.56,4.09 0.48,2.16 0.62,3.69 0.66,5.64 0.1,4.79 -1.13,9.42 -3.66,14.47 -0.78,1.57 -1.29,2.87 -1.27,3.74 0.03,0.87 0.17,1.51 0.44,2.16 0.27,0.65 0.6,1.01 0.97,1.06 0.95,0.13 1.75,-0.29 2.45,-2.03 0.36,-0.9 0.66,-1.11 0.78,-1.33 0.11,-0.22 0.18,-0.33 0.49,-0.23 0.92,0.31 1.43,2.35 1.5,6.49 0.04,1.95 -0.12,4.13 -0.39,5.89 -0.31,1.95 -0.63,3.51 -1.11,5.03 -0.49,1.55 -1.11,2.14 -1.76,2.01 -0.31,-0.06 -0.53,-0.41 -0.65,-0.63 -0.22,-0.42 -0.42,-0.86 -0.61,-1.73 -0.24,-1.07 -0.38,-1.28 -0.61,-1.72 -0.23,-0.42 -0.51,-0.69 -1.03,-0.84zm21.71 -49.59c1.4,0.35 2.62,1.89 3.7,4.25 1.46,3.22 2.28,6.9 2.32,11.03 0.02,2.17 -0.12,3.71 -0.53,5.67 -0.36,1.76 -0.92,3.25 -1.57,4.4 -1.32,2.39 -2.78,3.11 -4.5,2.52 -1.83,-0.62 -3.31,-2.06 -4.47,-5.09 -1.07,-2.78 -1.55,-6.05 -1.6,-9.75 -0.06,-4.35 0.51,-7.65 1.72,-10.06 0.56,-1.12 1.26,-1.87 2.18,-2.45 0.88,-0.56 1.82,-0.75 2.75,-0.52zm-1.02 6.12c-0.28,-0.15 -0.41,0.04 -0.6,0.67 -0.15,0.48 -0.27,1.1 -0.26,1.97 0.03,2.83 0.3,5.65 0.74,8.47 0.24,1.51 0.41,2.37 0.65,3.02 0.24,0.64 0.4,0.99 0.72,1.07 0.55,0.13 0.83,-0.89 0.79,-3.07 -0.05,-3.04 -0.3,-6.08 -0.75,-8.9 -0.31,-1.95 -0.81,-2.97 -1.29,-3.23zm14.48 25.92c1.39,0.37 2.6,2.09 3.7,4.46 1.57,3.42 2.29,6.9 2.32,11.04 0.02,1.95 -0.13,3.9 -0.47,5.45 -0.43,1.96 -0.96,3.27 -1.57,4.4 -1.29,2.4 -2.82,3.23 -4.56,2.74 -1.8,-0.5 -3.35,-2.27 -4.41,-5.1 -1.11,-2.98 -1.55,-6.26 -1.6,-9.96 -0.06,-4.35 0.57,-7.58 1.67,-9.63 0.68,-1.27 1.31,-2.3 2.24,-2.89 0.87,-0.55 1.86,-0.73 2.68,-0.51zm-1.02 6.12c-0.24,-0.05 -0.5,0.02 -0.67,0.68 -0.17,0.65 -0.2,1.31 -0.19,2.18 0.04,2.83 0.27,5.44 0.75,8.46 0.2,1.31 0.48,2.37 0.64,2.81 0.24,0.64 0.42,0.93 0.72,1.07 0.6,0.28 0.89,-0.9 0.86,-2.85 -0.05,-3.05 -0.32,-6.31 -0.82,-9.12 -0.32,-1.73 -0.7,-3.09 -1.29,-3.23zm-9.06 -1.26c1.44,-6.35 3,-12.7 4.52,-19.28 1.27,-5.47 2.03,-9.21 2.43,-11.39 0.25,-1.32 0.58,-2.13 0.75,-2.41 0.37,-0.62 0.62,-0.8 1.05,-0.69 1.11,0.29 1.6,1.26 1.63,2.35 0.03,1.09 -0.45,2.84 -1.22,5.69 -0.64,2.41 -1.44,5.48 -2.47,9.87 -1.59,6.78 -3.26,13.35 -4.7,19.94 -1,4.58 -1.83,8.75 -2.65,12.48 -0.28,1.31 -0.47,2.2 -0.67,2.63 -0.22,0.45 -0.53,0.63 -0.93,0.46 -0.56,-0.24 -0.98,-0.39 -1.28,-0.83 -0.42,-0.63 -0.53,-1.08 -0.55,-1.73 -0.02,-0.65 0.15,-1.29 0.26,-1.75 0.34,-1.3 1.12,-4.39 2.48,-9.86 0.43,-1.76 0.9,-3.51 1.35,-5.48z"/>
     <path class="fil3" d="M1201.17 2053.44c-0.46,-2.38 -0.91,-4.32 -1.36,-6.06 -0.39,-1.5 -0.9,-2.45 -1.45,-2.57 -1.24,-0.27 -1.63,5.27 -1.4,17.02 0.05,2.17 0.11,4.79 0.23,7.83 0.12,3.04 0.2,4.78 0.22,5.43 0.1,5.66 0.36,9.38 1,11.07 0.51,1.33 1.39,3.02 2.52,4.5 1.14,1.5 1.75,3.65 1.8,6.26 0.17,7.39 -3.45,10.04 -10.86,8.14 -6.36,-1.62 -9.62,-5.59 -9.82,-12.55 -0.07,-2.4 0.15,-3.67 0.5,-4.37 0.42,-0.85 0.95,-1.26 1.7,-1.79 0.85,-0.6 1.44,-1.58 1.87,-2.67 0.44,-1.11 0.76,-3.5 0.8,-6.98 0.13,-10.01 0.24,-18.94 0.27,-27.87 0.03,-8.7 -0.06,-19.37 -0.34,-31.54 -0.24,-10.01 -0.85,-17.38 -1.62,-21.28 -0.25,-1.29 -1.02,-2.5 -1.99,-4.08 -1.14,-1.85 -1.95,-3.39 -2.52,-4.72 -0.64,-1.47 -0.87,-3.24 -0.91,-5.41 -0.09,-4.78 1.05,-7.96 3.62,-9.24 2.5,-1.25 5.62,-1.54 9.26,-0.71 2.29,0.52 4.03,1.1 5.26,1.81 1.27,0.74 2.17,1.68 2.77,2.75 0.72,1.29 1.14,2.36 1.42,3.44 0.28,1.08 0.95,3.67 1.97,7.78 0.54,2.15 1.77,7.34 3.53,16 1.81,8.86 3.39,15.78 4.68,20.76 1.33,5.17 2.18,8.52 3.46,9.26 0.65,0.38 1.58,-1.54 2.32,-4.42 0.83,-3.26 1.71,-8.1 2.84,-14.66 1.12,-6.56 1.98,-10.72 2.39,-12.69 0.69,-3.28 1.4,-6.57 2.1,-9.86 0.74,-3.49 1.53,-5.87 2.3,-7.25 0.84,-1.5 1.76,-2.75 3.23,-3.13 1.46,-0.38 3.45,-0.11 5.91,0.48 7.32,1.74 11.02,6.65 11.21,14.91 0.05,2.17 -0.08,3.7 -0.38,4.36 -0.29,0.67 -0.81,2.24 -1.81,4.41 -0.94,2.02 -1.49,3.74 -1.66,5.49 -0.22,2.18 -0.35,7.63 -0.43,15.9 -0.07,8.27 -0.14,14.8 -0.06,19.58 -0.02,-0.87 0.52,12.83 1.55,40.87 0.11,3.05 0.46,5.63 0.89,7.16 0.55,1.93 1.22,3.65 1.97,5.17 0.84,1.69 1.37,2.81 1.74,3.86 0.31,0.9 0.58,2.17 0.62,4.12 0.1,5 -1.25,7.76 -3.89,8.6 -2.64,0.84 -5.92,1.03 -9.72,0.06 -3.85,-0.98 -7.05,-2.61 -9.66,-4.73 -2.58,-2.08 -3.92,-5.54 -4.05,-10.11 -0.05,-1.52 0.11,-2.62 0.4,-3.49 0.28,-0.88 0.68,-2.02 1.35,-3.31 0.58,-1.14 1.12,-1.99 1.42,-2.87 0.22,-0.66 0.44,-1.53 0.54,-2.84 0.08,-1.09 0.19,-3.93 0.25,-8.71 0.06,-4.14 0.05,-8.71 -0.04,-12.41 -0.22,-9.35 -0.73,-14.08 -1.79,-14.31 -0.7,-0.15 -1.32,0.94 -2.09,3.54 -0.66,2.23 -1.39,5.26 -2,8.98 -0.61,3.71 -1.31,7.65 -1.99,11.6 -0.18,1.08 -0.67,4.37 -1.58,10.27 -0.88,5.69 -1.63,10.08 -2.39,13.13 -0.7,2.87 -1.56,4.55 -2.26,4.2 -0.54,-0.28 -1.04,-1.25 -1.37,-1.92 -0.4,-0.83 -1.02,-3.23 -1.82,-6.7 -0.84,-3.66 -2.07,-9.73 -3.72,-18.17 -1.65,-8.44 -3.27,-16.88 -4.93,-25.32zm51.1 21.82c-0.18,-8.27 0.39,-15.26 1.57,-21.6 1.15,-6.13 2.82,-11.25 5.14,-15.37 2.16,-3.84 4.82,-6.67 7.73,-8.28 2.9,-1.61 5.97,-2.22 9.1,-1.57 4.19,0.88 7.96,4.35 11.26,9.91 3.29,5.56 5.89,12.44 7.66,20.23 1.82,7.99 2.74,16.03 2.89,24.08 0.18,9.79 -0.89,18.1 -3.23,25.12 -2.28,6.82 -5.31,11.89 -9.1,15.06 -3.74,3.14 -7.53,4.15 -11.32,3.15 -2.91,-0.76 -5.47,-2.05 -8.1,-4.77 -2.48,-2.57 -4.74,-6.18 -6.82,-10.69 -1.99,-4.3 -3.55,-9.48 -4.77,-15.53 -1.19,-5.85 -1.86,-12.57 -2.01,-19.74zm20.65 -25.41c-1.12,-0.23 -1.96,0.74 -2.62,2.91 -0.6,2 -0.96,4.6 -0.84,7.64 0.37,9.56 1.24,18.9 2.43,28 1.22,9.32 2.88,14.15 5.26,14.87 2.24,0.67 3.34,-2.93 3.2,-10.54 -0.07,-3.92 -0.43,-9.35 -0.95,-15.86 -0.55,-6.73 -1.37,-12.8 -2.47,-18.21 -1.09,-5.41 -2.42,-8.47 -4.01,-8.81zm45.37 45.27c-2.33,9.65 -3.48,16.43 -3.38,19.9 0.07,0.44 0.7,1.9 1.35,3.23 0.82,1.68 1.3,3 1.61,3.87 0.38,1.07 0.58,2.38 0.61,3.68 0.08,4.35 -0.36,7.46 -1.51,8.75 -1.04,1.17 -2.62,1.51 -4.54,1 -0.31,-0.08 -0.83,-0.43 -1.46,-0.61 -0.76,-0.21 -1.21,-0.09 -1.51,-0.17 -2.62,-0.71 -4.94,-2.16 -6.77,-4.16 -2.05,-2.24 -2.95,-5.36 -3.02,-9.27 -0.03,-1.74 0.14,-3.29 0.57,-3.94 0.46,-0.68 1.15,-1.77 2.12,-2.89 0.97,-1.11 1.6,-2.2 1.91,-3.1 1.66,-4.82 2.96,-9.22 3.83,-13.17 0.96,-4.37 2.07,-9.18 3.14,-15.1 1.09,-6.11 1.8,-10.5 2.11,-13.56 0.32,-3.05 0.35,-6.1 0.31,-8.93 -0.02,-1.52 0,-3.48 -0.02,-5.22 -0.06,-5.44 0.69,-9.58 2.46,-12.69 1.75,-3.08 4.09,-4.59 6.96,-4.12 1.6,0.27 2.95,2.09 4.14,4.45 1.2,2.36 2.22,5.16 2.99,7.97 0.83,3.02 1.69,6.7 2.64,11.02 3.88,17.74 7.78,35.47 11.67,52.99 0.58,2.59 1.08,4.75 1.56,6.26 0.41,1.3 0.94,2.59 1.55,3.87 0.52,1.08 0.93,2.15 1.09,3.02 0.2,1.08 0.29,2.39 0.31,4.13 0.06,5.43 -0.83,8.29 -2.68,9.21 -1.86,0.92 -4.47,0.9 -7.71,0.22 -0.43,-0.09 -1.16,-0.28 -2.27,-0.58 -1.05,-0.29 -1.8,-0.26 -2.33,-0.37 -3.2,-0.65 -5.7,-2.08 -7.64,-4.14 -1.87,-1.96 -2.83,-5.14 -2.92,-9.92 -0.03,-1.3 0.06,-2.42 0.34,-3.28 0.23,-0.68 0.57,-1.33 1.07,-1.99 0.53,-0.68 0.83,-1.09 1.08,-1.77 0.16,-0.42 0.27,-1.09 0.25,-2.4 -0.05,-3.04 -0.7,-6.93 -1.84,-11.48 -1.13,-4.52 -2.14,-8.2 -3.22,-11.88 -0.38,-1.28 -0.68,-1.63 -1.12,-1.71 -0.65,-0.11 -1.21,0.7 -1.73,2.88zm31.52 3.89c-0.14,-8.27 0.48,-15.47 1.75,-22.04 1.19,-6.13 2.96,-11.17 5.26,-15.38 2.17,-3.97 4.82,-6.89 7.72,-8.49 2.9,-1.61 5.97,-2.18 9.05,-1.35 4.25,1.14 7.94,4.36 11.26,10.12 3.21,5.58 5.74,12.46 7.56,20.68 1.71,7.78 2.7,16.02 2.82,24.29 0.15,9.79 -0.95,18.1 -3.35,25.34 -2.33,7.05 -5.3,11.97 -9.15,15.28 -3.74,3.22 -7.6,4.16 -11.38,3.16 -2.91,-0.77 -5.52,-2.24 -8.04,-4.99 -2.53,-2.76 -4.82,-6.4 -6.84,-10.91 -1.93,-4.3 -3.61,-9.68 -4.7,-15.53 -1.13,-6.06 -1.83,-12.79 -1.96,-20.18zm20.89 -25.63c-1.18,-0.25 -2.11,0.71 -2.73,2.91 -0.57,1.97 -1.02,4.59 -0.91,7.64 0.32,9.78 1.14,19.12 2.31,28.44 1.18,9.33 2.9,14.61 5.21,15.3 2.3,0.7 3.43,-2.92 3.33,-10.76 -0.05,-3.91 -0.31,-9.35 -0.84,-16.08 -0.55,-6.94 -1.37,-13.02 -2.41,-18.42 -1.09,-5.63 -2.43,-8.71 -3.96,-9.03zm50.92 26.61c0.37,0.07 1.25,-0.81 2.19,-2.46 1.21,-2.12 2.03,-4.21 3.01,-6.39 0.9,-2.01 1.37,-3.75 1.37,-4.61 0.01,-0.87 -0.44,-2.59 -1.08,-4.98 -0.69,-2.58 -0.96,-4.76 -0.98,-5.85 -0.07,-4.13 1.02,-6.86 3.29,-7.71 2.14,-0.8 4.55,-1.03 7,-0.42 7.65,1.92 11.5,6.86 11.59,14.69 0.03,2.83 -0.16,4.38 -0.61,5.02 -0.33,0.47 -1.49,0.96 -2.78,1.6 -1.5,0.75 -2.63,2.15 -3.91,3.6 -3.04,3.46 -4.75,5.79 -4.73,7.53 0.01,1.31 0.79,4.34 2.34,9.51 1.42,4.76 3.34,10.58 5.7,17.25 2.28,6.47 3.57,10.35 3.83,11.2 0.92,3.04 2.22,6.05 3.9,9.25 1.7,3.23 2.81,5.35 3.25,6.22 0.42,0.85 0.62,2.59 0.64,4.99 0.08,7.39 -2.48,10.6 -7.5,9.35 -3.56,-0.89 -7.14,-1.77 -10.74,-2.74 -1.51,-0.4 -2.49,-1.04 -3,-1.87 -0.54,-0.88 -1.3,-2.78 -2.23,-5.81 -2.53,-8.19 -5.03,-16.37 -7.35,-24.6 -1.52,-5.37 -2.37,-8.2 -2.94,-8.4 -0.57,-0.2 -0.78,1.76 -0.73,5.24 0.07,4.78 0.26,7.83 0.58,9.34 0.33,1.52 0.95,3.44 1.66,5.18 0.78,1.92 1.12,4.32 1.12,6.49 0.01,2.4 -0.18,4.58 -0.69,6.34 -0.46,1.53 -1.56,2.97 -3.4,3.79 -1.82,0.81 -4.53,0.66 -8.16,-0.2 -0.49,-0.11 -1.05,-0.03 -1.57,-0.17 -3.78,-1.04 -6.68,-2.62 -8.72,-4.54 -2.01,-1.88 -3.07,-5.57 -3.13,-10.79 -0.03,-2.18 0.45,-4.1 1.35,-5.48 0.96,-1.5 1.6,-2.63 1.96,-3.54 0.34,-0.86 0.53,-3.72 0.7,-8.29 0.12,-3.05 0.18,-8.27 0.08,-15.02 -0.11,-6.95 -0.36,-14.57 -0.58,-22.18 -0.12,-4.35 -0.3,-7.18 -0.68,-8.46 -0.32,-1.09 -0.92,-2.82 -1.91,-5.39 -0.83,-2.17 -1.35,-4.54 -1.38,-6.71 -0.12,-7.61 3.57,-10.76 11.15,-8.81 0.76,0.2 1.45,0.35 2.34,0.59 7.28,1.93 10.93,6 11.04,13.18 0.02,1.73 -0.31,3.48 -0.86,5.03 -0.55,1.52 -0.95,2.84 -1.2,4.16 -0.24,1.31 -0.39,4.15 -0.33,8.07 0.07,5 0.45,7.68 1.1,7.8zm34.64 25.34c-0.11,-8.26 0.49,-15.7 1.75,-22.03 1.26,-6.36 3.03,-11.64 5.38,-15.83 2.24,-3.99 4.85,-6.94 7.84,-8.71 2.8,-1.66 5.88,-2.09 9.05,-1.35 4.22,1 7.78,4.19 11.2,10.13 3.11,5.41 5.75,12.68 7.49,20.67 1.73,8.01 2.57,16.04 2.64,24.3 0.08,10.01 -1.07,18.71 -3.4,25.78 -2.45,7.43 -5.47,12.5 -9.21,15.72 -3.84,3.31 -7.59,4.6 -11.43,3.59 -2.85,-0.75 -5.52,-2.17 -8.04,-4.78 -2.59,-2.68 -4.7,-6.61 -6.71,-11.12 -2.01,-4.51 -3.51,-9.91 -4.66,-15.97 -1.14,-6.06 -1.8,-12.79 -1.9,-20.4zm20.95 -26.06c-1.12,-0.24 -2.05,0.71 -2.68,2.9 -0.62,2.2 -1,4.82 -0.9,7.86 0.33,10 1.04,19.34 2.21,28.88 1.13,9.33 2.76,14.61 5.07,15.31 2.31,0.69 3.45,-3.15 3.39,-10.98 -0.03,-3.92 -0.3,-9.35 -0.78,-16.3 -0.48,-6.95 -1.34,-13.23 -2.35,-18.43 -1.13,-5.84 -2.37,-8.91 -3.96,-9.24z"/>
     <path class="fil3" d="M1239.67 2184.65c-0.07,-1.09 -0.09,-1.75 -0.26,-2.39 -0.11,-0.43 -0.25,-0.87 -0.41,-1.29 -0.17,-0.44 -0.34,-0.87 -0.41,-1.08 -0.06,-0.21 -0.15,-0.65 -0.15,-1.08 -0.01,-2.18 0.96,-3.01 3.12,-2.49 0.25,0.06 0.85,0.32 1.84,0.61 1.04,0.3 1.9,0.59 2.47,0.79 0.57,0.2 1.2,0.3 1.95,0.38 0.78,0.09 1.17,0.11 1.45,0.18 1.22,0.33 2.13,0.61 2.73,1.23 0.63,0.65 1.03,1.05 1.17,1.49 0.14,0.43 0.28,1.08 0.29,1.51 0.02,0.65 -0.04,1.33 -0.32,1.97 -0.19,0.46 -0.44,0.87 -0.53,1.1 -0.08,0.21 -0.14,1.09 -0.12,2.4 0.05,3.26 0.13,6.74 0.22,10.01 0.04,1.3 0.1,1.96 0.2,2.38 0.11,0.44 0.28,0.86 0.54,1.51 0.27,0.65 0.38,1.51 0.37,1.95 -0.01,1.09 -0.15,1.73 -0.69,2.19 -0.5,0.44 -1.57,0.79 -3.31,0.32 -1.92,-0.52 -2.81,-1.88 -2.87,-3.84 -0.01,-0.43 -0.02,-0.65 0.04,-0.87 0.06,-0.22 0.13,-0.65 0.28,-1.1 0.14,-0.43 0.24,-0.44 0.29,-0.87 0.05,-0.44 0.1,-0.88 0.08,-1.53 -0.18,-8.48 -0.31,-13.05 -0.45,-13.7 -0.15,-0.65 -0.54,-1.06 -1.17,-1.27 -0.57,-0.19 -0.99,0.23 -1.11,0.69 -0.16,0.64 -0.11,5 0.08,13.7 0.02,0.65 0.13,1.09 0.17,1.52 0.04,0.43 0.11,0.67 0.28,1.08 0.1,0.23 0.29,0.42 0.34,0.64 0.09,0.43 0.02,0.65 0.02,0.88 0.01,2.17 -1.2,3.44 -3.68,2.71 -0.89,-0.26 -1.59,-0.61 -2.23,-1.24 -0.65,-0.63 -1.04,-1.71 -1.04,-3.23 0,-0.44 0.1,-0.88 0.34,-1.32 0.24,-0.44 0.44,-0.66 0.53,-1.1 0.13,-0.65 0.18,-1.53 0.17,-2.84 -0.01,-1.3 -0.12,-3.04 -0.16,-5.65 -0.03,-2.18 -0.02,-3.7 -0.06,-4.35zm25.8 12.1c0.06,2.17 0.09,3.48 0.25,4.56 0.14,0.87 0.32,1.42 0.49,1.51 0.25,0.13 0.38,0.21 0.51,0.42 0.13,0.21 0.2,0.43 0.22,1.08 0.02,0.87 -0.19,1.95 -0.48,2.84 -0.29,0.86 -0.69,1.57 -1.26,2.22 -0.4,0.46 -0.92,0.46 -1.49,0.48 -0.5,0.01 -0.85,-0.4 -1.15,-0.84 -0.28,-0.41 -0.47,-0.87 -0.67,-1.51 -0.21,-0.66 -0.34,-0.91 -0.53,-1.07 -0.1,-0.08 -0.37,0.23 -0.67,0.67 -0.3,0.45 -0.66,0.89 -1.04,1.12 -0.36,0.23 -0.85,0.14 -1.5,0.05 -0.55,-0.09 -1.11,-0.47 -1.73,-1.26 -0.56,-0.71 -1.02,-1.5 -1.39,-2.79 -0.32,-1.09 -0.59,-2.81 -0.64,-4.55 -0.03,-1.31 0.15,-2.63 0.52,-3.94 0.31,-1.1 0.98,-2.04 1.74,-2.66 0.92,-0.75 1.7,-0.82 2.99,-0.52 0.37,0.09 0.65,0.05 0.76,-0.02 0.23,-0.17 0.21,-0.88 0.2,-1.53 -0.05,-3.7 -0.5,-5.57 -1.17,-5.84 -0.35,-0.14 -0.45,0.04 -0.67,0.45 -0.14,0.26 -0.5,1.1 -0.76,1.98 -0.26,0.87 -0.41,1.6 -0.82,2.2 -0.21,0.32 -0.58,0.37 -1.06,0.25 -0.3,-0.08 -0.57,-0.44 -0.84,-1.06 -0.2,-0.46 -0.44,-1.3 -0.44,-2.16 0,-1.53 0.35,-2.74 0.9,-3.51 0.73,-1.02 1.42,-1.92 2.26,-2.25 0.96,-0.37 1.72,-0.63 2.55,-0.5 0.37,0.05 0.76,0.51 1.28,0.83 0.52,0.32 1.09,0.84 1.62,1.7 0.52,0.85 0.96,1.92 1.34,3.22 0.38,1.29 0.53,3.03 0.58,4.77 0.06,1.96 0.04,3.7 0.1,5.66zm-6.5 3.01c0,0.87 0.13,1.52 0.25,1.95 0.23,0.86 0.42,1.21 0.72,1.29 0.42,0.12 0.58,-0.24 0.72,-1.11 0.08,-0.45 0.11,-1.53 0.12,-2.61 0,-0.87 -0.05,-1.52 -0.12,-1.96 -0.08,-0.43 -0.29,-0.56 -0.52,-0.64 -0.36,-0.12 -0.72,0.23 -0.86,0.68 -0.26,0.86 -0.3,1.54 -0.31,2.4zm14.72 -15.65c0.74,0.14 1.41,0.43 2.11,1.24 0.59,0.68 1.25,1.49 1.64,2.35 0.48,1.07 0.77,1.94 1.02,3.02 0.25,1.08 0.37,1.94 0.4,2.81 0.05,1.74 -0.24,2.81 -0.59,3.72 -0.41,1.08 -0.89,1.55 -1.46,1.35 -0.57,-0.2 -0.96,-0.41 -1.16,-1.06 -0.28,-0.86 -0.44,-1.72 -0.65,-2.81 -0.24,-1.29 -0.37,-2.16 -0.51,-2.59 -0.21,-0.65 -0.47,-1.08 -0.85,-1.07 -0.31,0.01 -0.59,0 -0.74,0.24 -0.27,0.42 -0.37,1.11 -0.51,1.98 -0.07,0.44 -0.15,1.31 -0.14,1.74 0.05,1.52 0.14,2.83 0.44,4.34 0.21,1.08 0.63,2.38 1.1,3.23 0.46,0.86 1.04,1.5 1.55,1.7 0.5,0.2 1.1,-0.19 1.49,-0.48 0.53,-0.39 0.68,-0.45 0.8,-0.46 0.25,-0.01 0.48,0.41 0.72,1.07 0.24,0.64 0.29,1.3 0.32,2.17 0.03,1.09 -0.1,2.21 -0.54,3.28 -0.38,0.92 -0.91,1.91 -1.81,2.44 -0.67,0.4 -1.63,0.56 -2.56,0.29 -1.16,-0.32 -2.12,-1.27 -3.09,-2.74 -0.86,-1.31 -1.7,-3.44 -2.29,-5.81 -0.54,-2.16 -0.86,-4.76 -0.91,-7.59 -0.04,-2.39 0.24,-4.56 0.74,-6.77 0.5,-2.17 1.27,-3.53 2.19,-4.63 0.95,-1.13 2.05,-1.2 3.29,-0.96zm16.5 4.53c0.32,-0.08 0.55,-0.24 0.87,-0.24 0.37,-0.02 0.7,0.43 1.11,1.49 0.34,0.88 0.73,1.93 0.97,3.23 0.27,1.51 0.43,2.82 0.44,4.35 0.01,1.3 -0.1,2.16 -0.36,2.83 -0.26,0.65 -0.69,0.81 -1.17,0.69 -0.37,-0.09 -0.57,-0.2 -0.78,-0.85 -0.14,-0.43 -0.38,-1.3 -0.7,-2.59 -0.38,-1.52 -0.69,-1.88 -0.81,-1.93 -0.34,-0.16 -0.53,0 -0.62,0.23 -0.08,0.21 -0.11,0.44 -0.1,0.87 0.03,0.87 0.1,2.4 0.11,3.92 0.03,1.96 0.06,4.35 0.15,7.17 0.01,0.66 0.1,1.31 0.23,1.52 0.13,0.22 0.2,0.65 0.47,1.29 0.19,0.44 0.4,0.64 0.54,1.08 0.13,0.43 0.23,0.86 0.23,1.51 -0.01,0.87 -0.2,1.28 -0.52,1.76 -0.41,0.63 -0.8,0.78 -1.41,0.91 -0.53,0.12 -1.17,0.58 -1.75,0.27 -0.58,-0.32 -1.2,-0.33 -1.84,-0.6 -0.86,-0.38 -1.32,-1.07 -1.92,-1.69 -0.44,-0.44 -0.81,-1.72 -0.84,-2.8 -0.02,-0.65 0.03,-1.31 0.15,-1.53 0.11,-0.22 0.17,-0.55 0.54,-0.89 0.18,-0.16 0.35,-0.47 0.53,-0.88 0.12,-0.26 0.23,-0.88 0.21,-1.53 -0.02,-0.65 -0.01,-1.53 -0.01,-2.61 0,-1.09 0.01,-1.96 -0.01,-2.61 -0.05,-1.74 -0.1,-3.26 -0.12,-4.14 -0.03,-0.87 -0.13,-1.73 -0.19,-2.17 -0.09,-0.64 -0.23,-0.76 -0.46,-0.85 -0.31,-0.13 -0.43,0.47 -0.84,1.54 -0.34,0.91 -0.59,1.79 -0.81,2.2 -0.14,0.26 -0.39,0.35 -0.81,0.25 -0.36,-0.1 -0.7,-0.21 -0.91,-1.07 -0.21,-0.87 -0.38,-1.73 -0.39,-2.82 -0.02,-1.95 0.14,-3.92 0.53,-5.67 0.38,-1.75 1.06,-2.56 1.81,-2.45 0.48,0.08 0.78,0.4 0.96,0.63 0.47,0.62 1.67,1.22 3.8,1.63 1.78,0.35 2.93,0.73 3.72,0.55zm9.15 17.58c-0.27,-0.06 -0.36,-0.3 -0.44,-0.2 -0.14,0.17 -0.11,0.44 -0.1,0.87 0.02,0.65 0.17,1.52 0.44,2.38 0.21,0.65 0.63,1.72 0.94,2.15 0.47,0.63 0.79,0.75 1.15,0.84 0.48,0.11 0.9,0.06 1.2,-0.04 0.4,-0.14 0.82,-0.58 1.04,-0.9 0.4,-0.59 0.54,-0.67 0.67,-0.67 0.18,0 0.36,0.43 0.6,1.29 0.18,0.65 0.28,1.08 0.3,1.73 0.03,1.31 -0.2,2.43 -0.78,3.51 -0.49,0.91 -1.16,1.54 -2.01,2.01 -0.81,0.45 -1.51,0.63 -2.18,0.5 -1.3,-0.25 -2.22,-1.31 -3.29,-3.17 -0.78,-1.36 -1.66,-3.22 -2.17,-5.6 -0.5,-2.37 -0.78,-4.55 -0.82,-6.94 -0.05,-2.82 0.2,-5.23 0.73,-7.42 0.47,-1.98 1.35,-3.45 2.25,-4.41 0.98,-1.05 1.93,-1.71 2.97,-1.39 0.94,0.28 1.71,1.05 2.38,1.89 0.69,0.86 1.27,1.93 1.79,3.43 0.44,1.3 0.77,2.59 0.98,3.67 0.3,1.51 0.48,2.6 0.49,3.9 0.01,1.52 -0.12,2.62 -0.35,3.06 -0.24,0.44 -0.56,0.75 -0.99,0.68 -1.66,-0.3 -3.25,-0.84 -4.8,-1.17zm1.82 -6.58c-0.02,-0.87 -0.08,-1.75 -0.39,-2.6 -0.23,-0.66 -0.54,-0.83 -0.97,-1.06 -0.33,-0.18 -0.75,0.21 -0.92,0.68 -0.3,0.85 -0.31,1.53 -0.31,2.4 0.01,1.31 0.24,1.74 0.74,1.72 0.07,0 0.2,0.21 0.32,0.21 0.13,0 0.25,-0.01 0.25,-0.01 0.13,0 0.25,0.09 0.51,0.21 0.23,0.1 0.46,-0.16 0.56,-0.24 0.23,-0.17 0.23,-0.66 0.21,-1.31zm6.57 10.26c-0.08,-4.14 -0.16,-6.74 -0.34,-7.17 -0.08,-0.21 -0.25,-0.45 -0.52,-0.64 -0.31,-0.23 -0.55,-0.4 -0.64,-0.64 -0.25,-0.63 -0.32,-1.29 -0.32,-2.38 0,-0.87 0.14,-1.53 0.63,-2.2 0.48,-0.66 0.98,-1.1 1.71,-1.57 0.68,-0.44 1.34,-0.57 2.04,-0.71 0.75,-0.15 1.26,-0.59 1.62,-0.48 0.37,0.1 0.45,0.42 0.52,0.64 0.07,0.21 0.15,0.64 0.16,1.3 0.02,0.65 0.1,1.3 0.23,1.3 0.06,-0.01 0.41,-0.38 0.73,-0.68 0.42,-0.38 0.72,-1.11 1.16,-1.34 0.42,-0.23 0.95,-0.39 1.43,-0.25 1,0.26 1.82,1.21 2.46,2.75 0.7,1.69 1.14,3.24 1.53,5.4 0.43,2.38 0.67,4.55 0.7,6.73 0.02,1.74 -0.11,3.69 -0.35,5.45 -0.23,1.74 -0.56,3.27 -0.99,4.6 -0.43,1.3 -0.98,2.44 -1.61,3.09 -0.65,0.69 -1.41,0.64 -2.18,0.5 -0.24,-0.05 -0.62,0.08 -0.88,-0.2 -0.34,-0.37 -0.62,-0.82 -0.85,-1.06 -0.36,-0.39 -0.51,-0.42 -0.57,-0.42 -0.19,0.01 -0.27,0.23 -0.27,1.53 0,1.09 0.05,1.74 0.19,2.17 0.13,0.44 0.29,0.88 0.6,1.51 0.23,0.45 0.37,0.65 0.47,0.86 0.1,0.22 0.21,0.86 0.22,1.3 0.04,1.3 -0.27,2.25 -0.92,2.63 -0.52,0.31 -1.27,0.29 -1.88,0.06 -0.97,-0.37 -1.94,-0.49 -2.67,-1.23 -0.96,-0.96 -1.37,-1.75 -1.97,-2.99 -0.34,-0.71 -0.74,-1.72 -0.77,-2.81 -0.01,-0.43 0.05,-0.89 0.16,-1.09 0.03,-0.05 0.24,-0.23 0.54,-0.67 0.3,-0.44 0.44,-0.88 0.59,-1.54 0.18,-0.87 0.21,-3.7 0.12,-8.71 -0.01,-0.87 -0.06,-1.96 -0.08,-3.04zm5.93 -7.35c-0.24,-0.07 -0.56,-0.01 -0.68,0.45 -0.11,0.43 -0.21,1.53 -0.23,2.84 -0.03,1.52 -0.03,3.91 0.02,7.18 0.01,0.87 0.11,1.53 0.31,2.16 0.14,0.45 0.44,0.44 0.9,0.63 1,0.42 1.47,-1.56 1.4,-5.7 -0.02,-1.08 -0.04,-2.17 -0.16,-3.26 -0.14,-1.3 -0.33,-2.13 -0.58,-2.81 -0.3,-0.84 -0.51,-1.36 -0.98,-1.49zm8.88 3.66c-0.03,-1.09 -0.13,-1.74 -0.26,-2.39 -0.08,-0.43 -0.21,-0.86 -0.41,-1.29 -0.2,-0.43 -0.37,-0.86 -0.41,-1.08 -0.03,-0.21 -0.08,-0.65 -0.1,-1.3 -0.05,-1.96 0.93,-2.91 3.07,-2.27 2.48,0.75 3.87,2.07 3.88,4.03 0,0.65 0.02,0.87 -0.03,1.09 -0.06,0.21 -0.11,0.24 -0.3,0.66 -0.11,0.26 -0.3,0.43 -0.35,0.88 -0.05,0.43 -0.1,0.87 -0.14,1.52 0,0 0.04,0.66 0.04,1.31 -0.01,0.87 -0.01,1.31 -0.02,1.74 -0.01,1.09 0.05,1.74 0.13,2.17 0.12,0 0.47,-0.46 0.91,-1.11 0.46,-0.68 0.79,-1.36 1.25,-2.21 0.37,-0.69 0.65,-1.33 0.64,-1.76 -0.01,-0.44 -0.07,-0.88 -0.16,-1.3 -0.05,-0.22 -0.2,-0.63 -0.28,-0.86 -0.06,-0.21 -0.18,-0.65 -0.21,-0.87 -0.04,-0.21 -0.09,-0.65 -0.1,-1.08 0,-1.96 1.02,-2.75 2.95,-2.26 1.17,0.29 2.01,0.76 2.48,1.23 0.57,0.58 0.82,1.07 0.98,1.49 0.18,0.44 0.22,1.09 0.23,1.52 0.03,0.87 -0.02,1.31 -0.08,1.53 -0.05,0.21 -0.13,0.46 -0.35,0.88 -0.13,0.25 -0.27,0.64 -0.35,0.88 -0.15,0.42 -0.19,1.31 -0.19,2.18 0,3.48 0.12,6.74 0.16,10.01 0.02,1.08 0.07,1.74 0.2,2.38 0.08,0.43 0.23,0.86 0.34,1.08 0.22,0.42 0.37,0.85 0.48,1.29 0.1,0.43 0.12,0.87 0.1,1.31 -0.02,0.43 -0.04,0.87 -0.21,1.53 -0.11,0.43 -0.52,0.67 -1.1,0.9 -0.66,0.26 -1.47,0.58 -2.63,0.29 -2.06,-0.51 -2.93,-2.09 -2.93,-4.05 -0.01,-0.22 0,-0.64 0.1,-0.87 0.08,-0.21 0.01,-0.71 0.28,-1.1 0.07,-0.1 0.27,-0.44 0.35,-0.88 0.08,-0.43 0.1,-0.65 0.09,-1.31 -0.01,-0.22 -0.03,-0.87 -0.05,-1.52 -0.02,-0.65 0.03,-1.24 0.03,-1.31 0.01,-1.74 -0.22,-3.14 -0.28,-3.04 -0.1,0.2 -0.36,0.45 -0.77,1.33 -0.42,0.88 -0.87,1.56 -1.25,2.43 -0.39,0.9 -0.64,1.55 -0.64,1.76 0.02,0.65 0.08,1.09 0.1,1.31 0.07,0.65 0.18,0.85 0.28,1.08 0.1,0.2 0.11,0.2 0.14,0.43 0.05,0.43 0.08,0.65 0.09,0.86 0.03,1.09 -0.32,1.82 -0.63,2.2 -0.46,0.56 -0.81,0.78 -1.23,0.69 -0.54,-0.11 -1.02,-0.12 -1.45,-0.18 -0.83,-0.12 -1.53,-0.67 -2.23,-1.24 -0.59,-0.48 -1.03,-1.71 -1.03,-3.02 0,-0.65 0.1,-1.09 0.34,-1.53 0.23,-0.44 0.47,-0.86 0.53,-1.1 0.16,-0.65 0.14,-1.53 0.17,-2.84 0.02,-1.31 -0.06,-3.05 -0.11,-5.87 -0.03,-2.18 -0.04,-3.7 -0.06,-4.35zm20.36 1.59c-0.63,-0.36 -1.19,0.25 -1.61,0.7 -0.43,0.44 -0.67,1.12 -0.88,2.2 -0.17,0.89 -0.37,1.14 -0.69,2.2 -0.15,0.51 -0.48,0.94 -0.85,0.89 -0.96,-0.13 -1.46,-1.92 -1.47,-5.18 0,-1.3 0.12,-2.4 0.29,-3.27 0.21,-1.1 0.55,-1.9 0.81,-2.42 0.4,-0.83 0.54,-0.89 0.97,-0.9 0.29,-0.01 0.56,-0.03 1.06,-0.25 0.55,-0.24 0.95,-0.24 1.5,-0.26 0.49,-0.01 1.06,-0.01 1.76,0.17 1.51,0.4 2.69,1.25 3.66,3.16 0.89,1.73 1.34,3.66 1.38,6.49 0.02,1.08 -0.08,2.2 -0.48,3.06 -0.42,0.91 -0.89,1.55 -1.33,1.78 0.32,0.21 0.71,0.63 1.11,1.49 0.4,0.86 0.62,1.31 0.96,2.58 0.23,0.9 0.44,1.73 0.45,2.82 0.03,2.39 -0.17,4.37 -0.78,5.68 -0.51,1.11 -1.25,2.01 -2.06,2.24 -0.87,0.24 -1.75,0.25 -2.57,0.07 -0.88,-0.2 -1.55,-0.21 -1.96,-0.38 -0.6,-0.26 -0.87,-0.88 -1.35,-1.26 -0.29,-0.25 -0.77,-0.89 -1.24,-1.71 -1.38,-2.39 -2.25,-4.73 -2.26,-6.68 0,-0.44 -0.01,-1.13 0.32,-2.19 0.09,-0.32 0.32,-0.65 0.86,-0.46 0.27,0.1 0.72,0.6 1.11,1.49 0.55,1.26 0.97,2.36 1.47,3.22 0.49,0.85 1.11,1.14 1.92,1.26 0.48,0.07 0.82,0.01 1.05,-0.47 0.3,-0.63 0.4,-1.1 0.38,-1.97 -0.06,-1.96 -0.79,-3.21 -2.11,-3.64 -0.52,-0.16 -0.89,-0.41 -1.16,-1.05 -0.27,-0.65 -0.49,-1.3 -0.49,-1.95 -0.01,-1.96 0.62,-2.55 1.74,-2.44 0.66,0.06 1.01,0.08 1.38,-0.26 0.18,-0.17 0.41,-0.88 0.39,-1.53 -0.02,-0.87 -0.18,-1.74 -0.37,-2.17 -0.2,-0.43 -0.42,-0.78 -0.91,-1.06zm7.16 11.54c-0.04,-2.6 0.06,-4.57 0.45,-6.32 0.38,-1.75 0.81,-3.34 1.49,-4.61 0.63,-1.16 1.45,-2.02 2.25,-2.46 0.86,-0.47 1.76,-0.53 2.63,-0.29 1.28,0.35 2.23,1.5 3.29,3.17 0.84,1.32 1.67,3.43 2.17,5.81 0.51,2.38 0.82,4.76 0.83,6.94 0.01,2.83 -0.29,5.45 -0.98,7.43 -0.7,1.98 -1.47,3.81 -2.63,4.64 -1.06,0.76 -2.21,0.88 -3.3,0.53 -0.81,-0.25 -1.45,-0.49 -2.3,-1.45 -0.66,-0.75 -1.37,-1.73 -1.98,-3.21 -0.53,-1.32 -1.07,-2.58 -1.44,-4.53 -0.29,-1.52 -0.45,-3.69 -0.48,-5.65zm5.99 -7.57c-0.36,-0.08 -0.61,0.43 -0.79,0.9 -0.23,0.63 -0.27,1.53 -0.24,2.4 0.08,2.83 0.32,5.43 0.67,8.25 0.3,2.38 0.87,4.11 1.51,4.31 0.63,0.2 0.94,-0.68 0.91,-3.08 -0.01,-1.08 -0.01,-2.61 -0.2,-4.78 -0.17,-1.95 -0.33,-3.48 -0.72,-5.42 -0.27,-1.31 -0.66,-2.46 -1.14,-2.58zm19.01 11.43c0.2,0.21 0.55,0.65 0.92,1.49 0.29,0.66 0.66,1.31 0.95,2.59 0.21,0.88 0.45,1.95 0.47,3.03 0.03,2.61 -0.41,4.78 -1.08,6.13 -0.76,1.52 -1.96,2.28 -3.65,1.62 -0.41,-0.15 -1.02,-0.29 -1.77,-0.38 -0.78,-0.09 -1.23,-0.5 -1.65,-0.6 -0.36,-0.1 -0.94,-0.2 -1.7,-0.39 -0.76,-0.2 -1.36,-0.48 -1.84,-0.6 -1.05,-0.27 -1.64,-1.04 -1.65,-3 0,-0.44 0.03,-1.13 0.32,-1.97 0.18,-0.51 0.42,-0.88 0.53,-1.32 0.11,-0.43 0.16,-1.09 0.17,-2.62 0.02,-1.73 0.09,-3.48 0.03,-5.44 -0.03,-1.3 -0.12,-3.26 -0.19,-4.56 -0.06,-1.09 -0.11,-1.74 -0.19,-2.17 -0.07,-0.43 -0.24,-0.66 -0.4,-1.08 -0.18,-0.44 -0.28,-0.88 -0.42,-1.29 -0.07,-0.24 -0.08,-0.87 -0.11,-1.74 -0.02,-0.65 0.25,-1.39 0.58,-1.76 0.49,-0.56 0.69,-0.56 1.11,-0.47 0.43,0.11 1.11,0.1 1.83,0.39 0.81,0.32 1.34,0.61 1.84,0.6 0.18,-0.01 0.64,0.09 1.19,0.18 0.6,0.1 0.95,0.3 1.27,0.4 2.93,0.9 4.41,3.35 4.49,7.92 0.01,0.87 -0.05,1.97 -0.29,3.06 -0.2,0.88 -0.52,1.53 -0.76,1.98zm-4.76 -2.04c0.32,0.21 0.66,-0.22 0.86,-0.68 0.27,-0.64 0.33,-1.53 0.31,-2.18 -0.02,-0.87 -0.15,-1.75 -0.39,-2.6 -0.17,-0.66 -0.44,-0.92 -0.78,-1.07 -0.2,-0.1 -0.23,-0.22 -0.31,0.23 -0.03,0.21 -0.03,0.43 -0.03,0.87 -0.01,1.3 -0.05,2.83 -0.01,4.13 0.01,0.22 0.05,0.64 0.15,0.87 0.09,0.2 0.2,0.43 0.2,0.43zm0.52 11.52c0.41,0.14 0.74,-0.18 0.92,-0.68 0.3,-0.84 0.31,-1.75 0.3,-2.62 -0.02,-2.17 -0.56,-3.37 -1.48,-3.66 -0.37,-0.11 -0.5,1.1 -0.47,3.5 0.02,1.3 0.16,2.16 0.26,2.6 0.11,0.43 0.3,0.8 0.47,0.86zm18.26 -3.57c0.04,2.39 0.1,3.69 0.27,4.78 0.13,0.86 0.32,1.42 0.48,1.51 0.25,0.13 0.36,0.34 0.45,0.42 0.19,0.16 0.22,0.43 0.22,1.08 -0.01,1.09 -0.16,1.92 -0.48,2.84 -0.38,1.07 -0.69,1.78 -1.25,2.43 -0.4,0.47 -0.93,0.69 -1.49,0.48 -0.51,-0.19 -0.93,-0.31 -1.15,-0.62 -0.39,-0.57 -0.47,-1.07 -0.67,-1.72 -0.21,-0.65 -0.4,-0.86 -0.53,-0.86 -0.12,0.01 -0.37,0.02 -0.67,0.46 -0.3,0.44 -0.55,1.03 -1.03,1.33 -0.32,0.2 -0.88,0.03 -1.51,-0.17 -0.63,-0.2 -1.16,-0.43 -1.73,-1.26 -0.61,-0.88 -1.05,-1.71 -1.4,-3 -0.35,-1.3 -0.52,-2.82 -0.57,-4.56 -0.04,-1.3 0.14,-2.84 0.45,-3.93 0.37,-1.32 1.1,-2.06 1.8,-2.66 0.91,-0.77 1.81,-1.19 2.99,-0.74 0.41,0.15 0.57,0.15 0.75,-0.02 0.09,-0.08 0.29,-0.66 0.27,-1.53 -0.05,-3.7 -0.48,-5.86 -1.17,-5.84 -0.31,0 -0.47,0.02 -0.68,0.45 -0.21,0.45 -0.5,1.09 -0.75,1.98 -0.26,0.87 -0.56,1.55 -0.82,1.98 -0.28,0.46 -0.59,0.59 -1.06,0.47 -0.3,-0.08 -0.64,-0.42 -0.9,-1.06 -0.27,-0.65 -0.44,-1.52 -0.44,-2.17 0,-1.52 0.34,-2.8 0.95,-3.72 0.71,-1.08 1.45,-2.01 2.32,-2.25 0.94,-0.25 1.73,-0.4 2.5,-0.29 0.43,0.07 0.93,0.35 1.34,0.62 0.55,0.36 1.03,1.06 1.56,1.91 0.52,0.86 0.96,1.93 1.34,3.23 0.38,1.28 0.53,3.03 0.59,4.99 0.05,1.74 0,3.7 0.02,5.44zm-6.48 3.23c-0.01,0.87 0.07,1.51 0.25,2.17 0.17,0.64 0.34,1.2 0.66,1.29 0.42,0.12 0.67,-0.25 0.78,-1.12 0.09,-0.65 0.11,-1.52 0.11,-2.83 0,-0.87 -0.04,-1.52 -0.12,-1.95 -0.07,-0.44 -0.27,-0.87 -0.46,-0.86 -0.44,0.01 -0.78,0.44 -0.92,0.9 -0.26,0.86 -0.3,1.53 -0.3,2.4zm9.49 -7.89c-0.06,-1.08 -0.07,-1.75 -0.2,-2.39 -0.09,-0.44 -0.25,-0.87 -0.41,-1.29 -0.17,-0.44 -0.42,-0.86 -0.48,-1.3 -0.02,-0.21 -0.02,-0.65 -0.03,-1.08 -0.06,-2.18 0.96,-3 3,-2.48 2.57,0.65 3.94,2.28 3.95,4.24 0,0.65 -0.07,0.87 -0.09,1.09 -0.03,0.21 -0.18,0.33 -0.24,0.44 -0.22,0.4 -0.17,0.66 -0.28,1.1 -0.06,0.22 -0.08,0.87 -0.08,1.74 0,1.52 0.04,2.4 0.14,2.61 0.1,0.22 0.52,0.63 1.21,0.83 0.64,0.19 0.97,0.21 1.13,-0.03 0.14,-0.21 0.21,-1.31 0.18,-2.62 -0.04,-1.08 -0.14,-1.51 -0.25,-1.95 -0.1,-0.42 -0.15,-0.87 -0.29,-1.3 -0.13,-0.43 -0.09,-0.67 -0.21,-0.86 -0.03,-0.05 -0.14,-0.43 -0.15,-0.87 -0.06,-2.17 0.85,-2.9 2.82,-2.25 1.09,0.36 2.01,0.67 2.67,1.23 0.57,0.49 1,1.06 1.17,1.49 0.17,0.43 0.22,1.08 0.23,1.51 0.02,0.66 -0.09,1.31 -0.32,1.75 -0.24,0.44 -0.38,1.11 -0.46,1.54 -0.08,0.44 -0.15,1.09 -0.13,2.18 0.06,3.48 0.06,7.18 0.11,10.44 0.02,1.31 0.06,1.96 0.2,2.39 0.13,0.43 0.18,0.88 0.49,1.73 0.23,0.66 0.36,1.07 0.36,1.73 -0.01,1.08 -0.2,1.96 -0.68,2.41 -0.49,0.45 -1.67,0.75 -3.26,0.31 -1.99,-0.55 -2.92,-1.87 -2.93,-4.05 -0.01,-0.43 0.04,-0.87 0.09,-1.09 0.06,-0.22 0.09,-0.45 0.23,-0.88 0.14,-0.44 0.2,-0.44 0.29,-0.87 0.08,-0.45 0.13,-0.88 0.14,-1.53 0.01,-0.65 0.03,-1.09 0.01,-1.74 -0.04,-1.53 -0.13,-2.4 -0.27,-2.83 -0.06,-0.21 -0.46,-0.3 -1.14,-0.4 -0.65,-0.09 -1.1,-0.45 -1.19,-0.18 -0.15,0.41 -0.12,1.31 -0.12,2.4 0,1.08 0.02,1.73 0.06,2.17 0.05,0.65 0.14,1.08 0.16,1.3 0.06,0.44 0.15,0.65 0.28,1.08 0.14,0.43 0.23,0.64 0.28,0.87 0.09,0.42 0.09,0.64 0.09,1.08 0.02,2.17 -1.27,3.24 -3.81,2.5 -0.89,-0.25 -1.53,-0.6 -2.17,-1.24 -0.64,-0.63 -0.97,-1.72 -0.97,-3.24 0,-0.65 0.06,-0.89 0.33,-1.53 0.2,-0.46 0.42,-0.67 0.54,-1.1 0.11,-0.44 0.08,-1.31 0.1,-2.84 0.02,-1.31 -0.02,-3.04 -0.03,-5.65 -0.01,-2.4 -0.02,-3.7 -0.07,-4.57zm15.66 4.12c-0.03,-1.09 -0.16,-1.73 -0.25,-2.39 -0.06,-0.43 -0.22,-0.86 -0.42,-1.29 -0.2,-0.43 -0.37,-0.85 -0.4,-1.08 -0.04,-0.21 -0.1,-0.65 -0.1,-1.3 -0.01,-1.96 1.02,-3.02 3.12,-2.48 2.51,0.63 3.83,2.28 3.88,4.24 0.02,0.65 0.06,0.88 -0.03,1.09 -0.09,0.23 -0.24,0.33 -0.3,0.44 -0.21,0.4 -0.14,0.66 -0.22,1.1 -0.03,0.22 -0.2,0.87 -0.2,1.74 0.01,1.52 0.11,2.4 0.2,2.61 0.11,0.22 0.52,0.64 1.16,0.83 0.63,0.2 1.09,0.2 1.18,-0.03 0.09,-0.21 0.11,-1.31 0.11,-2.83 0,-0.65 -0.03,-1.3 -0.11,-1.74 -0.08,-0.43 -0.27,-0.84 -0.34,-1.08 -0.21,-0.63 -0.22,-0.86 -0.29,-1.08 -0.07,-0.21 -0.08,-0.43 -0.08,-0.87 -0.01,-2.17 0.88,-2.72 2.75,-2.25 1.24,0.31 2.08,0.66 2.73,1.23 0.58,0.49 1.04,1.06 1.17,1.49 0.14,0.43 0.23,1.08 0.24,1.51 0.02,0.87 -0.16,1.29 -0.33,1.75 -0.23,0.64 -0.4,1.09 -0.52,1.54 -0.11,0.43 -0.13,1.09 -0.12,2.18 0,3.48 0.01,7.18 0.11,10.45 0.03,1.3 0.18,1.95 0.25,2.38 0.08,0.44 0.26,1.09 0.49,1.73 0.24,0.65 0.37,1.29 0.37,1.95 -0.01,1.08 -0.29,1.66 -0.75,2.19 -0.52,0.59 -1.57,0.78 -3.25,0.32 -1.92,-0.53 -2.87,-1.88 -2.88,-4.06 0,-0.43 -0.02,-0.88 0.04,-1.09 0.01,-0.06 0.13,-0.45 0.28,-0.88 0.08,-0.23 0.24,-0.44 0.29,-0.87 0.05,-0.44 0.1,-0.88 0.08,-1.53 -0.02,-0.65 0.03,-1.09 0.01,-1.74 -0.04,-1.52 -0.06,-2.39 -0.2,-2.82 -0.07,-0.22 -0.52,-0.32 -1.14,-0.41 -0.65,-0.09 -1.08,-0.4 -1.14,-0.18 -0.11,0.44 -0.18,1.31 -0.18,2.4 0,1.08 0.05,1.74 0.06,2.17 0.02,0.66 0.02,1.09 0.11,1.52 0.05,0.22 0.13,0.45 0.28,1.08 0.06,0.25 0.29,0.42 0.34,0.64 0.09,0.43 0.02,0.65 0.03,1.09 0.01,2.18 -1.27,3.23 -3.69,2.5 -0.89,-0.26 -1.59,-0.61 -2.23,-1.24 -0.65,-0.63 -1.03,-1.71 -1.03,-3.02 0,-0.65 0.04,-1.13 0.33,-1.75 0.14,-0.3 0.44,-0.66 0.53,-1.1 0.13,-0.65 0.2,-1.31 0.23,-2.84 0.02,-1.08 -0.09,-3.04 -0.1,-5.65 -0.01,-2.4 -0.04,-3.7 -0.07,-4.57zm14.71 10.02c-0.04,-2.39 0.12,-4.79 0.5,-6.54 0.34,-1.53 0.89,-3.26 1.57,-4.4 0.64,-1.07 1.29,-2.15 2.24,-2.67 0.74,-0.41 1.63,-0.35 2.63,-0.08 1.17,0.32 2.26,1.45 3.22,2.96 0.94,1.48 1.67,3.64 2.18,6.03 0.5,2.36 0.75,4.76 0.76,6.94 0.02,3.04 -0.24,5.46 -0.97,7.64 -0.66,1.99 -1.5,3.43 -2.69,4.43 -0.96,0.81 -2.14,1.1 -3.24,0.75 -0.8,-0.25 -1.6,-0.66 -2.36,-1.46 -0.66,-0.68 -1.33,-1.72 -1.98,-3.2 -0.56,-1.31 -1,-2.81 -1.32,-4.53 -0.35,-1.96 -0.51,-3.69 -0.54,-5.87zm6.05 -7.57c-0.3,-0.07 -0.65,0.44 -0.79,0.89 -0.2,0.65 -0.34,1.32 -0.31,2.19 0.09,3.04 0.39,5.86 0.74,8.47 0.36,2.59 0.73,4.43 1.45,4.52 0.68,0.09 0.96,-1.11 0.97,-3.29 0.01,-1.3 -0.16,-2.61 -0.32,-4.78 -0.14,-1.73 -0.28,-3.48 -0.59,-5.2 -0.28,-1.52 -0.68,-2.68 -1.15,-2.8zm13.28 12.68c-0.23,-0.08 -0.22,-0.21 -0.44,-0.21 -0.23,0.01 -0.16,0.44 -0.17,0.88 -0.01,0.87 0.15,1.75 0.45,2.6 0.24,0.65 0.63,1.72 0.94,2.14 0.47,0.64 0.79,0.76 1.15,0.84 0.48,0.11 0.88,0.18 1.2,-0.03 0.35,-0.24 0.81,-0.6 1.04,-0.9 0.44,-0.6 0.54,-0.67 0.66,-0.67 0.19,-0.01 0.43,0.62 0.6,1.07 0.24,0.63 0.31,1.3 0.31,1.95 -0.01,1.3 -0.11,2.69 -0.78,3.72 -0.48,0.76 -1.18,1.39 -2.07,2.02 -0.7,0.5 -1.5,0.49 -2.18,0.28 -1.21,-0.38 -2.31,-1.27 -3.29,-2.95 -0.87,-1.53 -1.6,-3.44 -2.11,-5.82 -0.5,-2.38 -0.75,-4.77 -0.77,-7.16 -0.01,-2.83 0.23,-5.23 0.8,-7.42 0.56,-2.19 1.25,-3.49 2.24,-4.64 0.95,-1.08 1.91,-1.38 3.04,-1.17 0.89,0.16 1.57,0.89 2.38,1.89 0.56,0.7 1.24,1.92 1.65,3.22 0.49,1.51 0.85,2.59 1.06,4.1 0.19,1.3 0.41,2.38 0.42,3.69 0.02,1.74 -0.14,2.84 -0.34,3.27 -0.21,0.46 -0.63,0.79 -0.99,0.68 -1.68,-0.49 -3.19,-0.86 -4.8,-1.38zm1.88 -6.59c-0.03,-1.08 -0.2,-1.73 -0.38,-2.38 -0.31,-1.07 -0.57,-1.39 -0.98,-1.49 -0.37,-0.1 -0.66,0.25 -0.92,0.89 -0.27,0.68 -0.37,1.54 -0.37,2.41 0,1.3 0.3,1.73 0.74,1.72 0.06,0 0.13,0.05 0.32,0.21 0.1,0.07 0.25,-0.01 0.31,-0.01 0.06,0 0.26,0.21 0.45,0.2 0.25,-0.01 0.41,-0.03 0.55,-0.23 0.16,-0.24 0.3,-0.66 0.28,-1.32z"/>
    </g>
    <path class="fil4" d="M1638.82 1036.52c-8.03,306 -7.44,612.65 -4.27,920.25 3.17,306.8 2.25,613.86 6.82,921.89l540.73 -206.55 19.23 -1985.8 -288.09 -203.83 -275.1 276.8c1.58,92.45 1.85,184.93 0.68,277.24z"/>
    <path class="fil5" d="M1638.14 759.28l275.1 -276.8 -352.15 -0.73 -244.21 7.02 -294.7 231.84c101.51,4.37 203.16,9.5 304.75,16.71 103.71,7.36 207.46,15.59 311.21,21.96z"/>
    <polygon class="fil6" points="1561.09,481.75 1913.24,482.48 1909.12,338.66 1313.07,355.77 1316.88,488.77 "/>
    <polygon class="fil7" points="1943.93,719.66 1913.24,482.48 1638.14,759.28 "/>
    <polygon class="fil7" points="1913.24,482.48 1943.93,719.66 2201.33,686.31 "/>
   </g>
   <path class="fil1" d="M1057.49 1168.34c-17.61,0.29 -22.06,-23.74 -22.06,-23.74 0.36,20.01 4.45,24.03 22.06,23.74z"/>
   <path class="fil1" d="M1172.45 1117.6c0.12,12.72 2.55,17.66 12.72,17.26 -10.17,0.4 -12.72,-17.26 -12.72,-17.26z"/>
   <path class="fil1" d="M1033.11 1024.1c-0.4,-20.12 -1.61,-12.14 -9.97,-10.81 8.36,-1.33 9.97,10.81 9.97,10.81z"/>
   <path class="fil1" d="M1098.47 938c14.28,-1.39 18.58,42.56 18.58,42.56 -0.71,-51.01 -4.3,-43.95 -18.58,-42.56z"/>
   <path class="fil1" d="M1171.72 1041.67c-0.14,-12.62 -3.66,-17.09 -16.16,-16.73 12.5,-0.36 16.16,16.73 16.16,16.73z"/>
   <path class="fil1" d="M1213.44 1016.53c14.3,2.31 16.9,27.37 16.9,27.37 -0.23,-57.12 -2.6,-25.06 -16.9,-27.37z"/>
   <path class="fil1" d="M1286.88 993.31c15.87,0.52 23.28,35.89 23.28,35.89 0.09,-63.66 -7.41,-35.37 -23.28,-35.89z"/>
   <path class="fil1" d="M1373.67 1166.88c0.34,-41.47 -1.32,-23.14 -12.91,-24.01 11.59,0.87 12.91,24.01 12.91,24.01z"/>
   <path class="fil1" d="M1422.88 1053.39c16.04,2.91 19.79,35.99 19.79,35.99 0.64,-49.53 -3.75,-33.08 -19.79,-35.99z"/>
   <path class="fil1" d="M1493.3 977.37c11.22,-0.1 16.38,17.81 16.38,17.81 0.38,-35.81 -5.16,-17.91 -16.38,-17.81z"/>
   <path class="fil1" d="M1580.15 1082.82c1.79,-77.31 -2.66,-24.51 -19.66,-22.94 17,-1.57 19.66,22.94 19.66,22.94z"/>
   <path class="fil1" d="M1592.44 1572.78c-17.3,-2.49 -19.79,-16.96 -20.06,-23.05 -0.49,73.49 -1.71,19.91 20.06,23.05z"/>
   <path class="fil1" d="M1506.45 1210.51c-0.66,35.93 4.89,20.97 14.99,22.2 -10.1,-1.23 -14.99,-22.2 -14.99,-22.2z"/>
   <path class="fil1" d="M1457.42 1706.8c-14.6,-7.74 -15.16,-23.94 -15.16,-23.94 1.14,49.58 0.56,16.2 15.16,23.94z"/>
   <path class="fil1" d="M1372.23 1416.32c-0.09,41.57 -0.03,12.59 13.31,17.9 -13.34,-5.31 -13.31,-17.9 -13.31,-17.9z"/>
   <path class="fil1" d="M1247.46 1417.94c-14.53,-0.67 -15.7,-31.32 -15.7,-31.32 0.32,57.01 1.17,30.65 15.7,31.32z"/>
   <path class="fil1" d="M1138.3 1609.98c-8.49,-0.95 -11.87,-18.38 -11.87,-18.38 1.14,50.89 3.38,17.43 11.87,18.38z"/>
   <path class="fil1" d="M1316.77 1792.93c1.45,63.65 0.08,12.68 17.15,18.83 -16.46,-5.93 -17.13,-17.98 -17.15,-18.83z"/>
  </g>
 </g>
</svg>
