<?xml version="1.0" encoding="UTF-8"?>
<!DOCTYPE svg PUBLIC "-//W3C//DTD SVG 1.1//EN" "http://www.w3.org/Graphics/SVG/1.1/DTD/svg11.dtd">
<!-- Creator: CorelDRAW 2019 (64-Bit) -->
<svg xmlns="http://www.w3.org/2000/svg" xml:space="preserve" width="380px" height="380px" version="1.1" style="shape-rendering:geometricPrecision; text-rendering:geometricPrecision; image-rendering:optimizeQuality; fill-rule:evenodd; clip-rule:evenodd"
viewBox="0 0 380 380"
 xmlns:xlink="http://www.w3.org/1999/xlink">
 <defs>
  <style type="text/css">
   <![CDATA[
    .str1 {stroke:#71A9AD;stroke-width:2.36;stroke-miterlimit:22.9256}
    .str0 {stroke:#7EBBBF;stroke-width:2.36;stroke-miterlimit:22.9256}
    .fil7 {fill:none}
    .fil6 {fill:#FEFEFE}
    .fil8 {fill:#2B2A29}
    .fil13 {fill:#7AC2C7}
    .fil10 {fill:#80CDD3}
    .fil9 {fill:#B96B61}
    .fil12 {fill:#D886AA}
    .fil5 {fill:#F5B2B6;fill-rule:nonzero}
    .fil2 {fill:#CC7588;fill-rule:nonzero}
    .fil0 {fill:#EDE319;fill-rule:nonzero}
    .fil1 {fill:#CB5499;fill-rule:nonzero}
    .fil3 {fill:#5B7674;fill-rule:nonzero}
    .fil4 {fill:#5FB138;fill-rule:nonzero}
    .fil11 {fill:url(#id0)}
   ]]>
  </style>
  <linearGradient id="id0" gradientUnits="userSpaceOnUse" x1="240.98" y1="67.61" x2="310.28" y2="108.69">
   <stop offset="0" style="stop-opacity:1; stop-color:#AFC852"/>
   <stop offset="0.156863" style="stop-opacity:1; stop-color:#CFA436"/>
   <stop offset="0.329412" style="stop-opacity:1; stop-color:#FFED00"/>
   <stop offset="1" style="stop-opacity:1; stop-color:#EF7F1A"/>
  </linearGradient>
 </defs>
 <g id="Слой_x0020_1">
  <metadata id="CorelCorpID_0Corel-Layer"/>
  <g id="_2351429650032">
   <polygon class="fil0" points="380,205.55 0,233.55 0,225.54 380,197.54 "/>
   <g>
    <path class="fil1" d="M380 70.35l-380 132.9 0 -0.95 380 -132.9 0 0.95zm-380 133.27l380 -128.35 0 0.95 -380 128.35 0 -0.95z"/>
    <path class="fil1" d="M380 83.77l-380 122.5 0 -0.94 380 -122.5 0 0.94zm-380 123.37l380 -116.27 0 0.94 -380 116.27 0 -0.94z"/>
    <polygon class="fil2" points="226.6,380 0,289.89 0,288.93 229.02,380 "/>
   </g>
   <g>
    <polygon class="fil3" points="0,278.78 290.11,380 278,380 0,283 "/>
    <path class="fil4" d="M380 41.1l-380 152.74 0 -4.3 380 -152.74 0 4.3zm-380 213.64l380 61.66 0 4.04 -380 -61.66 0 -4.04z"/>
    <polygon class="fil5" points="0,177.59 351.83,0 360.68,0 0,182.06 "/>
   </g>
   <g>
    <ellipse class="fil6" transform="matrix(0.175062 -0.0152406 0.0119402 0.22345 323.059 86.2252)" rx="112.11" ry="34.37"/>
    <ellipse class="fil6" transform="matrix(0.167639 0.0853026 -0.0594991 0.240341 318.426 112.819)" rx="93.75" ry="19.34"/>
    <path class="fil7" d="M342.75 88.6c0,0 0.14,-10.15 -3.34,-16.02 -3.47,-5.86 -21.12,-6.34 -21.81,-10.14 -0.7,-3.81 -10.43,-9.99 -17.38,-3.33 0,0 -13.75,-4.44 -18.34,7.77 -4.59,12.21 -4.03,64.69 -37.38,70.09 -33.36,5.39 -25.16,23.31 -44.48,23.78 -19.31,0.48 -37.1,-1.42 -50.3,20.78 -13.21,22.2 -110.91,-15.07 -110.91,-15.07 0,0 59.21,63.43 123.97,67.24 0,0 12.92,22.36 4.86,22.51 -8.06,0.16 -13.48,4.29 -11.81,24.74 1.67,20.46 5.42,16.65 0,36.16 0,0 -0.97,1.54 5.35,7.33 0,0 -0.24,4.28 2.85,6.74 3.09,2.46 10.04,5.59 13.83,-3.01 0,0 -7.3,-6.35 -8.9,-19.43 -1.6,-13.08 3.2,-33.62 12.65,-33.46 9.45,0.16 22.1,-7.69 17.37,-41.15l5.18 -0.33 3.72 16.43c0,0 4.3,8.56 -3.9,14.9 -8.19,6.35 -4.72,18.72 -3.89,20.46 0.84,1.75 5.56,14.27 3.34,23.63 0,0 -0.98,2.46 2.08,4.12 3.06,1.67 2.71,6.27 2.78,8.33 0.07,2.06 9.66,10.86 18.55,2.53 0,0 0.28,-3.88 -9.45,-16.96 0,0 -5.07,-12.61 0.91,-21.57 5.97,-8.96 21.31,-5.71 16.12,-33.3 -1.22,-6.5 -2.56,-17.12 -4.31,-23.31 0,0 -14.34,4.82 -25.95,4.74m25.95 -4.74c0,0 27.93,-8.48 32.24,-22.04m-3.96 -26.88c0,0 8.83,1.43 3.41,11.89 -5.42,10.47 -3.06,14.91 0.55,14.99 3.62,0.08 17.51,-2.3 12.79,8.96 0,0 5.28,8.8 9.38,-8.09 0,0 1.53,-7.3 -11.33,-9.04 0,0 -5.14,-1.19 -0.76,-10.23 4.38,-9.04 -0.07,-17.44 -5.77,-16.49m4.21 20.83c0,0 -0.18,4.38 9.06,2.88 0,0 3.52,-0.54 3.15,7.34m1.44 4.71c0,0 4.79,0.87 5.77,-10.63 0,0 -0.63,-5.47 -4.1,-5.86 -3.48,-0.4 -6.95,-3.81 -5.84,-7.06 1.11,-3.25 0.21,-6.5 -0.83,-8.33 -1.05,-1.82 17.65,-37.58 18.62,-60.41 0,0 2.95,2.5 6.81,1.7 3.86,-0.79 6.32,5.83 10.56,6.86 4.24,1.03 17.09,9.08 21.47,0.6 0,0 0.56,-1.91 -1.14,-4.68 -1.71,-2.78 -1.46,-1.51 -1.46,-1.51l0.06 1.91 -1.84 -1.83 -0.62 2.34 -1.98 -1.62 -1.39 2.14 -1.32 -2.94 -1.91 1.11 -0.52 -2.61 -1.32 1.26 -0.49 -2.26 -1.7 1.91 -0.77 -2.14 -1.77 0.87 -0.62 -3.25 -0.94 0.83 0.52 -1.82 -2.05 0.55 0.24 -2.34 -2.71 0.8 -0.07 -2.82 -2.5 0.99 0.9 -2.54 -2.32 0.48 -0.98 -2.81 -2.78 0.79c0,0 -13.51,-9.2 -2.78,-13.24 0,0 9.18,0.47 15.05,7.65l0.21 1.31 2.32 -0.64 0.94 2.46 2.16 -1.62 0.69 2.85 1.53 -0.99 0.73 2.93 2.36 -1.19 0.04 2.3 2.88 -0.2 -0.28 2.18 1.91 0 -0.41 1.95 2.39 0.91 -0.86 2.46 1.84 0.55 -1.18 1.47 0.8 3.37m-15.54 -19.43l0.69 -1.94 1.49 1.43 1.32 -1.98 1.84 1.66 0.87 -1.23c0,0 0.77,2.22 1.08,1.99 0.31,-0.24 2.19,-3.97 2.19,-3.97l1.14 1.67 0.91 -1.79 2.54 1.91 1.04 -4.25 1.28 1.71 1.88 -3.77 1.81 1.75 0.86 -4.44 1.51 -1.07 -3.38 0.47 0.73 -3.25 -2.16 1.74 0.39 -4.12 -2.68 2.02 -0.17 -3.48 -1.22 1.58 -1.81 -2.62 -0.17 2.38 -1.67 -1.9 0.18 2.81 -2.89 -2.14 -0.14 3.77 -1.98 -1.31 -0.59 3.77 -1.56 -1.47 -0.76 3.37 -2.44 -2.02 -0.38 3.29 -2.05 -1.51 -0.69 3.37 -1.71 -2.73 -1.77 2.65 -1.87 -3.52 -1.64 3.33c0,0 -1.66,-2.26 -1.77,-2.62 -0.1,-0.36 -0.83,2.3 -0.83,2.3l-0.91 -3.41c0,0 14.6,0.08 16.44,-4.56 1.84,-4.64 14.27,-8.87 19.47,2.42m-35.91 2.14c0,0 -6.67,1.82 -8.89,0.24m15.63 -31.41l-1.21 -10.54 -5.7 4.29 -1.95 -7.93 -6.11 6.34 -4.86 -10.94 -2.92 9.2 -7.65 -7.77 0.14 8.24 -7.64 -4.12 2.78 7.93 -10.56 -3.49 3.05 6.82 -7.78 0.63 2.78 8.56 -6.95 0.96 2.5 4.91 -11.67 3.49 6.12 9.04 -6.4 1.74 3.2 3.49 -4.17 3.97 2.64 6.02 -7.23 1.59 8.76 8.4 -9.17 4.6 9.31 6.19 -11.54 5.23 5.98 6.18 -9.59 4.92 5.59 1.31m63.51 -48.09c0,0 -8.36,1.71 -8.22,7.36"/>
    <ellipse class="fil8" cx="291.04" cy="77.78" rx="2.05" ry="3.85"/>
    <path class="fil7" d="M295.8 71.95c0,0 -7.09,-6.34 -9.24,3.73"/>
    <path class="fil9" d="M315.57 97.71c1.77,2.2 2.14,4.04 2.61,3.52l2.12 -0.58 0.69 -1.94 1.49 1.43 1.32 -1.98 1.84 1.66 0.87 -1.23c0,0 0.77,2.22 1.08,1.99 0.31,-0.24 2.19,-3.97 2.19,-3.97l1.14 1.67 0.91 -1.79 2.54 1.91 1.04 -4.25 1.28 1.71 1.88 -3.77 1.81 1.75 0.86 -4.44 1.51 -1.07 -3.38 0.47 0.73 -3.25 -2.16 1.74 0.39 -4.12 -2.68 2.02 -0.17 -3.48 -1.22 1.58 -1.81 -2.62 -0.17 2.38 -1.67 -1.9 0.18 2.81 -2.89 -2.14 -0.14 3.77 -1.98 -1.31 -0.59 3.77 -1.56 -1.47 -0.76 3.37 -2.44 -2.02 -0.38 3.29 -2.05 -1.51 -0.69 3.37 -1.71 -2.73 -1.77 2.65 -1.87 -3.52 -1.64 3.33c0,0 -1.66,-2.26 -1.77,-2.62 -0.1,-0.36 -0.83,2.3 -0.83,2.3l-0.91 -3.41c0,0 -0.25,0.07 -0.67,0.17 -1.99,0.55 -7.67,2.53 -7.55,7.19 0.25,-0.94 0.5,-1.68 1.36,-2.55 0.58,-0.54 2.18,-0.57 2.87,-0.83 0.84,0.08 1.37,-0.3 4.46,0.16 3.86,1.22 6.25,2.79 8.29,4.49z"/>
    <path class="fil10" d="M283.08 203.18c-1.47,-1.79 -4.33,-3.58 -9.89,-4.33 0,0 -3.38,-0.78 -2.32,-5.89 0,0 -0.18,4.38 9.06,2.88 0,0 3.52,-0.54 3.15,7.34zm22.17 -97.79c-5.08,-3.74 -6.22,-6.46 -6.66,-8.42 -0.01,-0.17 -0.01,-0.35 0,-0.53 -0.12,-4.66 5.56,-6.64 7.55,-7.19 3.74,-1.04 15.17,0.16 17.11,-4.73 1.84,-4.64 14.27,-8.87 19.47,2.42 -0.12,-3.12 -0.69,-9.94 -3.31,-14.36 -3.47,-5.86 -21.12,-6.34 -21.81,-10.14 -0.27,-1.45 -1.83,-3.23 -4.05,-4.53 -3.63,-2.12 -9.01,-2.94 -13.33,1.2 0,0 -13.75,-4.44 -18.34,7.77 -4.59,12.21 -4.03,64.69 -37.38,70.09 -0.41,0.06 -0.81,0.13 -1.2,0.2 -31.96,5.62 -24.19,23.11 -43.28,23.58 -19.31,0.48 -37.1,-1.42 -50.3,20.78 -13.21,22.2 -110.91,-15.07 -110.91,-15.07 0,0 59.21,63.43 123.97,67.24 0,0 12.92,22.36 4.86,22.51 -8.06,0.16 -13.48,4.29 -11.81,24.74 1.67,20.46 5.42,16.65 0,36.16 -0.14,0.89 -0.64,1.23 5.21,7.52 0.13,2.4 -0.1,4.09 2.99,6.55 3.09,2.46 12.54,3.88 13.83,-3.01 -0.31,-1.52 -7.3,-6.35 -8.9,-19.43 -1.6,-13.08 3.2,-33.62 12.65,-33.46 9.45,0.16 22.1,-7.69 17.37,-41.15l5.18 -0.33c11.61,0.08 25.95,-4.74 25.95,-4.74 0,0 27.93,-8.48 32.24,-22.04 3.62,0.08 17.51,-2.3 12.79,8.96 0,0 5.28,8.8 9.38,-8.09 0,0 4.79,0.87 5.77,-10.63 0,0 -0.63,-5.47 -4.1,-5.86 -3.48,-0.4 -6.56,-2.96 -6.92,-6.39 -0.36,-3.42 0.78,-6.18 -0.26,-8 -1.04,-1.83 18.16,-38.58 19.13,-61.41 0.96,0.81 16.32,8.31 17.37,8.56 4.24,1.03 17.09,9.08 21.47,0.6 0,0 0.56,-1.91 -1.14,-4.68 -0.08,-0.12 -0.15,-0.24 -0.22,-0.34 -0.4,0.19 -0.79,0.36 -1.18,0.52l0 0.22 -0.15 -0.16c-1.87,0.73 -3.74,1.15 -5.72,1.11 -8.4,-0.21 -13.61,-9.24 -23.07,-15.86 0,0 -0.09,-0.07 -0.25,-0.18zm-14.21 -23.76c-1.13,0 -2.05,-1.73 -2.05,-3.85 0,-2.12 0.92,-3.84 2.05,-3.84 1.13,0 2.05,1.72 2.05,3.84 0,2.12 -0.92,3.85 -2.05,3.85z"/>
    <path class="fil10" d="M234.42 252.37c-1.22,-6.5 -2.56,-17.12 -4.31,-23.31 0,0 -14.34,4.82 -25.95,4.74l3.72 16.43c0,0 4.3,8.56 -3.9,14.9 -8.19,6.35 -4.72,18.72 -3.89,20.46 0.84,1.75 5.56,14.27 3.34,23.63 0,0 -0.98,2.46 2.08,4.12 3.06,1.67 2.71,6.27 2.78,8.33 0.07,2.06 13.44,10.54 18.55,2.53 0.17,-0.23 0.28,-3.88 -9.45,-16.96 0,0 -5.07,-12.61 0.91,-21.57 5.97,-8.96 21.31,-5.71 16.12,-33.3z"/>
    <path class="fil11" d="M244.5 136.97c33.35,-5.4 32.79,-57.88 37.38,-70.09 4.59,-12.21 18.34,-7.77 18.34,-7.77 4.32,-4.14 9.7,-3.32 13.33,-1.2l-1.21 -10.54 -5.7 4.29 -1.95 -7.93 -6.11 6.34 -4.86 -10.94 -2.92 9.2 -7.65 -7.77 0.14 8.24 -7.64 -4.12 2.78 7.93 -10.56 -3.49 3.05 6.82 -7.78 0.63 2.78 8.56 -6.95 0.96 2.5 4.91 -11.67 3.49 6.12 9.04 -6.4 1.74 3.2 3.49 -4.17 3.97 2.64 6.02 -7.23 1.59 8.76 8.4 -9.17 4.6 9.31 6.19 -11.54 5.23 5.98 6.18 -9.59 4.92 5.59 1.31c0.39,-0.07 0.79,-0.14 1.2,-0.2z"/>
    <path class="fil12" d="M311.58 107.11l-0.9 2.54 2.5 -0.99 0.07 2.82 2.71 -0.8 -0.24 2.34 2.05 -0.55 -0.52 1.82 0.94 -0.83 0.62 3.25 1.77 -0.87 0.77 2.14 1.7 -1.91 0.49 2.26 1.32 -1.26 0.52 2.61 1.91 -1.11 1.28 2.86c0.03,0 0.06,0 0.09,0l1.34 -2.06 1.98 1.62 0.62 -2.34 1.69 1.67c0.05,-0.02 0.1,-0.04 0.15,-0.06l-0.06 -1.69c0,0 -0.23,-1.16 1.24,1.17 0.04,-0.02 0.08,-0.04 0.12,-0.06l-0.63 -2.67c-1.31,-2.92 -5.2,-8.18 -16.7,-15.45 -0.04,-0.02 -0.11,-0.14 -0.23,-0.33l-0.2 0.06 -0.09 -0.53c-0.45,-0.73 -1.2,-1.87 -2.32,-3.05 -2.75,-2.42 -5.84,-3.76 -8.29,-4.49 -1.91,-0.33 -4.11,-0.34 -6.64,0.14 -0.26,0.17 -0.49,0.35 -0.69,0.53 -0.61,0.56 -1.4,1.58 -1.36,3.08 0.26,3.61 5.43,7.54 6.66,8.42 0.08,0.06 0.17,0.12 0.25,0.18l2.78 -0.79 0.98 2.81 2.32 -0.48z"/>
    <path class="fil12" d="M318.41 101.56c11.5,7.27 15.39,12.53 16.7,15.45l-0.07 -0.3 1.18 -1.47 -1.84 -0.55 0.86 -2.46 -2.39 -0.91 0.41 -1.95 -1.91 0 0.28 -2.18 -2.88 0.2 -0.04 -2.3 -2.36 1.19 -0.73 -2.93 -1.53 0.99 -0.69 -2.85 -2.16 1.62 -0.94 -2.46 -2.12 0.58c0.12,0.19 0.19,0.31 0.23,0.33z"/>
    <path class="fil13" d="M227.34 229.91c-2.88,1.02 -6.14,1.77 -9.29,2.31 -4.24,0.86 -9.04,1.57 -13.49,1.58 -0.25,0.03 -0.38,0.07 -0.38,0.1l1.27 5.6c15.24,2.59 25.96,-4.75 25.96,-4.75l-1.3 -5.68c0,0 0,-0.01 0,-0.01 0,0 -1.03,0.35 -2.77,0.85z"/>
    <path class="fil13" d="M270.87 192.96c0,0 -0.15,3.67 6.91,3.14 1.74,-0.2 2.56,-0.41 3.26,-0.01 0.49,0.27 1.04,0.8 1.45,1.83 0.85,1.68 0.59,5.26 0.59,5.26 0.43,0.46 0.74,0.99 0.95,1.52 0.63,1.57 0.49,3.19 0.49,3.19 0.37,0.01 0.73,-0.03 1.06,-0.12 1.47,-0.47 4.03,-2.46 4.71,-10.51 0,0 -0.35,-3.06 -1.99,-4.77 -1.91,-1.56 -3.16,-1.22 -5.48,-2.68 -1.54,-1.37 -2.48,-4.77 -2.47,-5.47 0.06,-3.41 0.03,-4.93 -1.34,-7.33l-8.14 15.95z"/>
    <path class="fil7 str0" d="M303.41 63.97c0,0 2.84,9.91 18.9,8.63"/>
    <path class="fil7 str1" d="M327.39 77.3c0,0.68 0.45,1.24 1.01,1.24 0.56,0 1.02,-0.56 1.02,-1.24 0,-1.37 -0.91,-2.49 -2.03,-2.49 -1.13,0 -2.04,1.12 -2.04,2.49"/>
    <path class="fil7 str1" d="M338.73 77.97c0,0.76 -0.29,1.37 -0.64,1.37 -0.36,0 -0.64,-0.61 -0.64,-1.37 0,-1.52 0.57,-2.75 1.28,-2.75 0.71,0 1.29,1.23 1.29,2.75"/>
    <path class="fil13" d="M162.78 233.7c-0.66,-1.02 -4.98,-7.51 -4.98,-13.7 0,-6.18 -54.59,3.05 -118.13,-53.48 0,0 59.83,63.27 123.11,67.18z"/>
   </g>
  </g>
 </g>
</svg>
