<?xml version="1.0" encoding="UTF-8"?>
<!DOCTYPE svg PUBLIC "-//W3C//DTD SVG 1.1//EN" "http://www.w3.org/Graphics/SVG/1.1/DTD/svg11.dtd">
<!-- Creator: CorelDRAW 2019 (64-Bit) -->
<svg xmlns="http://www.w3.org/2000/svg" xml:space="preserve" width="32.1732mm" height="32.1732mm" version="1.1" style="shape-rendering:geometricPrecision; text-rendering:geometricPrecision; image-rendering:optimizeQuality; fill-rule:evenodd; clip-rule:evenodd"
viewBox="0 0 3217.32 3217.32"
 xmlns:xlink="http://www.w3.org/1999/xlink">
 <defs>
  <style type="text/css">
   <![CDATA[
    .str0 {stroke:#EF7F1A;stroke-width:7.62;stroke-miterlimit:22.9256}
    .fil4 {fill:none}
    .fil0 {fill:none;fill-rule:nonzero}
    .fil3 {fill:#5B5B5B}
    .fil2 {fill:#FFED00}
    .fil5 {fill:#FECC00}
    .fil1 {fill:#FBBE07}
    .fil11 {fill:#EF7F1A}
    .fil7 {fill:#ED6E37}
    .fil14 {fill:#EF9074}
    .fil12 {fill:#EF9074}
    .fil9 {fill:#D7701E}
    .fil6 {fill:#F2CD39}
    .fil13 {fill:#F4E955}
    .fil10 {fill:#F4E955}
    .fil8 {fill:#DBE285}
   ]]>
  </style>
 </defs>
 <g id="Слой_x0020_1">
  <metadata id="CorelCorpID_0Corel-Layer"/>
  <g id="_2192450684752">
   <polygon class="fil0" points="2878.65,2174.31 973.66,2174.31 338.66,1630.2 973.66,1086.09 2878.65,1086.09 2574.13,1771.57 "/>
   <path class="fil0" d="M1520.66 2174.31l-255.22 0 0 159.12 127.61 79.56 127.61 -79.56 0 -159.12zm-127.61 0m-127.61 79.56m63.81 119.34m127.61 0m63.8 -119.34"/>
   <path class="fil1" d="M1051.98 1630.2c0,300.5 -35.07,544.11 -78.32,544.11l291.78 0 127.61 0 127.61 0 816.75 0 0 -388.26 0 -9.6 0 -690.36 -1080.99 0 -282.76 0c43.25,0 78.32,243.61 78.32,544.11z"/>
   <path class="fil2" d="M973.66 2174.31c43.25,0 78.32,-243.61 78.32,-544.11 0,-300.5 -35.07,-544.11 -78.32,-544.11l-19.18 16.44 -615.82 527.67 615.82 527.68 19.18 16.43zm-376.27 -506.28c-10.43,0 -18.89,-16.94 -18.89,-37.83 0,-20.89 8.46,-37.82 18.89,-37.82 10.43,0 18.89,16.93 18.89,37.82 0,20.89 -8.46,37.83 -18.89,37.83z"/>
   <path class="fil0" d="M1552.54 1084.62l-318.98 0 0 -186.87 159.49 -93.43 159.49 93.43 0 186.87zm-159.49 0m-159.49 -93.44m79.75 -140.14m159.49 0m79.74 140.14"/>
   <ellipse class="fil3" cx="597.39" cy="1630.2" rx="18.89" ry="37.82"/>
   <line class="fil4" x1="2337.41" y1="1086.09" x2="2337.41" y2= "2174.31" />
   <g>
    <polyline class="fil4" points="1256.42,1086.09 1393.05,804.32 1552.54,1084.62 "/>
    <polyline class="fil4" points="1393.05,1084.62 1393.05,804.32 1233.56,970.65 "/>
    <line class="fil4" x1="1393.05" y1="804.32" x2="1552.54" y2= "963.25" />
   </g>
   <g>
    <line class="fil4" x1="1393.05" y1="2412.99" x2="1393.05" y2= "2174.31" />
    <polyline class="fil4" points="1265.44,2174.31 1393.05,2412.99 1520.66,2174.31 "/>
    <polyline class="fil4" points="1265.44,2282.12 1393.05,2412.99 1520.66,2291.73 "/>
   </g>
   <path class="fil4" d="M954.48 2157.88c6.13,10.73 12.56,16.43 19.18,16.43 43.25,0 78.32,-243.61 78.32,-544.11 0,-300.5 -35.07,-544.11 -78.32,-544.11 -6.62,0 -13.05,5.71 -19.18,16.44"/>
   <g>
    <g>
     <g>
      <path class="fil4 str0" d="M1123.68 1135.7c36.99,0 66.97,30.03 66.97,67.06 0,37.04 -29.98,67.06 -66.97,67.06"/>
      <path class="fil4 str0" d="M1123.68 1562.22c36.99,0 66.97,30.03 66.97,67.06 0,37.04 -29.98,67.06 -66.97,67.06"/>
      <path class="fil4 str0" d="M1123.68 1994.75c36.99,0 66.97,30.02 66.97,67.06 0,37.03 -29.98,67.06 -66.97,67.06"/>
     </g>
     <g>
      <path class="fil4 str0" d="M1282.6 1782.56c36.99,0 66.98,30.02 66.98,67.06 0,37.04 -29.99,67.06 -66.98,67.06"/>
      <path class="fil4 str0" d="M1282.6 1347.89c36.99,0 66.98,30.02 66.98,67.06 0,37.04 -29.99,67.06 -66.98,67.06"/>
     </g>
    </g>
    <g>
     <g>
      <path class="fil4 str0" d="M1448.32 1135.7c36.99,0 66.97,30.03 66.97,67.06 0,37.04 -29.98,67.06 -66.97,67.06"/>
      <path class="fil4 str0" d="M1448.32 1562.22c36.99,0 66.97,30.03 66.97,67.06 0,37.04 -29.98,67.06 -66.97,67.06"/>
      <path class="fil4 str0" d="M1448.32 1994.75c36.99,0 66.97,30.02 66.97,67.06 0,37.03 -29.98,67.06 -66.97,67.06"/>
     </g>
     <g>
      <path class="fil4 str0" d="M1607.24 1782.56c36.99,0 66.98,30.02 66.98,67.06 0,37.04 -29.99,67.06 -66.98,67.06"/>
      <path class="fil4 str0" d="M1607.24 1347.89c36.99,0 66.98,30.02 66.98,67.06 0,37.04 -29.99,67.06 -66.98,67.06"/>
     </g>
    </g>
    <g>
     <g>
      <path class="fil4 str0" d="M1772.95 1135.7c36.99,0 66.97,30.03 66.97,67.06 0,37.04 -29.98,67.06 -66.97,67.06"/>
      <path class="fil4 str0" d="M1772.95 1562.22c36.99,0 66.97,30.03 66.97,67.06 0,37.04 -29.98,67.06 -66.97,67.06"/>
      <path class="fil4 str0" d="M1772.95 1994.75c36.99,0 66.97,30.02 66.97,67.06 0,37.03 -29.98,67.06 -66.97,67.06"/>
     </g>
     <g>
      <path class="fil4 str0" d="M1931.87 1782.56c36.99,0 66.98,30.02 66.98,67.06 0,37.04 -29.99,67.06 -66.98,67.06"/>
      <path class="fil4 str0" d="M1931.87 1347.89c36.99,0 66.98,30.02 66.98,67.06 0,37.04 -29.99,67.06 -66.98,67.06"/>
     </g>
    </g>
    <g>
     <g>
      <path class="fil4 str0" d="M2075.64 1135.7c36.99,0 66.98,30.03 66.98,67.06 0,37.04 -29.99,67.06 -66.98,67.06"/>
      <path class="fil4 str0" d="M2075.64 1562.22c36.99,0 66.98,30.03 66.98,67.06 0,37.04 -29.99,67.06 -66.98,67.06"/>
      <path class="fil4 str0" d="M2075.64 1994.75c36.99,0 66.98,30.02 66.98,67.06 0,37.03 -29.99,67.06 -66.98,67.06"/>
     </g>
     <g>
      <path class="fil4 str0" d="M2234.57 1782.56c36.99,0 66.97,30.02 66.97,67.06 0,37.04 -29.98,67.06 -66.97,67.06"/>
      <path class="fil4 str0" d="M2234.57 1347.89c36.99,0 66.97,30.02 66.97,67.06 0,37.04 -29.98,67.06 -66.97,67.06"/>
     </g>
    </g>
   </g>
   <polygon class="fil5" points="1233.56,970.65 1393.05,804.32 1233.56,897.75 "/>
   <polygon class="fil6" points="1390.1,804.32 1230.61,970.65 1230.61,1084.62 1254.18,1084.62 "/>
   <polygon class="fil7" points="1393.05,804.32 1257.13,1084.62 1393.05,1084.62 "/>
   <polygon class="fil8" points="1393.05,804.32 1393.05,1084.62 1552.54,1084.62 "/>
   <polygon class="fil6" points="1393.05,804.32 1552.54,1084.62 1552.54,963.25 "/>
   <polygon class="fil9" points="1393.05,804.32 1552.54,963.25 1552.54,897.75 "/>
   <polygon class="fil10" points="2337.41,1086.09 2337.41,1776.45 2339.86,1769.31 2439.94,1086.09 "/>
   <polygon class="fil8" points="2439.94,1086.09 2339.86,1769.31 2574.4,1086.09 "/>
   <polygon class="fil6" points="2574.4,1086.09 2339.86,1769.31 2339.34,1772.85 2707.3,1086.09 "/>
   <polygon class="fil11" points="2707.3,1086.09 2339.35,1772.84 2339.14,1774.25 2878.65,1086.09 "/>
   <polygon class="fil12" points="2878.65,1086.09 2339.14,1774.25 2339.02,1775.05 2720.99,1440.98 "/>
   <polygon class="fil5" points="2720.99,1440.98 2339.02,1775.05 2338.82,1776.42 2574.13,1771.57 "/>
   <polygon class="fil13" points="2574.13,1771.57 2338.82,1776.42 2338.72,1777.08 2713.64,1956.08 "/>
   <polygon class="fil8" points="2713.64,1956.08 2338.72,1777.08 2338.68,1777.39 2878.65,2174.31 "/>
   <polygon class="fil7" points="2878.65,2174.31 2338.68,1777.39 2338.63,1777.72 2719.12,2174.31 "/>
   <polygon class="fil6" points="2719.12,2174.31 2338.63,1777.72 2338.57,1778.15 2608.36,2174.31 "/>
   <polygon class="fil11" points="2608.36,2174.31 2338.57,1778.15 2337.41,1786.05 2436.95,2174.31 "/>
   <polygon class="fil6" points="2436.95,2174.31 2337.41,1786.05 2337.41,2174.31 "/>
   <polygon class="fil14" points="1393.05,2412.99 1265.44,2282.12 1265.44,2333.43 "/>
   <polygon class="fil7" points="1265.44,2282.12 1393.05,2412.99 1265.44,2174.31 "/>
   <polygon class="fil6" points="1265.44,2174.31 1393.05,2412.99 1393.05,2174.31 "/>
   <polygon class="fil13" points="1393.05,2174.31 1393.05,2412.99 1520.66,2174.31 "/>
   <polygon class="fil8" points="1520.66,2174.31 1393.05,2412.99 1520.66,2291.73 "/>
   <polygon class="fil5" points="1520.66,2291.73 1393.05,2412.99 1520.66,2333.43 "/>
  </g>
 </g>
</svg>
