<?xml version="1.0" encoding="UTF-8"?>
<!DOCTYPE svg PUBLIC "-//W3C//DTD SVG 1.1//EN" "http://www.w3.org/Graphics/SVG/1.1/DTD/svg11.dtd">
<!-- Creator: CorelDRAW 2019 (64-Bit) -->
<svg xmlns="http://www.w3.org/2000/svg" xml:space="preserve" width="32.1732mm" height="32.1732mm" version="1.1" style="shape-rendering:geometricPrecision; text-rendering:geometricPrecision; image-rendering:optimizeQuality; fill-rule:evenodd; clip-rule:evenodd"
viewBox="0 0 3217.32 3217.32"
 xmlns:xlink="http://www.w3.org/1999/xlink">
 <defs>
  <style type="text/css">
   <![CDATA[
    .fil0 {fill:#938369}
   ]]>
  </style>
 </defs>
 <g id="Слой_x0020_1">
  <metadata id="CorelCorpID_0Corel-Layer"/>
  <g id="_2192288927920">
   <path class="fil0" d="M518.82 1608.66c0,-56.96 180.85,-107.34 458.15,-138.05 -9.64,44.48 -14.71,90.67 -14.71,138.05 0,47.38 5.07,93.57 14.71,138.06 -277.3,-30.72 -458.15,-81.1 -458.15,-138.06zm1559.86 152.88c12.84,-50.81 19.71,-104.37 19.71,-159.71 0,-221.81 -110.32,-415.17 -273.66,-516.78 205.01,85.04 349.25,287.45 349.25,523.61 0,50.71 -6.65,99.85 -19.13,146.62 29.38,-2.65 57.89,-5.51 85.44,-8.56 -5.75,26.51 -13.11,52.41 -21.98,77.6 -29.45,3.13 -59.61,6.03 -90.42,8.71 -68.73,159.49 -208.51,281.04 -379.37,324.61 136.7,-56.05 247.11,-171.87 305.21,-318.71 -138.5,10.03 -288.47,15.52 -445.07,15.52 -220.95,0 -428.69,-10.92 -609.65,-30.13 -8.88,-25.19 -16.23,-51.09 -21.98,-77.6 178.18,19.73 396.18,31.34 631.63,31.34 168.31,0 327.71,-5.93 470.02,-16.52zm161.66 -14.82c9.64,-44.49 14.72,-90.68 14.72,-138.06 0,-47.38 -5.08,-93.57 -14.72,-138.06 277.3,30.72 458.15,81.1 458.15,138.06 0,56.96 -180.85,107.35 -458.15,138.06zm-21.98 77.6c393.5,-41.76 660.3,-122.68 660.3,-215.66 0,-92.98 -266.8,-173.89 -660.3,-215.65 -88.67,-251.7 -328.17,-432.05 -609.7,-432.05 -281.54,0 -521.04,180.35 -609.71,432.05 -393.5,41.76 -660.29,122.67 -660.29,215.65 0,92.98 266.79,173.9 660.29,215.66 88.67,251.69 328.17,432.04 609.71,432.04 281.53,0 521.03,-180.35 609.7,-432.04z"/>
   <path class="fil0" d="M2078.68 1761.54c-6.72,26.6 -15.08,52.44 -24.95,77.39 25.11,-1.82 49.84,-3.79 74.16,-5.9 10.79,-25.04 19.83,-51 26.96,-77.75 -24.78,2.24 -50.19,4.33 -76.17,6.26z"/>
  </g>
 </g>
</svg>
